<svg width="180" height="100" viewBox="0 0 180 100" fill="none" xmlns="http://www.w3.org/2000/svg">
<mask id="mask0_1630_119299" style="mask-type:alpha" maskUnits="userSpaceOnUse" x="0" y="0" width="180" height="100">
<path d="M180 0H0V100H180V0Z" fill="white"/>
</mask>
<g mask="url(#mask0_1630_119299)">
<path d="M74.3813 75.3163L75.2304 75.963C75.2362 76.5515 75.2472 77.1866 75.2595 77.8785C75.2718 78.5705 75.2705 79.2928 75.2705 80.0773C74.7524 79.4066 74.2926 78.8246 73.8697 78.3002C73.4468 77.7757 73.0822 77.3023 72.7584 76.9156C72.4229 76.5185 72.1522 76.1829 71.9366 75.8912C71.766 75.6912 71.6116 75.478 71.4748 75.2536H69.6064V75.3183L70.4859 75.9436C70.5507 77.9535 70.5507 79.5845 70.4859 80.8501L69.7509 81.4534V81.5388H71.901V81.4534L71.0914 80.8501C71.0448 79.3801 71.0228 77.9471 71.0228 76.5172L74.7304 81.1812C74.7783 81.2458 74.8405 81.3176 74.9027 81.3907C74.9504 81.4394 74.9795 81.5032 74.9849 81.5711H75.8475C75.7996 80.7653 75.7653 79.8994 75.7653 78.9708C75.7543 78.0602 75.7653 77.0495 75.7996 75.9643L76.5379 75.3176V75.2529H74.3813V75.3163Z" fill="#12100B"/>
<path d="M80.2803 75.8258L81.0018 75.3169V75.2522H78.4715V75.3169L79.1988 75.8258C79.2079 77.5072 79.2079 79.1938 79.1988 80.912L78.4463 81.4352V81.5141H81.0368V81.4352L80.2823 80.912C80.2499 79.2733 80.2499 77.5952 80.2823 75.8258" fill="#12100B"/>
<path d="M87.394 80.9786C86.5022 81.0155 85.6454 81.0155 84.8346 80.9786C84.819 80.1509 84.819 79.3281 84.8346 78.5102C85.3065 78.4968 85.9634 78.4897 86.8053 78.4889L87.2884 79.2002H87.3583V77.266H87.2884L86.8053 77.9954C85.694 77.9954 85.0256 77.9851 84.819 77.9709C84.8093 77.6171 84.7957 77.2595 84.7957 76.9C84.7957 76.5404 84.7957 76.1847 84.8093 75.7967C85.1979 75.767 85.624 75.7605 86.0398 75.7605C86.4556 75.7605 86.896 75.7669 87.3577 75.7669L87.8849 76.49H87.9548V75.2483H83.04V75.313L83.7524 75.8219C83.7699 77.2828 83.7699 78.9681 83.7524 80.9101L83.04 81.4313V81.5122H88.0843V80.1263H88.0124L87.394 80.9786Z" fill="#12100B"/>
<path d="M65.7068 75.3163L66.5416 75.963C66.5494 76.5515 66.5604 77.1866 66.5669 77.8785C66.5733 78.5705 66.5792 79.2928 66.5792 80.0773C66.0799 79.4066 65.6155 78.8246 65.1959 78.3002C64.7762 77.7757 64.3922 77.3023 64.0638 76.9156C63.74 76.5185 63.4764 76.1829 63.2575 75.8912C63.0892 75.6892 62.9345 75.4762 62.7945 75.2536H60.9287V75.3183L61.8011 75.9436C61.8697 77.9535 61.8697 79.5845 61.8011 80.8501L61.0764 81.4534V81.5388H63.2187V81.4534L62.4085 80.8501H62.4137C62.3671 79.3801 62.334 77.9471 62.334 76.5172L66.0507 81.1812C66.11 81.2479 66.1656 81.3178 66.2171 81.3907C66.266 81.4392 66.2971 81.5028 66.3052 81.5711H67.162C67.1029 80.7653 67.0733 79.8986 67.0733 78.9708C67.0668 78.0602 67.0733 77.0495 67.1167 75.9643L67.8537 75.3176V75.2529H65.7068V75.3163Z" fill="#12100B"/>
<path d="M103.203 73.7091C103.323 73.7803 103.446 73.8721 103.568 73.9542C103.69 74.0364 103.809 74.1295 103.916 74.2129C103.688 75.0387 103.463 75.7747 103.284 76.4524C103.089 77.1172 102.923 77.6863 102.782 78.1771C102.639 78.6537 102.527 79.0553 102.439 79.3735C102.359 79.6794 102.3 79.8986 102.275 80.0131L100.536 74.2827C100.657 74.1618 100.77 74.0499 100.878 73.9536C100.982 73.8651 101.091 73.7833 101.206 73.7085V73.6354H98.4315V73.7175L99.1277 74.2549C98.9334 74.8538 98.7612 75.4235 98.598 75.9777C98.4404 76.5119 98.2912 77.0159 98.1504 77.4897C98.0086 77.9566 97.8843 78.4035 97.7619 78.8102C97.6395 79.217 97.5352 79.6095 97.4322 79.9807L95.7892 74.2672L96.4641 73.7085V73.6354H93.792V73.7085C93.9073 73.8003 94.0083 73.8747 94.0841 73.9445C94.152 73.9938 94.2169 74.0471 94.2784 74.1043C94.322 74.1404 94.3611 74.1817 94.3949 74.2271C94.4284 74.2632 94.4508 74.3081 94.4597 74.3565C94.5484 74.6294 94.6669 75.0142 94.8314 75.503C94.9933 76.0204 95.1734 76.5927 95.3864 77.231C95.5995 77.8693 95.8307 78.5658 96.0703 79.3185C96.3099 80.0713 96.5521 80.8454 96.7918 81.6712H97.6699C97.6608 81.6437 97.6565 81.6148 97.657 81.5858C97.6567 81.5331 97.663 81.4805 97.6757 81.4293C97.6868 81.3808 97.7036 81.3207 97.7146 81.2676C97.7376 81.2204 97.7543 81.1704 97.7645 81.1189C97.8409 80.8408 97.9212 80.5459 98.0041 80.2245C98.087 79.9031 98.1809 79.5572 98.2819 79.2066C98.3829 78.8561 98.4904 78.4908 98.5869 78.1183C98.6983 77.7568 98.7935 77.3862 98.9036 77.0189C99.0001 76.6664 99.1044 76.314 99.2099 75.979C99.3 75.6201 99.4042 75.3129 99.4884 75.0303L101.572 81.6718H102.414C102.447 81.5341 102.51 81.2683 102.624 80.868C102.737 80.48 102.883 79.9788 103.073 79.3547C103.258 78.7449 103.483 78.009 103.735 77.1696C103.987 76.3302 104.275 75.3517 104.577 74.3041C104.756 74.1301 104.901 74.0047 105.015 73.8973C105.13 73.79 105.199 73.7266 105.246 73.6923V73.6335H103.201L103.203 73.7091Z" fill="#12100B"/>
<path d="M38.8004 73.6698L39.7628 74.2673L39.8275 80.9974C39.8275 81.2742 39.8275 81.507 39.8165 81.7165C39.8068 81.9052 39.7872 82.0932 39.7576 82.2798C39.7001 82.6165 39.5488 82.9303 39.3211 83.1852C39.1724 83.3638 38.9883 83.5098 38.7803 83.6139C38.568 83.7183 38.3329 83.7679 38.0965 83.7581C38.1249 83.7283 38.1479 83.6937 38.1645 83.656C38.1867 83.618 38.2039 83.5774 38.2156 83.535C38.2295 83.479 38.2358 83.4214 38.2344 83.3636C38.2347 83.2985 38.2194 83.2342 38.1897 83.1761C38.1548 83.1063 38.1113 83.0411 38.0602 82.9821C38.0019 82.9313 37.9365 82.8895 37.8659 82.8579C37.7936 82.8214 37.7138 82.8024 37.6328 82.8023C37.5516 82.803 37.4714 82.8193 37.3964 82.8502C37.3225 82.8797 37.2554 82.9236 37.1989 82.9795C37.1373 83.0349 37.0898 83.104 37.0603 83.1813C37.0216 83.2596 37.001 83.3455 37 83.4328C36.9987 83.5595 37.0337 83.6838 37.1011 83.7911C37.1654 83.8926 37.252 83.9782 37.3543 84.0414C37.4592 84.104 37.5729 84.1504 37.6917 84.1791C37.8083 84.2128 37.9291 84.2295 38.0505 84.2289C38.2906 84.228 38.529 84.1883 38.7564 84.1112C38.9776 84.0318 39.1872 83.923 39.3794 83.7879C39.7942 83.4964 40.1272 83.1033 40.3463 82.6465C40.4492 82.4479 40.5516 82.2584 40.6384 82.0644C40.739 81.8705 40.8158 81.6651 40.867 81.4527C40.934 81.2252 40.983 80.9927 41.0133 80.7575C41.0472 80.468 41.0602 80.1764 41.0522 79.8851C41.0457 79.5404 41.0379 79.1977 41.0321 78.8362C41.0263 78.4747 41.0224 78.0679 41.0133 77.6146C41.0043 77.1612 40.9991 76.6678 40.9932 76.1117C40.9822 75.5406 40.9803 74.903 40.9803 74.1826L41.7814 73.6652V73.5928H38.8024L38.8004 73.6698Z" fill="#12100B"/>
<path d="M49.0937 79.6543C48.9875 79.9838 48.8211 80.2908 48.6028 80.5597C48.4084 80.7949 48.1722 80.9922 47.906 81.1417C47.649 81.256 47.3714 81.3172 47.09 81.3215C46.7896 81.3174 46.4932 81.2514 46.2196 81.1275C45.943 80.98 45.6972 80.7808 45.4956 80.5409C45.2718 80.266 45.1024 79.951 44.9963 79.6129C44.8711 79.2156 44.8107 78.8007 44.8175 78.3842C44.8147 77.9914 44.8644 77.5999 44.9652 77.2202C45.0553 76.8926 45.2045 76.5843 45.4056 76.3103C45.5888 76.0546 45.826 75.8423 46.1005 75.6882C46.3881 75.5367 46.7091 75.4594 47.0343 75.4631C47.3637 75.4589 47.689 75.5362 47.9811 75.6882C48.2622 75.8356 48.5049 76.0466 48.6896 76.3045C48.8876 76.5822 49.0359 76.892 49.1281 77.2202C49.2346 77.5989 49.2869 77.9908 49.2835 78.3842C49.2925 78.814 49.2283 79.2421 49.0937 79.6504V79.6543ZM50.0231 76.6395C49.8755 76.384 49.6846 76.156 49.459 75.9656C49.2591 75.7514 49.0274 75.5692 48.7719 75.4256C48.527 75.2788 48.2628 75.1669 47.987 75.0932C47.7149 75.0193 47.4341 74.9823 47.1522 74.9833C46.6746 74.9766 46.2005 75.0663 45.7585 75.2471C45.1307 75.4967 44.5929 75.9297 44.2154 76.4894C43.8379 77.0491 43.6384 77.7095 43.6427 78.3842C43.6381 78.8337 43.7308 79.2789 43.9147 79.6892C44.0883 80.0957 44.3433 80.4623 44.664 80.7666C44.9808 81.0816 45.3543 81.334 45.765 81.5103C46.1846 81.7198 46.6309 81.7632 47.1153 81.7632C47.5997 81.7632 48.0478 81.7198 48.4649 81.5006C48.8706 81.3291 49.2362 81.0755 49.5387 80.7556C49.8464 80.4481 50.0924 80.0846 50.2633 79.6847C50.4345 79.2751 50.521 78.8352 50.5179 78.3913C50.5202 78.0771 50.4784 77.764 50.3935 77.4614C50.3072 77.1747 50.1833 76.9008 50.025 76.6466" fill="#12100B"/>
<path d="M56.5468 75.3162L57.2695 75.8251V77.9637C56.1427 77.9702 55.0391 77.9702 53.9421 77.9637V75.8251L54.6629 75.3162V75.2515H52.1572V75.3162L52.8599 75.8251V80.9113L52.1572 81.4358V81.5153H54.6629V81.4358L53.9421 80.9113V78.4727C55.0391 78.4623 56.144 78.4623 57.2695 78.4727V80.9113L56.5468 81.4358V81.5153H59.0537V81.4358L58.3413 80.9113C58.3206 79.3185 58.3206 77.6397 58.3413 75.8251L59.0537 75.3162V75.2515H56.5468V75.3162Z" fill="#12100B"/>
<path d="M107.355 78.7475L108.321 76.0922L109.353 78.7475H107.355ZM109.051 75.1545H108.151L105.975 80.8693L105.247 81.4746V81.5541H107.366V81.4778L106.572 80.8725L107.172 79.2196C108.011 79.2118 108.797 79.2118 109.53 79.2196L110.182 80.8725L109.373 81.4778V81.5573H112.132V81.4778L111.409 80.8479L109.051 75.1545Z" fill="#12100B"/>
<path d="M132.399 81.0169C131.48 81.0544 130.624 81.0544 129.823 81.0169C129.809 80.19 129.809 79.3674 129.823 78.5491C130.288 78.5355 130.94 78.5278 131.804 78.5278L132.292 79.243H132.364V77.3075H132.292L131.804 78.037C130.677 78.037 130.024 78.026 129.81 78.0124C129.8 77.6599 129.792 77.301 129.792 76.9415C129.792 76.5819 129.792 76.2256 129.8 75.8376C130.188 75.8085 130.59 75.802 131.019 75.802C131.447 75.802 131.9 75.8085 132.364 75.8085L132.877 76.5315H132.946V75.2898H128.028V75.3545L128.737 75.8647C128.762 77.3243 128.762 79.0096 128.737 80.9516L128.028 81.4728V81.5537H133.075V80.1652H133L132.399 81.0169Z" fill="#12100B"/>
<path d="M137.73 78.3784H137.395C137.321 78.3719 137.247 78.3719 137.192 78.3719C137.135 78.3739 137.078 78.3713 137.021 78.3641L137.032 75.7864C137.114 75.7864 137.217 75.7735 137.313 75.7709C137.41 75.7683 137.507 75.7658 137.605 75.7632C137.703 75.7606 137.773 75.7522 137.848 75.7522H138.005C138.2 75.7481 138.393 75.7817 138.575 75.8511C138.741 75.9142 138.892 76.0122 139.016 76.1382C139.137 76.2474 139.23 76.3829 139.288 76.534C139.352 76.6868 139.384 76.8505 139.384 77.0158C139.384 77.4536 139.244 77.7918 138.958 78.0246C138.678 78.2652 138.265 78.3771 137.727 78.3771L137.73 78.3784ZM140.979 81.368C140.924 81.3118 140.856 81.2452 140.791 81.1863C140.726 81.1068 140.661 81.0156 140.606 80.9393C140.548 80.8821 140.496 80.8188 140.452 80.7504L139.462 79.2184C139.373 79.0527 139.249 78.908 139.099 78.7942C138.937 78.6969 138.755 78.6371 138.566 78.6189C138.845 78.6077 139.121 78.5592 139.387 78.4747C139.621 78.4002 139.841 78.2846 140.034 78.1333C140.212 77.9987 140.359 77.8278 140.465 77.6321C140.569 77.4321 140.624 77.2105 140.625 76.9854C140.623 76.748 140.56 76.5151 140.442 76.309C140.313 76.094 140.142 75.9075 139.939 75.7612C139.699 75.599 139.434 75.4801 139.153 75.4101C138.821 75.3227 138.478 75.282 138.135 75.2891H135.219V75.3538L135.928 75.888V80.9509L135.179 81.4741V81.553H137.747V81.478L137.035 80.9845L137.011 78.8362C137.161 78.8285 137.294 78.8162 137.42 78.8162H137.692C137.798 78.8159 137.902 78.8343 138.002 78.8705C138.091 78.9223 138.165 78.9959 138.218 79.0846L139.689 81.5569H141.114V81.478C141.063 81.4494 141.017 81.4139 140.975 81.3726" fill="#12100B"/>
<path d="M123.005 77.921C123.552 77.4037 124.018 76.9665 124.399 76.6173C124.78 76.2681 125.064 76.0197 125.265 75.8477L126.216 75.3511V75.2864H124.104V75.3511L124.428 75.8387C124.208 76.0773 123.978 76.2914 123.757 76.5151C123.537 76.7389 123.304 76.9387 123.081 77.145C122.859 77.3513 122.653 77.5505 122.446 77.7322C122.239 77.9139 122.045 78.095 121.858 78.2379C122.584 78.9641 123.412 79.8695 124.378 80.9792L124.106 81.4713V81.5502H126.387V81.4713L125.901 80.9792C124.546 79.5824 123.586 78.5793 123.007 77.921" fill="#12100B"/>
<path d="M121.856 75.8647L122.59 75.3545V75.2898H120.04V75.3545L120.763 75.8647C120.773 77.5539 120.773 79.2366 120.763 80.9516L120.013 81.4741V81.5537H122.604V81.4741L121.859 80.9516C121.849 79.2191 121.849 77.5338 121.859 75.8647" fill="#12100B"/>
<path d="M117.755 80.9889H116.508C116.112 80.9889 115.76 80.9824 115.436 80.9824C115.415 79.2551 115.415 77.566 115.436 75.8652L116.229 75.3672V75.2954H113.621V75.3672L114.333 75.8652C114.356 77.5537 114.356 79.2318 114.333 80.9514L113.621 81.4746V81.5535H118.43V80.1553H118.335L117.755 80.9889Z" fill="#12100B"/>
<path d="M73.0126 66.6428H73.3603V66.5134H72.4932V66.6428H72.8584V67.4744H73.0126V66.6428ZM74.085 67.1032L73.7068 66.5167H73.5455V67.4744H73.7068V66.798L74.085 67.3645L74.4626 66.798V67.4718H74.616V66.5141H74.4626L74.085 67.1032Z" fill="#12100B"/>
<path d="M143.088 80.5726C143.088 80.6476 143.035 80.702 142.937 80.702H142.742V80.4433H142.937C143.032 80.4433 143.093 80.4866 143.093 80.5726H143.088ZM143.287 80.5603C143.287 80.3786 143.152 80.2719 142.942 80.2719H142.553V81.1501H142.748V80.8675H142.902L143.09 81.1501H143.315L143.101 80.8352C143.158 80.8164 143.208 80.7794 143.242 80.7297C143.276 80.6801 143.293 80.6206 143.29 80.5603H143.287ZM143.626 80.733C143.625 80.8774 143.582 81.0184 143.501 81.1382C143.42 81.258 143.306 81.3511 143.172 81.4059C143.038 81.4607 142.891 81.4747 142.749 81.446C142.608 81.4173 142.478 81.3473 142.376 81.2448C142.274 81.1424 142.205 81.012 142.177 80.8703C142.149 80.7286 142.164 80.5818 142.22 80.4486C142.276 80.3154 142.37 80.2017 142.491 80.1219C142.611 80.0421 142.753 79.9998 142.897 80.0003C142.994 79.9993 143.089 80.0175 143.178 80.054C143.268 80.0905 143.349 80.1446 143.417 80.2129C143.485 80.2812 143.538 80.3624 143.574 80.4518C143.61 80.5411 143.628 80.6367 143.626 80.733ZM143.722 80.733C143.723 80.6246 143.702 80.5172 143.661 80.417C143.619 80.3168 143.559 80.2257 143.482 80.1491C143.405 80.0724 143.314 80.0117 143.214 79.9704C143.113 79.9291 143.006 79.908 142.897 79.9085C142.733 79.908 142.573 79.956 142.437 80.0466C142.3 80.1372 142.194 80.2662 142.131 80.4173C142.068 80.5684 142.051 80.7348 142.083 80.8953C142.115 81.0558 142.193 81.2033 142.309 81.3191C142.425 81.4349 142.573 81.5137 142.733 81.5456C142.894 81.5774 143.061 81.561 143.212 81.4982C143.363 81.4354 143.493 81.3292 143.584 81.193C143.674 81.0567 143.723 80.8967 143.722 80.733Z" fill="#12100B"/>
<path d="M80.4851 45.743C80.5363 45.774 80.5939 45.8141 80.636 45.752C80.7182 45.6356 80.7655 45.4895 80.8303 45.3673C81.0054 45.0497 81.2039 44.7456 81.4242 44.4574C81.5802 44.2405 81.7535 44.0366 81.9422 43.8475C82.1125 43.6869 82.2916 43.5358 82.4785 43.3948C82.5432 43.3483 82.5264 43.3347 82.4552 43.3483C82.018 43.4291 81.575 43.4679 81.1353 43.519C80.9346 43.5423 80.4359 43.6231 80.3925 43.6296C80.3791 43.6353 80.367 43.6437 80.3569 43.6542C80.2467 43.7984 80.1498 43.9523 80.0674 44.114C79.8252 44.6585 79.9508 45.4073 80.4858 45.7436" fill="#12100B"/>
<path d="M90.7888 26.2674C90.8104 26.3442 90.8383 26.419 90.8724 26.4912C90.8867 26.5178 90.9094 26.539 90.9371 26.5514C90.9647 26.5638 90.9957 26.5667 91.0252 26.5597C91.1476 26.5364 91.2629 26.4634 91.3853 26.4336C91.4572 26.4181 91.5206 26.3903 91.5796 26.4446C91.6748 26.5345 91.7635 26.6218 91.9034 26.6309C92.0277 26.6406 92.0931 26.5662 92.1896 26.5015C92.2285 26.4769 92.3839 26.5992 92.4182 26.6199C92.483 26.6587 92.777 26.8494 92.7381 26.6477C92.7025 26.4692 92.6404 26.3095 92.6449 26.1213C92.646 25.989 92.6747 25.8584 92.7291 25.7378C92.7582 25.6731 92.9421 25.4325 92.799 25.3905C92.7194 25.3653 92.6047 25.4118 92.5348 25.4429C92.4085 25.5024 92.3049 25.5981 92.1708 25.6421C91.9765 25.7067 91.711 25.6556 91.5336 25.5593C91.4338 25.5037 91.3393 25.4403 91.2428 25.3763C91.14 25.2849 91.0235 25.2101 90.8976 25.1545C90.8452 25.1325 90.7532 25.1014 90.7098 25.1609C90.6509 25.2431 90.6632 25.4248 90.6632 25.5205C90.6646 25.7743 90.7084 26.0261 90.7927 26.2655" fill="#12100B"/>
<path d="M89.9984 24.2838C90.1016 24.2794 90.2049 24.2805 90.308 24.2871C90.3728 24.2871 90.5671 24.3168 90.5191 24.194C90.5003 24.1442 90.4356 24.1041 90.398 24.0698C90.3605 24.0355 90.308 23.9721 90.2568 23.9611C90.1461 23.9424 90.0107 24.051 89.9408 24.1228C89.8572 24.2062 89.8508 24.3026 89.9984 24.2838Z" fill="#12100B"/>
<path d="M97.1042 35.1645C97.2551 35.0966 97.4215 35.008 97.5925 35.008C97.7414 35.008 97.8942 35.0914 98.0244 35.158C98.1753 35.2389 98.3294 35.3184 98.4778 35.4096C98.5472 35.4515 98.611 35.5021 98.6675 35.5603C98.6908 35.5855 98.6895 35.6023 98.7251 35.59C98.7473 35.582 98.7689 35.5728 98.7899 35.5622C98.8331 35.5376 98.869 35.5022 98.8942 35.4594C99.0088 35.2466 98.7744 35.16 98.6034 35.136C98.4739 35.116 98.3547 35.0914 98.2317 35.0617C98.1863 35.0526 98.0885 35.0429 98.0607 35.0015C97.992 34.8987 98.1449 34.8476 98.2096 34.823C98.3387 34.7763 98.4537 34.6973 98.5437 34.5937C98.6337 34.4901 98.6956 34.3652 98.7236 34.2309C98.7517 34.0967 98.7449 33.9575 98.7039 33.8266C98.6629 33.6957 98.5891 33.5775 98.4894 33.4831C98.4212 33.4193 98.3431 33.3669 98.2582 33.3279C98.1863 33.2988 98.0497 33.2425 97.9765 33.2865C97.9176 33.3221 97.9843 33.4307 98.0063 33.4805C98.0302 33.5294 98.0439 33.5827 98.0465 33.637C98.0492 33.6914 98.0408 33.7457 98.0218 33.7967C97.9848 33.883 97.9219 33.9557 97.8417 34.0047C97.7616 34.0537 97.6681 34.0766 97.5743 34.0703C97.4639 34.0571 97.3598 34.0122 97.2745 33.9409C97.2512 33.9222 97.2097 33.8763 97.1747 33.8944C97.1398 33.9125 97.1327 33.9752 97.1281 34.0153C97.1173 34.1296 97.1329 34.2448 97.1734 34.3522C97.1916 34.3956 97.2382 34.4473 97.2181 34.4906C97.1948 34.5462 97.1683 34.6006 97.1469 34.6549C97.0737 34.8289 96.9992 35.0009 96.9338 35.1768C96.8937 35.2867 97.0634 35.1904 97.1061 35.1703" fill="#12100B"/>
<path d="M94.6854 56.5468C94.7695 56.4668 94.8446 56.3778 94.9095 56.2816C94.9916 56.1796 95.0658 56.0715 95.1316 55.9583C95.2619 55.7276 95.3612 55.4808 95.4269 55.2243C95.5061 54.9696 95.6044 54.7212 95.7209 54.4812C95.8252 54.2826 95.9011 54.0704 95.9463 53.8507C96.002 53.475 95.9178 53.0637 95.8634 52.6912C95.8433 52.556 95.8187 52.4196 95.7987 52.2818C95.7922 52.2223 95.7585 52.0969 95.6756 52.1079C95.5927 52.1189 95.5798 52.2631 95.5642 52.3297C95.5162 52.5441 95.4354 52.7498 95.3246 52.9395C95.1912 53.16 94.9794 53.3217 94.9405 53.5901C94.9095 53.7996 95.0053 53.9503 95.0539 54.1456C95.0793 54.2428 95.085 54.344 95.0707 54.4434C95.0564 54.5428 95.0222 54.6383 94.9703 54.7244C94.8674 54.9017 94.7481 55.069 94.6141 55.2243C94.4743 55.3872 94.3098 55.4959 94.1466 55.6297C93.7483 55.9531 93.5572 56.4148 93.4594 56.9102C93.4374 57.0234 93.3875 57.3338 93.589 57.3073C93.7075 57.2917 93.824 57.1986 93.9218 57.1333C94.1861 56.9522 94.4399 56.7518 94.6834 56.5468" fill="#12100B"/>
<path d="M104.507 62.583C104.446 62.5854 104.386 62.5782 104.328 62.5616C104.276 62.5388 104.22 62.5236 104.164 62.5164C104.058 62.4978 103.951 62.5007 103.847 62.525C103.743 62.5492 103.645 62.5942 103.559 62.6574C103.465 62.7356 103.39 62.8287 103.304 62.9122C103.197 63.0076 103.071 63.081 102.936 63.1282C102.703 63.2143 102.463 63.2756 102.217 63.3112C101.705 63.392 101.156 63.2659 100.659 63.1495C100.517 63.1185 100.376 63.0848 100.237 63.0428C100.171 63.0227 100.106 62.9983 100.043 62.9697C99.992 62.9464 99.8845 62.9122 99.8489 62.8688C99.8132 62.8255 99.821 62.7395 99.7996 62.6858C99.7781 62.6343 99.745 62.5885 99.7029 62.5518C99.6608 62.5151 99.6108 62.4886 99.5568 62.4743C99.4989 62.4586 99.4397 62.4478 99.38 62.442C99.3347 62.442 99.3068 62.3987 99.2815 62.3644C99.2319 62.3051 99.1897 62.2399 99.1559 62.1704C99.086 62.0307 99.0193 61.8962 98.9506 61.7565C98.7563 61.3575 98.5744 60.952 98.3976 60.5459C97.9267 59.4701 97.5117 58.3708 97.1541 57.2523C97.011 56.8048 96.8757 56.3566 96.75 55.9046C96.7157 55.7405 96.6709 55.5787 96.616 55.4202C96.5894 55.3556 96.568 55.2405 96.4793 55.234C96.3615 55.2262 96.274 55.3556 96.2242 55.4468C96.1 55.6893 95.9918 55.9397 95.9003 56.1963C95.8263 56.4219 95.7339 56.641 95.6238 56.8514C95.5695 56.9449 95.5042 57.0317 95.4295 57.11C95.3909 57.1503 95.3493 57.1877 95.3052 57.2219C95.2631 57.2543 95.2009 57.2808 95.1854 57.3338C95.1064 57.6145 95.2573 57.855 95.333 58.1176C95.3687 58.2398 95.4541 58.4946 95.3531 58.6097C95.2663 58.7106 95.0876 58.5612 95.0209 58.4991C94.8668 58.3549 94.7618 58.1564 94.6589 57.9779C94.5941 57.8673 94.5293 57.7296 94.3836 57.7606C94.2379 57.7917 94.0961 57.9035 93.964 57.9779C93.9096 58.0135 93.8345 58.0199 93.8565 58.0865C93.9252 58.3088 94.0078 58.5265 94.1039 58.7384C94.3005 59.1878 94.5301 59.6221 94.791 60.0376C95.0661 60.4894 95.366 60.9257 95.6892 61.3446C96.0292 61.7804 96.3977 62.1982 96.7086 62.6574C96.8472 62.8611 97.1658 63.3791 97.248 63.6041C97.3413 63.8628 97.8309 65.3056 97.8808 65.431C98.0427 65.8358 98.3535 66.1838 98.6721 66.4741C98.8243 66.6138 98.961 66.7735 99.1022 66.9268C99.1617 66.9915 99.1553 67.0064 99.2375 66.9844C99.4142 66.9308 99.5872 66.866 99.7556 66.7904C99.9923 66.6882 100.22 66.5666 100.436 66.4269C100.457 66.4133 100.646 66.2976 100.64 66.2685C100.628 66.2038 100.51 65.7563 100.545 65.744C100.812 65.6397 101.087 65.5548 101.366 65.4899C101.79 65.3947 102.21 65.2771 102.622 65.1374C102.91 65.0394 103.179 64.8924 103.417 64.7028C103.68 64.4786 103.917 64.2254 104.123 63.9482C104.315 63.7006 104.48 63.4338 104.616 63.1521C104.665 63.0497 104.703 62.9427 104.73 62.8326C104.751 62.7188 104.61 62.5979 104.502 62.5869" fill="#12100B"/>
<path d="M87.8471 47.1283C88.191 46.5838 88.5563 46.0374 88.9992 45.5672C89.2894 45.2613 89.6566 45.0331 89.9985 44.7912C90.0251 44.7731 90.1462 44.6968 90.0697 44.6619C89.981 44.6185 89.8411 44.6619 89.7543 44.6838C89.3334 44.7938 88.9507 45.0408 88.6042 45.2969C88.2046 45.5864 87.8519 45.9353 87.5583 46.3316C86.9754 47.1497 86.5448 48.0576 86.1154 48.9656C85.9311 49.3693 85.7145 49.7575 85.4678 50.1264C85.3246 50.3387 85.1606 50.5363 84.9782 50.7162C84.7692 50.9084 84.5457 51.0844 84.3098 51.2426C84.1155 51.379 83.9103 51.5097 83.7205 51.6526C83.5547 51.7767 83.363 51.9164 83.3106 52.1285C83.284 52.2391 83.3164 52.3413 83.2749 52.4519C83.2398 52.5475 83.1812 52.6329 83.1046 52.7002C82.9751 52.8089 82.8106 52.8645 82.6597 52.9298C82.4596 53.0171 82.2064 53.0417 82.0367 53.1885C81.8748 53.2784 81.9804 53.5267 81.9914 53.6677C82.0412 54.185 81.4538 54.4644 81.0368 54.5853C80.5543 54.7218 80.0536 54.7824 79.5524 54.7651C79.1892 54.7452 78.8278 54.7 78.4709 54.6299C78.3077 54.6021 78.0403 54.5653 77.9159 54.7075C77.7916 54.8498 78.0124 55.0212 78.1102 55.1098C78.2762 55.2572 78.4702 55.3696 78.6807 55.4402C78.7916 55.4783 78.9047 55.5094 79.0195 55.5334C79.0382 55.5398 79.1593 55.5586 79.1593 55.5599C79.6859 55.6482 80.2226 55.6597 80.7525 55.5942C80.9565 55.5681 81.1586 55.5285 81.3573 55.4758C81.5516 55.4267 81.7692 55.3659 81.9279 55.2352C81.9684 55.2035 81.9998 55.1617 82.0191 55.1141C82.0384 55.0664 82.0449 55.0146 82.038 54.9636C82.027 54.8834 82.0024 54.8162 82.0302 54.736C82.0653 54.6598 82.1215 54.5952 82.1921 54.5498C82.2988 54.4634 82.4108 54.3839 82.5276 54.3118C82.7543 54.1721 83.0004 54.0712 83.1914 53.8759C83.2744 53.7885 83.3263 53.6762 83.3391 53.5564C83.3546 53.4426 83.3449 53.3049 83.4122 53.204C83.4785 53.0991 83.5632 53.0071 83.6622 52.9324C83.7632 52.8625 83.8688 52.803 83.9718 52.7384C84.1486 52.6284 84.2515 52.4797 84.3493 52.2928C84.4259 52.1301 84.5158 51.9739 84.6181 51.8259C84.7324 51.6801 84.8541 51.5402 84.9827 51.4068C85.289 51.0777 85.6303 50.775 85.9049 50.4213C86.1875 50.0465 86.4364 49.6477 86.649 49.2294C87.0298 48.5181 87.4184 47.8106 87.8491 47.1257" fill="#12100B"/>
<path d="M80.662 56.3662C79.9419 56.4393 79.2056 56.4703 78.4997 56.2841C78.4145 56.2544 78.3222 56.2517 78.2354 56.2763C78.1309 56.303 78.0344 56.3547 77.9544 56.427C77.8647 56.5222 77.7848 56.6262 77.716 56.7374C77.6415 56.8415 77.5579 56.9386 77.4661 57.0278C77.3896 57.1022 77.1831 57.2826 77.1176 57.0989C77.0684 56.9515 77.1131 56.7717 77.163 56.6301C77.242 56.4083 77.3851 56.2033 77.4427 55.9769C77.4538 55.9316 77.4706 55.8515 77.4227 55.823C77.3437 55.7681 77.2684 55.708 77.1973 55.6432C77.1245 55.5769 77.0741 55.4897 77.0529 55.3936C77.0309 55.3238 76.9952 55.3936 76.9732 55.4227C76.9143 55.5158 76.8586 55.6077 76.8023 55.7008C76.608 56.0241 76.4169 56.3559 76.246 56.6928C76.0936 56.9921 75.9677 57.3042 75.8697 57.6253C75.7376 58.0457 75.6106 58.4684 75.4889 58.8935C75.371 59.3138 75.2758 59.7394 75.169 60.1649C75.1159 60.368 75.0582 60.5697 74.9883 60.7683C74.9473 60.8933 74.8837 61.0097 74.8005 61.1116C74.7228 61.2028 74.6217 61.2772 74.533 61.3626C74.3666 61.5255 74.2092 61.6982 74.1198 61.9168C74.0283 62.1262 73.9746 62.3502 73.9612 62.5783C73.9584 62.6181 73.96 62.6579 73.9657 62.6973C73.9702 62.7238 73.9391 62.762 73.9281 62.7879C73.8775 62.9069 73.8456 63.0329 73.8336 63.1617C73.7792 63.6473 73.9981 64.1006 74.2442 64.5087C74.2778 64.5617 74.4598 64.5262 74.5175 64.5242C74.5751 64.5223 74.7072 64.4841 74.737 64.5553C74.9015 64.9873 75.077 65.4121 75.2603 65.8357C75.4144 66.1869 75.5899 66.5296 75.9118 66.7598C76.2939 67.0327 76.7822 67.197 77.2316 67.3089C77.6644 67.422 78.1117 67.4691 78.5586 67.4486C78.7004 67.4428 78.9316 67.4486 79.0482 67.3496C79.0981 67.3076 79.1129 67.2203 79.1311 67.1556C79.1547 67.0535 79.1547 66.9473 79.1311 66.8452C79.0935 66.6234 79.0469 66.4203 78.872 66.2587C78.7367 66.1395 78.5921 66.0313 78.4394 65.9353C78.3203 65.8545 78.1985 65.7769 78.0742 65.7038C78.0268 65.6698 77.9876 65.6256 77.9595 65.5745C77.6888 65.1929 77.4902 64.765 77.3735 64.3121C77.2601 63.8775 77.1682 63.4384 77.1792 62.987C77.1792 62.9431 77.1636 62.8732 77.209 62.8577C77.2575 62.8431 77.3019 62.8172 77.3385 62.782C77.3719 62.7504 77.3972 62.711 77.4121 62.6674C77.427 62.6238 77.4311 62.5773 77.424 62.5318C77.413 62.4251 77.3074 62.3578 77.2776 62.2511C77.2604 62.1786 77.2604 62.1031 77.2776 62.0306C77.3422 61.661 77.455 61.3014 77.6131 60.961C77.9259 60.2496 78.3967 59.5939 78.8435 58.9562C79.1673 58.4938 79.5061 58.0373 79.8571 57.5936C80.0824 57.3108 80.3162 57.0366 80.5584 56.7711C80.6232 56.7025 80.688 56.6346 80.743 56.5628C80.7852 56.5242 80.8139 56.4733 80.8252 56.4173C80.8252 56.3475 80.7009 56.3565 80.6595 56.3578" fill="#12100B"/>
<path d="M95.3863 40.0108C95.7256 39.3757 96.0645 38.7398 96.403 38.103C96.4432 38.0254 96.4872 37.9446 96.5286 37.8689C96.5429 37.8379 96.5597 37.8081 96.5753 37.7784C96.6005 37.7338 96.6439 37.7415 96.6938 37.7305C96.8117 37.7027 96.925 37.6658 97.039 37.6309C97.1875 37.58 97.3301 37.5135 97.4645 37.4324C97.594 37.3548 97.6451 37.2681 97.7235 37.1453C97.7958 37.0458 97.8817 36.957 97.9787 36.8814C98.0769 36.7847 98.1464 36.6627 98.1794 36.529C98.2273 36.3725 98.4929 36.3996 98.6159 36.3317C98.8348 36.2153 98.7668 35.9722 98.6904 35.7795C98.6826 35.7549 98.6716 35.7672 98.669 35.7717C98.5395 35.9592 98.2694 35.8305 98.1121 35.7607C97.9825 35.7018 97.7157 35.5188 97.5726 35.6023C97.4891 35.6508 97.4716 35.7827 97.4431 35.8609C97.423 35.914 97.3977 35.9651 97.3744 36.0161C97.3155 36.1455 97.2533 36.2787 97.1925 36.4106C97.1213 36.5791 97.0346 36.7406 96.9334 36.8931C96.8812 36.9828 96.8067 37.0577 96.7171 37.1103C96.6192 37.157 96.5173 37.1949 96.4127 37.2235C96.202 37.2829 95.9804 37.293 95.7651 37.2533C95.6265 37.2255 95.462 37.1045 95.3189 37.1569C95.1479 37.2216 95.1894 37.4738 95.2457 37.6057C95.3021 37.7376 95.4679 37.8075 95.5967 37.8372C95.4024 38.2356 95.2878 38.4393 95.135 38.7426C95.0158 38.9788 94.8958 39.216 94.7749 39.4539C94.3656 40.2589 93.9554 41.0644 93.5444 41.8706C92.9909 42.9549 92.437 44.0403 91.8826 45.1267C91.2873 46.2942 90.6915 47.4619 90.0952 48.6298C89.5577 49.6827 89.02 50.7361 88.482 51.7902C88.1038 52.5287 87.7262 53.2711 87.3487 54.0097C87.2509 54.2037 87.1544 54.3932 87.0547 54.5852L86.9944 54.7068C86.9057 54.882 86.8138 55.0573 86.7283 55.2358C86.657 55.3878 86.534 55.5805 86.5838 55.7531C86.6447 55.9627 86.9044 55.9536 86.9944 55.7809C87.021 55.7363 87.0456 55.6898 87.0676 55.6445L87.3752 55.0702C87.756 54.3584 88.1362 53.6449 88.5157 52.9297C89.0605 51.9118 89.603 50.8937 90.1431 49.8754C90.7649 48.7113 91.3861 47.5473 92.007 46.3832C92.6179 45.2347 93.2293 44.0858 93.841 42.9364C94.3591 41.9646 94.8772 40.992 95.3953 40.0185" fill="#12100B"/>
<path d="M101.286 29.0449C101.148 28.7543 100.987 28.4751 100.804 28.21C100.406 27.6125 99.8934 27.0958 99.5436 26.4672C99.479 26.3554 99.4236 26.2386 99.3779 26.118C99.326 25.9705 99.3558 25.8076 99.2969 25.6614C99.2483 25.5405 99.1162 25.4816 98.9971 25.4564C98.8261 25.4195 98.7587 25.382 98.681 25.2268C98.5742 25.0115 98.3967 24.8252 98.2413 24.6448C98.0575 24.4273 97.9133 24.1793 97.8152 23.9121C97.7504 23.7381 97.7219 23.5551 97.6597 23.3812C97.6209 23.2771 97.5542 23.2725 97.4752 23.2182C97.3787 23.1535 97.3398 23.0242 97.3042 22.9233C97.2852 22.8637 97.2536 22.8088 97.2115 22.7625C97.1693 22.7162 97.1177 22.6795 97.06 22.6549C97.0157 22.6413 96.9697 22.6339 96.9234 22.6329C96.8891 22.5929 96.8586 22.5495 96.8282 22.5075C96.6672 22.2915 96.4804 22.0961 96.2719 21.9255C96.1132 21.8013 95.9481 21.6817 95.7842 21.5653C95.7357 21.531 95.6813 21.4877 95.6191 21.5109C95.4805 21.5633 95.5712 21.7606 95.6191 21.8459C95.417 21.6894 95.1347 21.672 94.8918 21.6099C94.7361 21.5651 94.5887 21.4954 94.4553 21.4036C94.3906 21.3616 94.2934 21.3046 94.3258 21.227C94.3386 21.197 94.3544 21.1684 94.3731 21.1417C94.4475 21.0123 94.5026 20.9354 94.5848 20.8125C94.8135 20.4436 95.0893 20.106 95.4054 19.8082C95.5828 19.6465 95.7816 19.4946 95.9274 19.3025C95.99 19.2312 96.023 19.1386 96.0193 19.0438C96.0025 18.8162 95.9015 18.5879 95.7985 18.3874C95.6252 18.0507 95.4001 17.7433 95.1314 17.4762C94.769 17.1191 94.35 16.8244 93.8913 16.6039C93.4442 16.3747 92.9701 16.2026 92.4801 16.0917C92.1647 16.0165 91.8402 15.9874 91.5164 16.005C91.2457 16.0218 90.898 16.0968 90.8041 16.3885C90.7561 16.5528 90.7665 16.7409 90.751 16.9097C90.7329 17.1687 90.6966 17.4261 90.6422 17.6799C90.5965 17.8436 90.5608 18.0099 90.5353 18.1779C90.5198 18.3687 90.6719 18.5116 90.8028 18.6306C90.8882 18.7095 91.1525 18.8711 91.023 19.0154C90.9329 19.113 90.7451 19.0684 90.6344 19.0419C90.5133 19.0108 90.4012 18.9578 90.2814 18.9177C90.1415 18.8699 90.0017 18.8291 89.8605 18.7826C89.616 18.6987 89.3614 18.648 89.1034 18.6319C88.9107 18.6218 88.7181 18.6515 88.5374 18.7192C88.3787 18.7838 88.1708 18.8867 88.0944 19.0483C88.0044 19.2359 88.1177 19.4454 88.2589 19.5709C88.3541 19.6525 88.464 19.7152 88.5827 19.7558C88.7006 19.7991 88.8172 19.8489 88.8871 19.9608C88.8967 19.9737 88.9032 19.9885 88.9062 20.0043C88.9091 20.02 88.9084 20.0362 88.9041 20.0516C88.8998 20.0671 88.8919 20.0813 88.8813 20.0933C88.8706 20.1052 88.8573 20.1145 88.8424 20.1206C88.7913 20.1451 88.7304 20.1471 88.6773 20.1736C88.6355 20.1941 88.5978 20.2219 88.5659 20.2557C88.4008 20.431 88.4195 20.7194 88.4539 20.9419C88.4849 21.1417 88.5659 21.3344 88.5834 21.5375C88.5913 21.5776 88.591 21.619 88.5824 21.659C88.5738 21.699 88.5572 21.7369 88.5335 21.7703C88.4775 21.818 88.4064 21.8446 88.3328 21.8453C88.2071 21.8608 88.2104 21.9054 88.2524 22.0128C88.2656 22.0438 88.2849 22.0719 88.3092 22.0953C88.3334 22.1187 88.3621 22.1371 88.3936 22.1492C88.5989 22.2411 88.81 22.1725 89.0244 22.1835C89.2595 22.1926 89.4007 22.3264 89.5315 22.5068C89.5645 22.5537 89.6122 22.5883 89.6671 22.6051C89.722 22.622 89.7809 22.6202 89.8346 22.6C89.9466 22.5515 89.8534 22.415 89.81 22.3516C89.6371 22.1622 89.5703 21.9048 89.5224 21.661C89.4784 21.4392 89.4881 21.1811 89.696 21.0479C89.7392 21.0165 89.7883 20.9941 89.8404 20.9821C89.8925 20.9701 89.9464 20.9687 89.9991 20.9781C90.1131 21.0072 90.172 21.1178 90.2031 21.2219C90.2775 21.465 90.2387 21.7211 90.3242 21.9636C90.3602 22.081 90.4242 22.188 90.5107 22.2753C90.5793 22.3439 90.7393 22.5159 90.8462 22.448C90.9291 22.395 90.9057 22.2598 90.898 22.1809C90.8777 22.065 90.8729 21.9469 90.8837 21.8298C90.8962 21.6985 90.9272 21.5696 90.9757 21.4469C90.9874 21.4005 91.0165 21.3602 91.0569 21.3345C91.0974 21.3088 91.1462 21.2995 91.1933 21.3085C91.2898 21.3161 91.3833 21.3457 91.4666 21.3952C91.5663 21.4527 91.6842 21.5103 91.7308 21.6222C91.775 21.7163 91.8129 21.8133 91.8441 21.9125C91.8602 21.9495 91.8848 21.9822 91.9158 22.0081C91.9469 22.0339 91.9835 22.0521 92.0229 22.0613C92.2236 22.1201 92.4367 22.1001 92.642 22.1091C92.7316 22.1071 92.8204 22.1264 92.901 22.1654C92.9554 22.1977 92.9554 22.2799 92.9567 22.3361C92.9644 22.5691 92.9588 22.8022 92.9399 23.0345C92.9308 23.1678 92.9121 23.3327 92.7391 23.3327C92.6511 23.3327 92.5494 23.2997 92.4956 23.3902C92.427 23.5047 92.3706 23.6256 92.3104 23.744C92.1997 23.9625 92.0196 24.1895 91.9866 24.4379C91.9762 24.5491 91.9866 24.6564 91.9167 24.7541C91.8785 24.8006 91.83 24.8376 91.775 24.8622C91.7201 24.8867 91.6601 24.8982 91.6 24.8957C91.534 24.8957 91.4684 24.8852 91.4057 24.8647C91.354 24.8411 91.2989 24.8258 91.2425 24.8194C91.1402 24.8226 91.2891 24.9623 91.3073 24.9759C91.497 25.1143 91.7606 25.2184 92.0009 25.1951C92.0844 25.19 92.164 25.1577 92.2275 25.1033C92.2923 25.0432 92.302 24.9669 92.335 24.8893C92.3998 24.7198 92.5429 24.5801 92.6549 24.4366C92.8156 24.2361 92.9535 24.0188 93.1212 23.8248C93.2578 23.6841 93.3807 23.5308 93.4884 23.3669C93.6212 23.1493 93.7015 22.9037 93.7229 22.6498C93.7384 22.5204 93.7462 22.3879 93.7663 22.2617C93.7818 22.1531 93.8129 22.0626 93.945 22.0677C94.0383 22.0677 94.1425 22.1324 94.2325 22.1589C94.3407 22.1929 94.4507 22.2203 94.5622 22.2411C94.7324 22.2776 94.9063 22.2939 95.0803 22.2896C95.2243 22.2838 95.3657 22.2499 95.4967 22.19C95.5731 22.1576 95.6987 22.0858 95.6974 21.9727C95.784 22.0642 95.876 22.1506 95.9727 22.2314C96.0375 22.2839 96.0992 22.3402 96.1573 22.4001C96.1758 22.4406 96.1839 22.4851 96.1806 22.5295C96.1866 22.617 96.2013 22.7036 96.2246 22.7882C96.2693 22.9356 96.4701 22.9265 96.5789 23.0074C96.6877 23.0882 96.7278 23.2725 96.7686 23.3876C96.819 23.5201 96.835 23.6631 96.8152 23.8035C96.7965 23.9412 96.7887 24.1197 96.7123 24.2393C96.6643 24.3156 96.5322 24.337 96.4992 24.2335C96.4497 24.3161 96.3782 24.3833 96.2926 24.4275C96.1404 24.4864 96.0983 24.3059 96.0795 24.2025C96.0705 24.143 96.0582 23.7647 96.0148 23.7614C95.95 23.7569 95.8762 23.8326 95.8095 23.8093C95.7642 23.7925 95.7162 23.6961 95.68 23.6618C95.5789 23.5642 95.4112 23.4808 95.2694 23.5441C95.1139 23.612 95.3069 23.7724 95.36 23.8513C95.5491 24.1326 95.5854 24.5252 95.8276 24.769C96.042 24.9811 96.3606 25.1227 96.6268 25.2559C96.7704 25.3263 96.9085 25.4074 97.04 25.4984C97.1695 25.5883 97.264 25.7125 97.3897 25.8088C97.584 25.9576 97.8592 25.7603 98.0373 25.9123C98.2154 26.0643 98.0373 26.2357 97.8709 26.2913C97.6222 26.3786 97.2705 26.3559 97.0626 26.1813C97.0018 26.1315 96.9506 26.0695 96.8917 26.0151C96.7965 25.9278 96.6443 25.9434 96.6663 26.1128C96.7097 26.409 96.6831 26.6437 96.7576 26.9341C96.8541 27.3176 97.1462 27.4476 97.47 27.6073C97.6235 27.6836 97.72 27.8388 97.8307 27.9675C97.9097 28.0561 98.0107 28.2514 97.9162 28.3633C97.8443 28.4486 97.6701 28.4008 97.5457 28.3342C97.407 28.2513 97.2791 28.1516 97.1649 28.0373C96.8794 27.789 96.6164 27.4443 96.2544 27.3046C95.9701 27.196 95.6547 27.2089 95.3795 27.0764C95.1334 26.9587 94.9721 26.753 94.8258 26.5306C94.6891 26.3268 94.3925 26.2402 94.1671 26.1846C93.8375 26.1037 93.4956 26.1328 93.1614 26.1716C93.1439 26.1716 92.9781 26.1826 92.9762 26.1872C92.9618 26.2363 92.964 26.2888 92.9826 26.3365C93.0139 26.4658 93.0705 26.5875 93.1491 26.6948C93.2138 26.7744 93.298 26.83 93.368 26.903C93.6044 27.1449 93.5111 27.4773 93.4535 27.7735C93.4224 27.941 93.3945 28.1214 93.447 28.2908C93.4941 28.4257 93.5513 28.557 93.618 28.6834C93.7598 28.9983 93.7656 29.354 93.7132 29.689C93.4541 31.3594 92.7864 33.4592 92.5863 33.4747C92.5364 33.4779 92.4568 33.4314 92.4276 33.1766C92.291 32.0578 91.9238 28.8198 90.1551 25.8599C89.9952 25.5929 89.8197 25.3309 89.6371 25.0807C89.4136 24.778 89.163 24.4986 88.9143 24.2148C88.7164 23.9916 88.5062 23.7796 88.2848 23.5797C88.2615 23.5584 88.0115 23.31 87.9772 23.3812C87.9429 23.4523 87.994 23.5907 87.9196 23.8921C87.825 24.2678 87.7901 24.3512 87.5886 24.6034C87.5187 24.692 87.4267 24.7677 87.3555 24.8621C87.3166 24.9184 87.2532 24.996 87.2545 25.0238C87.259 25.0716 87.3911 25.1246 87.4131 25.1324C87.7397 25.2368 88.0496 25.3873 88.3334 25.5793C88.3846 25.6148 88.7323 25.8573 88.641 25.9427C88.5763 26.0029 88.4046 25.9472 88.3334 25.9298C88.1391 25.8864 87.9494 25.8367 87.7564 25.7907C87.3828 25.6942 87.0017 25.6293 86.6172 25.5967C86.2934 25.5735 85.9644 25.5437 85.6536 25.6336C85.4282 25.6894 85.2138 25.7828 85.0195 25.9097C84.8563 26.0294 84.6802 26.2079 84.912 26.3385C85.1709 26.4756 85.4165 26.6362 85.6458 26.8183C85.899 27.0356 86.1043 27.3848 86.263 27.6765C86.6237 28.3342 86.7228 29.0902 86.9682 29.7931C87.2077 30.4839 87.5199 31.1475 87.8995 31.7726C88.1003 32.1031 88.3269 32.409 88.6313 32.6508C88.8742 32.8367 89.1269 33.0094 89.3884 33.1682C89.6824 33.3512 89.9997 33.5051 90.284 33.6972C90.4051 33.78 90.3572 33.842 90.2231 33.8155C90.102 33.7903 89.979 33.7722 89.8566 33.758C89.1183 33.6771 88.3923 33.8433 87.6547 33.8291C87.3095 33.8213 86.9022 33.7845 86.6101 33.5853C86.3582 33.4165 86.1062 33.0175 86.2215 32.7058C86.2811 32.5396 86.4475 32.6159 86.5641 32.667C86.7429 32.7459 86.9138 32.8423 87.0906 32.9257C87.27 33.0149 87.4588 33.0841 87.6534 33.132C87.7829 33.1598 88.0575 33.2303 88.1631 33.1184C88.2505 33.0279 88.1106 32.8597 88.0575 32.795C87.9319 32.6295 87.7855 32.4801 87.6469 32.3249C87.4837 32.1451 87.3348 31.9543 87.167 31.7804C86.4268 31.0044 85.603 30.3092 84.8835 29.517C84.4671 29.0591 84.0973 28.5237 83.9121 27.9293C83.8861 27.8387 83.8662 27.7465 83.8525 27.6532C83.8316 27.4836 83.8417 27.3116 83.8823 27.1456C83.9588 26.8552 84.1045 26.6204 84.2385 26.354C84.2521 26.3275 84.313 26.2324 84.2832 26.2033C84.2534 26.1742 84.1776 26.2124 84.1537 26.2247C83.8946 26.3572 83.6719 26.6127 83.5287 26.8552C83.2632 27.3021 83.2431 27.7987 83.3111 28.2986C83.4031 28.9673 83.6142 29.6179 83.837 30.251C84.1 31.012 84.4346 31.7465 84.8363 32.4445C85.1652 33.0207 85.5433 33.5675 85.9664 34.0787C86.1354 34.2792 86.3349 34.4512 86.5039 34.6485C86.7077 34.8764 86.9596 35.0562 87.2415 35.1749C87.838 35.4497 88.472 35.645 89.0937 35.8623C89.3145 35.9386 89.7996 36.1294 90.0159 36.2225C90.2892 36.3408 89.8307 36.2923 89.7439 36.2814C89.3165 36.2348 88.878 36.1792 88.4396 36.0919C87.7272 35.9509 87.2337 35.8701 86.9384 35.6858C86.7486 35.5616 86.5682 35.4235 86.399 35.2725C86.2824 35.1736 86.2416 35.3036 86.2306 35.3844C86.2064 35.5704 86.1692 35.7545 86.1192 35.9354C85.9152 36.606 85.5532 37.1738 85.1037 37.7047C85.118 37.6161 85.1212 37.4706 85.0215 37.4273C84.892 37.3697 84.7359 37.5017 84.6394 37.565C84.3417 37.7662 84.0317 37.9487 83.7114 38.1115C83.1933 38.3643 82.6033 38.5118 82.0276 38.4128C81.7789 38.3689 81.5658 38.2654 81.3372 38.1658C81.3094 38.1535 81.2362 38.1147 81.2116 38.1516C81.1617 38.2324 81.2116 38.3844 81.253 38.462C81.536 39.088 82.2808 39.3098 82.918 39.2898C82.5774 39.3874 82.2264 39.4404 81.8818 39.5116C81.4169 39.6079 76.2178 40.7345 76.2178 46.1175C76.2166 46.4546 76.2827 46.7885 76.4121 47.0998C76.5286 47.3585 76.7042 47.57 76.8518 47.3294C76.9451 47.1774 76.9813 46.9666 77.0306 46.7804C77.079 46.6186 77.1388 46.4604 77.2093 46.307C77.6898 45.2872 78.5816 44.4879 79.4759 43.8308C79.5284 43.792 79.507 43.7907 79.4604 43.7998C79.1119 43.8584 78.7684 43.9432 78.4326 44.0533C78.2714 44.1102 78.1088 44.171 77.954 44.2421C77.8686 44.2809 77.572 44.407 77.5266 44.3152C77.4722 44.202 77.6419 44.0326 77.7099 43.9602C78.3459 43.2831 81.1423 42.9015 82.0774 42.6577C84.3143 42.0815 86.0538 41.0158 86.7364 39.9571C86.9462 39.6338 86.2947 39.8718 86.1717 39.7489C86.0208 39.6002 86.7234 39.2587 86.8063 39.2199C87.1398 39.0691 87.4891 38.9561 87.8477 38.883C88.6559 38.7045 89.5185 38.6191 90.3436 38.7213C90.4259 38.7336 90.51 38.7446 90.5923 38.7633C90.6344 38.7724 90.67 38.7136 90.6966 38.689C90.9759 38.4288 91.2084 38.1226 91.3837 37.7836C91.4646 37.9809 91.5592 38.1716 91.6589 38.3611C91.7586 38.5506 91.8746 38.7672 92.041 38.9166C92.1653 39.0298 92.2599 38.9878 92.3162 38.8403C92.3973 38.5941 92.456 38.3411 92.4917 38.0843C92.5138 37.9498 92.5371 37.8159 92.5565 37.6808C92.5656 37.6284 92.55 37.4823 92.6174 37.481C92.8997 37.4777 93.197 37.6284 93.4548 37.7273C93.7844 37.8502 93.901 37.9214 94.2442 37.9944C94.467 38.041 94.6891 38.1076 94.8225 37.8612C94.9125 37.6937 94.7759 37.673 94.6639 37.5799C94.4929 37.4402 94.4806 37.1841 94.5227 36.9255C94.5706 36.6196 94.658 36.3273 94.8737 36.1132C95.1198 35.8714 95.4675 35.7362 95.768 35.5719C95.8205 35.5422 96.0569 35.4245 96.0057 35.334C95.9714 35.2738 95.6618 35.334 95.5997 35.334C95.2341 35.3318 94.8697 35.2934 94.5117 35.2195C93.7488 35.0798 93.1815 34.8114 92.4147 34.6918C92.0857 34.6407 91.7748 34.662 91.4433 34.6918C91.1402 34.7215 90.7548 34.7836 90.4485 34.7836C90.1564 34.7836 89.7789 34.7603 89.5639 34.6543C89.4162 34.5844 89.1254 34.3581 89.323 34.2663C89.4285 34.2165 89.582 34.2165 89.696 34.2087C89.8566 34.1977 90.0146 34.1964 90.1752 34.1977C90.5418 34.1977 90.907 34.2055 91.2723 34.2443C91.8713 34.3084 92.4612 34.4401 93.0306 34.6368C93.2151 33.8343 93.6847 32.3288 93.8621 31.5237C93.9845 30.9649 94.1464 30.3596 94.2222 29.8364C94.9559 30.0725 95.623 30.1656 96.4513 30.2988C97.2581 30.4351 98.0735 30.515 98.8915 30.5381C99.3966 30.5484 99.9277 30.5594 100.424 30.4695C100.617 30.4239 100.8 30.3456 100.966 30.238C101.16 30.1236 101.443 29.9464 101.463 29.6967C101.479 29.4743 101.377 29.2441 101.287 29.0501L101.286 29.0449ZM93.3311 21.7813C93.2533 21.811 93.1523 21.7502 93.0901 21.7114C92.6316 21.4307 92.4108 20.8888 91.9335 20.6263C91.8092 20.5616 91.5903 20.4969 91.4083 20.3831C91.3481 20.3469 91.1861 20.257 91.1719 20.1891C91.1518 20.0598 91.2671 20.0029 91.5605 20.032C91.8993 20.0523 92.2212 20.1863 92.4743 20.4122C92.6686 20.5752 92.8104 20.9011 92.9276 21.0938C93.0088 21.2331 93.1047 21.3632 93.2138 21.4818C93.2768 21.5376 93.3304 21.6031 93.3725 21.6758C93.3769 21.6858 93.3792 21.6966 93.3793 21.7075C93.3794 21.7184 93.3772 21.7292 93.373 21.7393C93.3687 21.7493 93.3625 21.7584 93.3546 21.7659C93.3467 21.7735 93.3374 21.7794 93.3272 21.7832L93.3311 21.7813ZM90.5049 29.5467C90.4472 29.6819 90.2542 29.4057 90.2141 29.3624C89.7692 28.8858 89.3184 28.4182 88.8696 27.9481C88.7699 27.8427 88.6689 27.7386 88.5711 27.6299C88.4992 27.551 88.4169 27.4314 88.4811 27.3227C88.5452 27.2141 88.711 27.1565 88.8308 27.1197C88.972 27.0757 89.3683 26.9548 89.4784 27.1397C89.5308 27.2309 89.4136 27.3784 89.3663 27.4482C89.3016 27.5465 89.391 27.6551 89.4551 27.7328C89.6516 27.9583 89.8337 28.1958 90.0004 28.4441C90.1603 28.696 90.3021 28.959 90.4246 29.2311C90.4634 29.3178 90.5444 29.4529 90.5075 29.5474" fill="#12100B"/>
</g>
</svg>
