<svg width="180" height="100" viewBox="0 0 180 100" fill="none" xmlns="http://www.w3.org/2000/svg">
<mask id="mask0_1666_122942" style="mask-type:alpha" maskUnits="userSpaceOnUse" x="0" y="0" width="180" height="100">
<path d="M180 0H0V100H180V0Z" fill="white"/>
</mask>
<g mask="url(#mask0_1666_122942)">
<path d="M55.2846 47.8918C54.5668 46.078 52.6249 45.2158 50.4044 46.1451C50.8333 45.716 51.1184 45.1643 51.2204 44.5662C51.3224 43.9682 51.2362 43.3532 50.9738 42.8062C50.2478 41.3828 48.5336 40.8724 46.73 41.7895C45.2761 42.5317 41.5874 44.7217 40.7171 45.3256C40.6215 45.3887 40.6093 45.3846 40.5748 45.5493C40.5646 45.5839 40.5524 45.6794 40.5361 45.7872C40.5199 45.895 40.5219 45.9702 40.6663 45.895C41.9351 45.2036 42.5289 46.7714 42.8115 47.2594C43.0434 47.6437 47.1753 54.5798 47.3786 54.9499C47.6308 55.3952 47.6694 56.2696 47.1753 56.7942C47.0492 56.9223 47.0858 56.9223 47.0818 57.0768C47.0818 57.1826 47.0655 57.0768 47.0818 57.2131C47.098 57.3493 47.1489 57.3839 47.2851 57.3005C48.3649 56.5746 50.9026 55.1715 51.9823 54.6001C56.0329 52.4365 55.9455 49.4982 55.2928 47.8898L55.2846 47.8918ZM45.939 43.9185C46.9862 43.4101 48.0497 43.5464 48.5418 44.4594C48.9891 45.289 48.9078 46.5518 47.6959 47.2919C47.4892 47.4282 47.2674 47.5401 47.035 47.6254C46.9263 47.674 46.8034 47.68 46.6904 47.6424C46.5775 47.6048 46.4828 47.5261 46.425 47.4221L44.8552 44.5448C45.2052 44.3129 45.5677 44.1004 45.941 43.9083L45.939 43.9185ZM51.4313 53.2194C50.2946 53.8396 49.8716 53.6647 49.53 53.0954C49.3734 52.8046 48.3893 51.0192 47.3685 49.1546C47.9153 48.7847 48.4822 48.4453 49.0664 48.1379C50.3312 47.5278 51.8786 47.5278 52.6696 49.2542C53.3427 50.702 52.9706 52.3735 51.4313 53.2153" fill="#FBF1D0"/>
<path d="M72.4388 46.8103C71.4221 46.9059 71.3387 46.544 70.5985 45.7245C70.3342 45.4174 62.8166 36.0474 62.5746 35.7729C62.4343 35.6082 62.3611 35.5594 62.0825 35.6468C61.8039 35.7342 61.1573 35.9315 60.8279 36.0677C60.6571 36.1368 60.6123 36.2202 60.6103 36.4622C60.6103 36.8363 60.2138 46.4077 60.0653 48.5306C59.9962 49.4904 59.8884 50.2102 59.2377 50.7938C59.1894 50.8229 59.1496 50.8641 59.1221 50.9133C59.0947 50.9625 59.0805 51.0181 59.0812 51.0745C59.0507 51.231 59.069 51.1375 59.0425 51.288C59.0324 51.3917 59.073 51.4364 59.1767 51.3876C59.9901 51.0074 62.4079 50.1411 63.0667 49.9378C63.1724 49.9012 63.1867 49.8646 63.2273 49.7344C63.2578 49.6368 63.2273 49.7344 63.2965 49.5311C63.3249 49.4233 63.2741 49.3887 63.1623 49.4172C61.8121 49.7324 61.6169 48.7462 61.6209 47.6542C61.6209 47.0971 61.6209 45.9319 61.6514 44.9965C62.6458 44.659 64.2542 44.1038 65.4214 43.7277C66.2145 44.785 66.9079 45.7469 67.0258 45.9075C67.3593 46.3406 67.6623 46.9242 67.6094 47.3614C67.5769 47.7295 67.097 48.0243 66.853 48.1748C66.7208 48.246 66.7452 48.3517 66.6984 48.5571C66.6638 48.7055 66.6984 48.5713 66.6781 48.6709C66.6577 48.7706 66.7228 48.7828 66.8286 48.7462C67.8453 48.4452 70.6555 47.6949 72.2639 47.3716C72.4246 47.339 72.4408 47.3289 72.4673 47.2414C72.5445 47.0605 72.5323 47.0869 72.5771 46.971C72.6116 46.8917 72.6116 46.8022 72.4408 46.8246L72.4388 46.8103ZM61.6799 43.5914C61.747 41.2896 61.8222 38.9532 61.8222 38.9532L64.5714 42.591C63.7276 42.8716 62.4485 43.3149 61.6799 43.5894" fill="#FBF1D0"/>
<path d="M80.2288 45.9787C80.3325 45.9787 80.3935 45.9462 80.4748 45.8079C80.5187 45.7483 80.5575 45.685 80.5907 45.6188C80.6334 45.5395 80.6233 45.45 80.4728 45.4561C79.0657 45.5131 79.1226 44.5309 79.0494 43.8538C78.9945 43.4268 77.8009 34.8843 77.7541 34.4776C77.6768 33.8086 77.7033 33.2352 78.3357 32.9526C78.4943 32.8854 78.6305 32.8854 78.6895 32.7492C78.7246 32.659 78.7538 32.5666 78.7769 32.4727C78.8196 32.3446 78.7769 32.31 78.6366 32.3263C77.5508 32.4218 74.9236 32.7919 73.6181 33.0441C73.5663 33.048 73.5167 33.0663 73.4747 33.0968C73.4327 33.1273 73.4 33.1689 73.3802 33.2169C73.2948 33.3633 73.3415 33.3145 73.2724 33.4487C73.2338 33.528 73.2419 33.6216 73.3964 33.6114C74.7304 33.5219 74.7528 34.5285 74.8443 35.1751C74.9134 35.594 76.3002 44.1771 76.3449 44.5777C76.4527 45.4216 76.2656 45.814 75.5316 46.176C75.3872 46.2512 75.3689 46.2736 75.3282 46.3997C75.3099 46.4505 75.2875 46.5095 75.2672 46.5766C75.2469 46.6437 75.2672 46.725 75.4218 46.6925C76.3063 46.4891 79.2365 46.0662 80.239 45.9808" fill="#FBF1D0"/>
<path d="M84.9896 45.6231C84.8432 45.6353 84.8066 45.5885 84.8594 45.4624C84.9123 45.3364 84.892 45.3669 84.9448 45.2693C84.9977 45.1717 85.016 45.1229 85.1807 45.0659C85.9412 44.8199 86.1568 44.3034 86.1344 43.6039C86.1202 43.2094 85.8355 34.5531 85.8152 34.1301C85.7806 33.4916 85.8152 32.4607 84.4975 32.4281C84.3551 32.4281 84.3531 32.3366 84.3978 32.2593C84.4772 32.1353 84.4466 32.1821 84.5422 32.056C84.5673 32.0105 84.6036 31.9721 84.6478 31.9447C84.692 31.9173 84.7424 31.9017 84.7944 31.8994C86.0917 31.7774 88.849 31.8079 89.9898 31.7754C90.1403 31.7754 90.183 31.81 90.1138 31.9259C90.0936 32.001 90.0643 32.0734 90.0264 32.1414C89.9593 32.2654 89.823 32.2573 89.6502 32.3082C88.9222 32.5217 88.6721 33.1988 88.6986 33.9573C88.7128 34.3518 88.788 42.4225 88.7982 42.8454C88.8165 43.5266 88.8958 44.098 90.2887 44.1956C90.9764 44.2578 91.6694 44.2263 92.3486 44.1021C93.3917 43.8825 94.2214 42.9471 94.4085 42.2537C94.4408 42.0956 94.5244 41.9526 94.6464 41.847C94.7019 41.8116 94.7631 41.7862 94.8273 41.7718C95.0002 41.7169 95.0185 41.727 95.0002 41.8816C94.9656 42.3045 94.7806 44.8422 94.7582 45.1147C94.7318 45.4482 94.6321 45.6089 94.3393 45.5906C91.403 45.4563 87.7306 45.4177 84.9855 45.6373" fill="#FBF1D0"/>
<path d="M109.172 33.5444C106.997 33.0543 102.334 32.4179 100.079 32.2511C100.027 32.2432 99.9747 32.2496 99.9266 32.2697C99.8785 32.2898 99.8369 32.3228 99.8064 32.365C99.6946 32.4789 99.7536 32.3894 99.6499 32.4972C99.599 32.5623 99.5848 32.6558 99.7312 32.6741C100.829 32.853 100.518 33.8698 100.471 34.5672C100.441 34.9902 99.5014 43.6038 99.4547 44.0532C99.3632 44.7527 99.0358 45.2367 98.2529 45.3973C98.1984 45.3996 98.1455 45.4164 98.0997 45.4461C98.0539 45.4758 98.0169 45.5172 97.9926 45.5661C97.9275 45.6474 98.0048 45.5661 97.9458 45.684C97.8869 45.802 97.9072 45.8508 98.0536 45.8569C101.181 46.05 104.992 46.7068 107.847 47.2803C108.127 47.3392 108.276 47.2132 108.357 46.8858C108.414 46.6235 109.04 43.675 109.089 43.4594C109.138 43.2439 109.089 43.2419 108.937 43.2968C108.88 43.3191 108.776 43.3456 108.672 43.3883C108.569 43.431 108.53 43.5184 108.447 43.6994C108.144 44.3989 107.546 45.3607 106.387 45.4339C105.655 45.4868 104.054 45.2163 103.593 45.1085C102.23 44.7893 102.238 44.2728 102.291 43.5916C102.303 43.3679 102.476 41.4911 102.698 39.4556C103.308 39.5288 104.241 39.6223 104.632 39.6854C106.055 39.9192 106.708 39.7342 106.726 41.3813C106.726 41.5277 106.773 41.5439 106.883 41.485C106.961 41.4454 107.036 41.4013 107.109 41.3528C107.22 41.2776 107.231 41.2186 107.247 41.0559C107.289 40.7712 107.536 38.9269 107.611 38.3982C107.641 38.1725 107.519 38.1664 107.35 38.266C106.84 38.567 106.714 38.6951 105.248 38.504C104.638 38.4287 103.471 38.2843 102.846 38.1786C103.08 36.1269 103.292 34.2317 103.322 34.0141C104.032 34.1199 104.979 34.2175 106.143 34.4208C107.22 34.6242 108.833 34.6689 109.097 36.0598C109.124 36.2062 109.189 36.1899 109.244 36.1431C109.299 36.0964 109.412 36.0496 109.469 35.9927C109.526 35.9357 109.52 35.9581 109.516 35.7791C109.512 35.6002 109.528 34.3456 109.516 33.9308C109.517 33.8327 109.483 33.7375 109.419 33.6628C109.356 33.588 109.267 33.5388 109.17 33.5241" fill="#FBF1D0"/>
<path d="M126.523 38.6135C125.463 38.1438 123.472 37.4585 122.197 37.0152C122.155 36.9883 122.104 36.9767 122.054 36.9822C122.004 36.9878 121.957 37.0101 121.921 37.0457C121.844 37.0909 121.775 37.1486 121.718 37.2165C121.653 37.2816 121.583 37.3528 121.73 37.4199C123.111 37.9872 122.448 39.2072 121.73 39.9434C121.089 40.5981 118.625 43.0118 118.625 43.0118C118.625 43.0118 117.677 38.8168 117.517 37.9425C117.401 37.3223 117.539 36.3889 118.891 36.5882C118.944 36.6021 119 36.5999 119.051 36.5817C119.103 36.5636 119.147 36.5304 119.18 36.4865C119.214 36.454 119.223 36.4275 119.345 36.3055C119.414 36.2303 119.406 36.1673 119.263 36.1022C118.112 35.724 115.306 34.9818 113.907 34.689C113.857 34.6706 113.803 34.6667 113.751 34.6779C113.698 34.689 113.651 34.7147 113.612 34.752C113.47 34.8659 113.435 34.876 113.352 34.9553C113.269 35.0346 113.265 35.0895 113.409 35.1587C114.538 35.6162 114.725 37.1779 114.893 37.8489C115.05 38.4325 116.075 42.7759 116.148 43.2538C116.216 43.6447 116.203 44.0455 116.109 44.4311C115.88 45.4235 115.499 46.6293 115.379 46.9546C115.123 47.6765 114.877 48.0669 114.147 48.1096C114.094 48.1045 114.04 48.1132 113.991 48.1349C113.941 48.1567 113.899 48.1907 113.867 48.2337C113.738 48.363 113.617 48.4987 113.503 48.6404C113.407 48.738 113.425 48.7949 113.584 48.8315C114.562 49.0572 117.218 49.9255 118.261 50.3037C118.311 50.3246 118.367 50.3303 118.421 50.3202C118.474 50.3101 118.524 50.2846 118.564 50.2468C118.69 50.1573 118.928 49.9723 119.048 49.8767C119.113 49.8279 119.139 49.7384 118.995 49.6733C117.653 49.1406 117.862 48.2377 118.035 47.5281C118.1 47.278 118.657 45.5658 118.741 45.2628C118.897 44.7219 119.06 44.5715 119.408 44.2461C120.923 42.8491 123.806 40.1243 124.115 39.8234C124.845 39.1137 125.248 38.9917 126.1 39.0527C126.272 39.0629 126.272 39.0751 126.388 38.9856C126.504 38.8961 126.47 38.9104 126.573 38.8229C126.677 38.7355 126.661 38.6908 126.512 38.6196" fill="#FBF1D0"/>
<path d="M136.497 48.1525C136.748 47.7458 138.02 45.8141 138.216 45.5091C138.38 45.2569 138.323 45.1634 138.012 45.1125C137.701 45.0617 137.555 44.9865 137.164 44.6937C136.693 44.35 136.062 43.4472 134.751 42.6358C132.705 41.3487 129.992 41.1718 128.557 43.075C128.106 43.6892 127.866 44.4326 127.872 45.1945C127.878 45.9564 128.13 46.6959 128.591 47.3026C129.167 48.0407 130.714 49.7142 131.001 50.0538C131.568 50.7391 131.788 51.3064 131.727 51.827C131.699 52.1487 131.582 52.4563 131.389 52.7156C130.779 53.5289 129.226 53.8075 127.782 52.8172C126.528 51.9632 125.629 50.4117 126.359 48.4392C126.424 48.2603 126.359 48.1932 126.186 48.2257C126.1 48.2437 126.013 48.2566 125.926 48.2644C125.783 48.2928 125.722 48.3233 125.6 48.5633C125.436 48.8947 124.069 51.5545 123.892 51.9246C123.815 52.1096 123.88 52.1625 124.026 52.1645C124.344 52.1498 124.658 52.2283 124.931 52.3902C125.836 52.8111 126.109 53.4415 127.276 54.2203C129.486 55.6823 132.359 55.6112 133.811 53.9804C134.781 52.8762 135.32 51.0583 134.218 49.5536C133.539 48.6243 131.969 46.9365 131.467 46.3001C131.06 45.7815 130.71 45.0454 131.111 44.3154C131.568 43.4736 132.872 43.1849 134.131 43.9535C135.481 44.7953 136.632 46.4302 135.922 47.9634C135.796 48.2339 135.788 48.3152 135.983 48.3071C136.178 48.2989 136.079 48.3071 136.199 48.3071C136.319 48.3071 136.38 48.3396 136.487 48.1627" fill="#FBF1D0"/>
<path d="M61.2988 38.2903C61.1971 40.1312 61.0988 41.9694 61.0039 43.805L61.4004 43.6708C61.4797 42.044 61.5631 40.4173 61.6383 38.7905C61.5224 38.6238 61.4126 38.457 61.2988 38.2903Z" fill="#B8A175"/>
<path d="M64.6582 39.7259C66.7852 42.3572 69.7113 46.0296 69.872 46.2065C70.0991 46.4774 70.3634 46.7149 70.6569 46.9121C70.7335 46.9317 70.8118 46.9446 70.8907 46.9507C70.9903 46.9507 71.2445 47.0381 71.3645 47.03C70.9968 46.8225 70.6724 46.5464 70.4088 46.2166C70.1526 45.9177 62.698 36.5558 62.454 36.2853C62.3238 36.1206 62.2506 36.0698 61.968 36.1511L61.7646 36.2142C61.8616 36.2457 61.9462 36.3069 62.0066 36.389C62.0941 36.5029 63.2613 38.0036 64.6582 39.7259Z" fill="#B8A175"/>
<path d="M60.9736 48.5347C60.9736 49.2687 61.2197 49.59 61.5837 49.7852C61.8001 49.8494 62.0311 49.8444 62.2445 49.771C61.9652 49.6694 61.7259 49.4808 61.5619 49.233C61.3979 48.9851 61.3178 48.6912 61.3336 48.3944C61.3336 47.9531 61.3661 45.8444 61.3925 45.1409C61.2624 45.1815 61.1322 45.2222 61.0082 45.271C60.9919 46.0356 60.9777 48.1158 60.9736 48.5347Z" fill="#B8A175"/>
<path d="M88.6445 32.5435C88.4476 32.6622 88.2694 32.8095 88.1158 32.9806C87.8047 33.3202 87.7864 33.9974 87.8047 34.4041C87.8169 34.7762 87.9349 42.5215 87.945 43.0075C87.945 43.3105 88.0142 43.6887 88.1179 43.8006C88.2599 43.9301 88.4393 44.0112 88.6303 44.0324C88.427 43.8006 88.3375 43.3451 88.3334 43.0014C88.3212 42.5947 88.248 35.3354 88.248 34.3959C88.25 32.9196 88.6445 32.5435 88.6445 32.5435Z" fill="#B8A175"/>
<path d="M77.4927 33.1782C77.3094 33.3166 77.1494 33.4834 77.0189 33.6723C76.7546 34.0445 76.8156 34.7175 76.8847 35.1303C76.9457 35.4943 78.1515 44.0327 78.2186 44.5167C78.2613 44.8074 78.3651 45.1755 78.4891 45.2711C78.6465 45.3826 78.8351 45.4417 79.028 45.4398C78.786 45.2365 78.6477 44.7973 78.605 44.4577C78.542 44.051 77.448 35.9925 77.3361 35.0653C77.1491 33.589 77.4927 33.1782 77.4927 33.1782Z" fill="#B8A175"/>
<path d="M107.083 38.7577L106.922 38.8289C106.853 39.3515 106.772 39.7663 106.737 40.0185C106.737 40.0917 106.806 40.1344 106.898 40.3337C106.956 40.4711 106.988 40.6178 106.994 40.7668C106.994 40.7668 107.185 39.3434 107.258 38.8533C107.286 38.65 107.233 38.6784 107.083 38.7577Z" fill="#B8A175"/>
<path d="M101.91 43.8478C101.922 43.6566 102.182 41.1657 102.385 39.4433L101.962 39.4006C101.759 41.3914 101.521 43.6383 101.517 43.803C101.49 44.0013 101.529 44.2029 101.629 44.3765C101.732 44.5314 101.88 44.6518 102.052 44.7221C101.915 44.4525 101.865 44.1469 101.91 43.8478V43.8478Z" fill="#B8A175"/>
<path d="M108.796 33.8066C108.7 33.7822 108.605 33.7537 108.505 33.7273C108.566 33.7601 108.616 33.8085 108.652 33.8675C108.688 33.9265 108.707 33.9939 108.708 34.0628C108.708 34.2031 108.739 34.2662 108.735 34.7643C108.735 34.8538 108.822 34.9352 108.903 35.0206C109.011 35.1065 109.086 35.2261 109.117 35.3601C109.117 35.4903 109.117 34.5 109.105 34.1604C109.106 34.0736 109.076 33.9893 109.018 33.9239C108.961 33.8585 108.882 33.8167 108.796 33.8066V33.8066Z" fill="#B8A175"/>
<path d="M107.91 45.3564C107.91 45.3564 107.685 46.3833 107.677 46.4199C107.662 46.5128 107.619 46.5989 107.553 46.6657C107.487 46.7326 107.401 46.7768 107.309 46.792C107.366 46.8083 107.559 46.8266 107.624 46.8469C107.896 46.9222 108 46.7331 108.091 46.4199C108.122 46.2837 108.46 44.6895 108.46 44.6895C108.374 44.8303 108.28 44.9661 108.179 45.0961C108.099 45.1924 108.009 45.2797 107.91 45.3564V45.3564Z" fill="#B8A175"/>
<path d="M94.1228 43.5771C94.1228 43.5771 94.0191 44.7707 94.0151 44.8093C94.0153 44.9025 93.9855 44.9933 93.9303 45.0684C93.875 45.1434 93.7971 45.1987 93.708 45.2262C93.7649 45.2262 93.9683 45.2262 94.0232 45.2262C94.3079 45.2608 94.3872 45.0594 94.4299 44.7422C94.4461 44.608 94.556 42.967 94.556 42.967C94.4075 43.1745 94.2611 43.3758 94.1228 43.5771Z" fill="#B8A175"/>
<path d="M102.488 38.1397C102.648 36.7556 102.811 35.3715 102.976 33.9874L102.553 33.9285C102.407 35.3153 102.246 36.7021 102.094 38.0868C102.224 38.1072 102.354 38.1194 102.488 38.1397Z" fill="#B8A175"/>
<path d="M117.066 36.5926C116.878 36.682 116.726 36.8324 116.635 37.0193C116.544 37.2062 116.519 37.4185 116.564 37.6215C116.676 38.1685 117.888 43.6019 117.888 43.6019L118.272 43.2419C118.272 43.2419 117.125 38.1584 117.017 37.6622C116.959 37.4168 116.991 37.1587 117.107 36.9348C117.223 36.7109 117.416 36.5361 117.65 36.4421C117.45 36.4676 117.254 36.5182 117.066 36.5926V36.5926Z" fill="#B8A175"/>
<path d="M124.405 38.693C123.922 38.8081 123.484 39.0635 123.146 39.427C122.943 39.6304 121.987 40.702 120.755 41.8265C120.183 42.3593 119.354 43.1909 118.878 43.6383C118.518 43.9636 118.148 44.2077 118 44.7343C117.973 44.834 117.869 45.08 117.796 45.3769C117.636 45.9503 117.135 47.5547 117.095 47.7194C117.058 47.8996 117.06 48.0856 117.1 48.265C117.14 48.4445 117.218 48.6134 117.329 48.7605C117.427 48.8947 117.552 49.0069 117.697 49.0899C117.52 48.669 117.367 48.427 117.493 47.9756C117.558 47.7275 118.357 45.1837 118.445 44.8889C118.601 44.3541 119.02 44.0978 119.38 43.7725C120.885 42.402 123.364 39.8927 123.675 39.5918C124.285 39.0122 124.742 38.7174 125.655 38.7784C125.816 38.7885 125.076 38.5506 124.405 38.693Z" fill="#B8A175"/>
<path d="M118.601 49.7038C118.544 49.6774 118.428 49.5737 118.371 49.6306C118.27 49.7207 118.159 49.7997 118.041 49.8665C118.001 49.8977 117.956 49.9211 117.907 49.9356C117.984 49.9661 118.064 49.9844 118.123 50.0129C118.173 50.0344 118.229 50.0412 118.283 50.0326C118.338 50.024 118.388 50.0002 118.43 49.9641C118.564 49.8665 118.564 49.8787 118.633 49.8217C118.702 49.7648 118.727 49.7628 118.601 49.7038Z" fill="#B8A175"/>
<path d="M125.74 51.406C125.935 51.761 126.226 52.0536 126.58 52.2498C126.001 51.5564 125.586 50.2977 125.789 49.403C125.828 49.22 125.559 49.4986 125.47 49.8585C125.38 50.2184 125.439 50.7471 125.74 51.406Z" fill="#B8A175"/>
<path d="M130.547 43.6015C130.373 43.8993 130.309 44.2493 130.366 44.5897C130.424 44.917 130.549 45.2287 130.735 45.5048C130.588 45.0188 130.531 44.2847 130.877 43.8658C131.296 43.3513 131.652 43.2253 132.469 43.207C132.203 43.1112 131.922 43.0677 131.639 43.0789C131.429 43.0735 131.22 43.1181 131.031 43.2089C130.841 43.2998 130.675 43.4343 130.547 43.6015V43.6015Z" fill="#B8A175"/>
<path d="M133.976 49.834C134.058 50.1058 134.113 50.3851 134.14 50.6677C134.283 51.8878 133.787 52.874 133.055 53.6345C132.272 54.4478 130.936 54.6309 130.108 54.6309C129.686 54.6386 129.265 54.5942 128.854 54.4987C130.588 55.1921 132.434 54.9054 133.473 53.8175C134.287 52.9594 134.848 51.4262 134.065 49.9662C134.038 49.9205 134.008 49.8764 133.976 49.834V49.834Z" fill="#B8A175"/>
<path d="M137.704 45.3543L137.54 45.3279C137.527 45.3604 137.505 45.395 137.479 45.4438C137.275 45.7549 137.054 46.1148 136.808 46.5235C136.704 46.6943 136.677 47.0563 136.604 47.3532C136.582 47.4467 136.708 47.2922 136.82 47.1234C137.066 46.7167 137.533 46.0172 137.729 45.7C137.891 45.456 138.007 45.4011 137.704 45.3543Z" fill="#B8A175"/>
<path d="M44.2637 45.0024C44.2637 45.0024 45.6505 47.4425 45.7257 47.5727C45.7521 47.6549 45.7957 47.7306 45.8535 47.7948C45.9113 47.8589 45.9821 47.91 46.0612 47.9448C46.1368 47.9614 46.215 47.9628 46.2911 47.9488C46.3672 47.9348 46.4398 47.9058 46.5045 47.8634C46.3988 47.8268 46.3012 47.7719 46.171 47.5483C46.0917 47.4161 44.6033 44.7502 44.6033 44.7502C44.4894 44.8295 44.3755 44.917 44.2637 45.0024Z" fill="#B8A175"/>
<path d="M51.6868 46.3244C51.8169 46.322 51.9469 46.3316 52.0752 46.3528C52.6312 46.4125 53.1601 46.6239 53.6041 46.9639C54.0481 47.3039 54.39 47.7593 54.5926 48.2805C54.7964 48.7803 54.8987 49.3157 54.8934 49.8555C54.8882 50.3952 54.7756 50.9285 54.5621 51.4242C54.4494 51.7926 54.2931 52.1463 54.0965 52.4775C55.4792 50.8854 55.4284 49.1854 54.9912 48.1179C54.6972 47.4009 54.1476 46.8186 53.4489 46.4835C52.7503 46.1484 51.9521 46.0845 51.209 46.304C51.3685 46.2999 51.5282 46.3066 51.6868 46.3244V46.3244Z" fill="#B8A175"/>
<path d="M47.8457 41.7795C48.1039 41.747 47.9677 41.7694 48.2178 41.7978C49.0942 41.8975 49.7144 42.4404 50.1191 43.2395C50.4871 43.9939 50.6112 44.972 50.1191 45.7773C50.1089 45.8118 49.991 45.944 49.9828 45.9806C50.1559 45.8537 50.2983 45.6898 50.3997 45.5007C50.8064 44.8907 50.8979 43.6361 50.4851 42.9569C50.2222 42.5106 49.8267 42.1573 49.3536 41.9463C48.8805 41.7353 48.3535 41.677 47.8457 41.7795Z" fill="#B8A175"/>
<path d="M49.2168 53.3741C49.0622 53.1159 47.0003 49.3723 47.0003 49.3723C46.8946 49.4516 46.7848 49.5269 46.6709 49.6041C46.6709 49.6041 48.745 53.37 48.8873 53.6202C49.0297 53.8703 49.1903 53.9984 49.3144 54.0268C49.4709 54.0512 49.5889 53.9374 49.7556 53.856C49.6375 53.8171 49.5287 53.7541 49.436 53.6712C49.3433 53.5883 49.2686 53.4872 49.2168 53.3741V53.3741Z" fill="#B8A175"/>
<path d="M45.7411 64.745C41.1781 58.2069 36.588 51.6714 31.9707 45.1386C32.1008 45.037 32.2289 44.9353 32.355 44.8458C37.947 40.5919 58.6555 26.7076 90.0029 27.0411C121.332 26.734 142.059 40.5919 147.612 44.8153C147.738 44.9129 147.862 45.0187 147.992 45.1061C147.915 45.2484 147.832 45.3867 147.755 45.527C143.229 51.9269 138.734 58.3329 134.267 64.745C134.124 64.6393 133.982 64.5417 133.86 64.4258C125.433 57.8578 109.445 50.7814 90.0131 50.7875V49.7972C109.386 49.7972 125.395 56.7516 134.051 63.3257C138.239 57.3284 142.441 51.3379 146.658 45.3542C141.888 41.7957 120.946 27.7202 90.0151 28.0395C59.0276 27.708 38.0202 41.8668 33.3453 45.3501C37.5667 51.3298 41.7725 57.3203 45.9628 63.3216C54.6211 56.7455 70.6243 49.7972 90.0029 49.7972V50.7916C70.5633 50.7916 54.5805 57.8618 46.162 64.4298C46.0217 64.5335 45.8774 64.6413 45.7411 64.745Z" fill="#FBF1D0"/>
<path d="M90.0031 25.0016C66.8056 24.8735 44.5842 32.2651 29 44.8114C34.4781 52.4544 39.927 60.1096 45.3468 67.777C53.2772 61.1927 69.2295 52.7499 90.001 52.7499C110.771 52.7499 126.723 61.1948 134.653 67.777C140.076 60.1177 145.525 52.4625 151 44.8114C135.424 32.2651 113.213 24.8756 90.0031 25.0016ZM134.269 64.7451C134.127 64.6394 133.984 64.5418 133.862 64.4259C125.436 57.8579 109.447 50.7815 90.0153 50.7876C90.0153 50.6229 90.0153 50.6229 90.0153 50.7876C70.5756 50.7876 54.5928 57.8579 46.1744 64.4259C46.0361 64.5337 45.8938 64.6394 45.7555 64.7451C41.1925 58.207 36.6023 51.6715 31.9851 45.1387C32.1152 45.0371 32.2433 44.9354 32.3694 44.8459C37.9471 40.592 58.6556 26.7077 90.0031 27.0412C121.332 26.7341 142.059 40.592 147.612 44.8154C147.738 44.913 147.862 45.0188 147.993 45.1062C147.915 45.2486 147.832 45.3868 147.755 45.5271C143.232 51.927 138.737 58.333 134.269 64.7451Z" fill="#B89669"/>
<path d="M52.6643 49.2729C53.3374 50.7207 52.9653 52.3922 51.4259 53.234C50.2893 53.8542 49.8663 53.6793 49.5247 53.11C49.3681 52.8192 48.3839 51.0338 47.3631 49.1692C47.91 48.7993 48.4768 48.4599 49.0611 48.1525C50.3279 47.5607 51.8733 47.5404 52.6643 49.2729ZM61.6745 43.5935C62.4431 43.319 63.7221 42.8757 64.566 42.5951L61.8188 38.9552C61.8188 38.9552 61.7375 41.2916 61.6765 43.5915L61.6745 43.5935ZM146.656 45.3504C142.434 51.33 138.232 57.3205 134.048 63.3219C125.396 56.7457 109.379 49.7975 90.0022 49.7975C70.6256 49.7975 54.6205 56.7518 45.9641 63.3259C41.7766 57.3287 37.5708 51.3382 33.3467 45.3544C38.0236 41.8691 59.029 27.7124 90.0165 28.0438C120.945 27.7205 141.887 41.7959 146.658 45.3483L146.656 45.3504ZM55.2834 47.8922C54.5656 46.0783 52.6236 45.2162 50.4031 46.1454C50.832 45.7163 51.1171 45.1647 51.2191 44.5666C51.3211 43.9685 51.2349 43.3536 50.9725 42.8065C50.2466 41.3831 48.5324 40.8728 46.7287 41.7898C45.2748 42.532 41.5862 44.722 40.7158 45.326C40.6203 45.389 40.6081 45.3849 40.5735 45.5497C40.5633 45.5842 40.5511 45.6798 40.5349 45.7876C40.5186 45.8953 40.5206 45.9706 40.665 45.8953C41.9339 45.204 42.5276 46.7717 42.8103 47.2598C43.0421 47.6441 47.174 54.5801 47.3774 54.9502C47.6295 55.3955 47.6682 56.2699 47.174 56.7946C47.048 56.9227 47.0846 56.9227 47.0805 57.0772C47.0805 57.1829 47.0642 57.0772 47.0805 57.2134C47.0968 57.3497 47.1476 57.3842 47.2838 57.3009C48.3636 56.5749 50.9013 55.1719 51.9811 54.6005C56.0215 52.441 55.9341 49.5027 55.2834 47.8922ZM72.4374 46.8104C71.4207 46.906 71.3373 46.544 70.5972 45.7245C70.3328 45.4175 62.8152 36.0474 62.5732 35.7729C62.4329 35.6082 62.3597 35.5594 62.0811 35.6468C61.8026 35.7343 61.1559 35.9315 60.8265 36.0677C60.6557 36.1369 60.611 36.2203 60.6089 36.4622C60.6089 36.8364 60.2124 46.4078 60.064 48.5307C59.9948 49.4905 59.8871 50.2103 59.2364 50.7939C59.1881 50.8229 59.1482 50.8641 59.1208 50.9134C59.0933 50.9626 59.0792 51.0181 59.0798 51.0745C59.0493 51.2311 59.0676 51.1375 59.0412 51.288C59.031 51.3917 59.0717 51.4364 59.1754 51.3876C59.9887 51.0074 62.4065 50.1411 63.0653 49.9378C63.1711 49.9012 63.1853 49.8646 63.226 49.7345C63.2565 49.6369 63.226 49.7345 63.2951 49.5311C63.3236 49.4233 63.2727 49.3888 63.1609 49.4172C61.8107 49.7324 61.6155 48.7462 61.6196 47.6543C61.6196 47.0971 61.6196 45.9319 61.6501 44.9966C62.6444 44.659 64.2529 44.1039 65.42 43.7277C66.2131 44.7851 66.9065 45.7469 67.0244 45.9075C67.3579 46.3407 67.6609 46.9243 67.608 47.3614C67.5755 47.7295 67.0956 48.0243 66.8516 48.1748C66.7194 48.246 66.7438 48.3517 66.697 48.5571C66.6625 48.7055 66.697 48.5713 66.6767 48.671C66.6564 48.7706 66.7214 48.7828 66.8272 48.7462C67.8439 48.4453 70.6541 47.6949 72.2626 47.3716C72.4232 47.3391 72.4395 47.3289 72.4659 47.2415C72.5432 47.0605 72.531 47.0869 72.5757 46.971C72.6062 46.8775 72.6062 46.788 72.4354 46.8104H72.4374ZM80.4715 45.4561C79.0644 45.513 79.1213 44.5309 79.0481 43.8538C78.9932 43.4267 77.7996 34.8843 77.7528 34.4776C77.6756 33.8086 77.702 33.2352 78.3344 32.9525C78.493 32.8854 78.6292 32.8854 78.6882 32.7492C78.7233 32.659 78.7525 32.5666 78.7756 32.4726C78.8183 32.3445 78.7756 32.31 78.6353 32.3262C77.5495 32.4218 74.9223 32.7919 73.6168 33.044C73.5651 33.048 73.5154 33.0663 73.4734 33.0968C73.4314 33.1273 73.3987 33.1689 73.3789 33.2169C73.2935 33.3633 73.3403 33.3145 73.2711 33.4487C73.2325 33.528 73.2406 33.6215 73.3952 33.6114C74.7291 33.5219 74.7515 34.5284 74.843 35.1751C74.9121 35.594 76.2989 44.1771 76.3437 44.5777C76.4514 45.4215 76.2644 45.814 75.5303 46.176C75.3859 46.2512 75.3676 46.2736 75.3269 46.3996C75.3086 46.4505 75.2863 46.5094 75.2659 46.5765C75.2456 46.6436 75.2659 46.725 75.4205 46.6924C76.305 46.4891 79.2352 46.0661 80.2377 45.9807C80.3414 45.9807 80.4024 45.9482 80.4837 45.8099C80.5276 45.7503 80.5664 45.687 80.5996 45.6208C80.6342 45.5395 80.622 45.45 80.4715 45.4561ZM94.8276 41.7553C94.7634 41.7697 94.7021 41.7952 94.6466 41.8305C94.5246 41.9361 94.441 42.0791 94.4087 42.2372C94.2237 42.9306 93.392 43.8639 92.3488 44.0856C91.6696 44.2098 90.9766 44.2413 90.289 44.1791C88.8961 44.0815 88.8167 43.5101 88.7984 42.8289C88.7883 42.408 88.7151 34.3353 88.6988 33.9408C88.6724 33.1843 88.9225 32.5072 89.6505 32.2917C89.8213 32.2429 89.9595 32.249 90.0266 32.1249C90.0645 32.0569 90.0939 31.9845 90.1141 31.9094C90.1832 31.7935 90.1425 31.7589 89.99 31.7589C88.8493 31.7914 86.0919 31.7589 84.7946 31.8829C84.7427 31.8852 84.6922 31.9008 84.6481 31.9282C84.6039 31.9557 84.5675 31.994 84.5425 32.0395C84.4469 32.1737 84.4774 32.129 84.3981 32.2429C84.3534 32.3201 84.3554 32.4096 84.4977 32.4116C85.8134 32.4442 85.7808 33.4751 85.8154 34.1136C85.8378 34.5345 86.1204 43.1929 86.1346 43.5874C86.157 44.2869 85.9415 44.8074 85.181 45.0494C85.0163 45.1064 85.0203 45.1267 84.9451 45.2528C84.8699 45.3788 84.9166 45.328 84.8597 45.4459C84.8027 45.5639 84.8434 45.6188 84.9898 45.6066C87.7309 45.387 91.4033 45.4256 94.3436 45.5598C94.6385 45.5781 94.7361 45.4175 94.7625 45.084C94.7849 44.8115 94.9659 42.2738 95.0045 41.8508C95.0167 41.7105 95.0004 41.7024 94.8276 41.7553V41.7553ZM109.523 33.9509C109.524 33.8529 109.49 33.7577 109.426 33.683C109.363 33.6082 109.275 33.559 109.178 33.5443C107.002 33.0542 102.339 32.4177 100.084 32.251C100.033 32.243 99.9798 32.2494 99.9317 32.2695C99.8836 32.2896 99.842 32.3226 99.8115 32.3649C99.6997 32.4787 99.7587 32.3893 99.655 32.497C99.6041 32.5621 99.5899 32.6556 99.7363 32.6739C100.834 32.8529 100.523 33.8696 100.476 34.5671C100.446 34.99 99.5065 43.6037 99.4597 44.053C99.3682 44.7525 99.0409 45.2365 98.258 45.3971C98.2035 45.3994 98.1506 45.4163 98.1048 45.446C98.059 45.4757 98.022 45.5171 97.9977 45.5659C97.9326 45.6473 98.0099 45.5659 97.9509 45.6839C97.892 45.8018 97.9123 45.8506 98.0587 45.8567C101.186 46.0499 104.997 46.7067 107.852 47.2801C108.132 47.3391 108.281 47.213 108.362 46.8856C108.419 46.6233 109.045 43.6748 109.094 43.4593C109.143 43.2437 109.094 43.2417 108.942 43.2966C108.885 43.319 108.781 43.3454 108.677 43.3881C108.574 43.4308 108.535 43.5183 108.452 43.6992C108.149 44.3987 107.551 45.3605 106.392 45.4337C105.66 45.4866 104.059 45.2162 103.598 45.1084C102.235 44.7891 102.244 44.2727 102.296 43.5915C102.309 43.3678 102.481 41.4909 102.703 39.4554C103.313 39.5287 104.246 39.6222 104.637 39.6852C106.06 39.9191 106.713 39.734 106.731 41.3811C106.731 41.5275 106.778 41.5438 106.888 41.4848C106.966 41.4453 107.041 41.4012 107.114 41.3526C107.225 41.2774 107.236 41.2184 107.252 41.0558C107.295 40.7711 107.541 38.9268 107.616 38.3981C107.646 38.1724 107.524 38.1662 107.356 38.2659C106.845 38.5668 106.719 38.6949 105.253 38.5038C104.643 38.4286 103.476 38.2842 102.852 38.1785C103.085 36.1267 103.297 34.2316 103.327 34.014C104.037 34.1197 104.985 34.2173 106.148 34.4207C107.225 34.624 108.838 34.6687 109.102 36.0596C109.129 36.206 109.194 36.1898 109.249 36.143C109.304 36.0962 109.417 36.0494 109.474 35.9925C109.531 35.9356 109.525 35.9579 109.521 35.779C109.517 35.6001 109.523 34.3658 109.523 33.9509ZM119.42 44.2381C120.935 42.8411 123.818 40.1163 124.127 39.8154C124.857 39.1057 125.26 38.9837 126.112 39.0447C126.285 39.0549 126.285 39.0671 126.401 38.9776C126.517 38.8881 126.482 38.9024 126.586 38.8149C126.689 38.7275 126.673 38.6827 126.525 38.6116C125.465 38.1419 123.475 37.4566 122.2 37.0133C122.157 36.9864 122.106 36.9748 122.056 36.9803C122.006 36.9859 121.959 37.0082 121.923 37.0438C121.846 37.089 121.778 37.1467 121.72 37.2146C121.655 37.2797 121.586 37.3508 121.732 37.4179C123.113 37.9853 122.45 39.2053 121.732 39.9414C121.091 40.5962 118.627 43.0099 118.627 43.0099C118.627 43.0099 117.675 38.8169 117.515 37.9426C117.399 37.3224 117.537 36.389 118.889 36.5883C118.942 36.6022 118.998 36.6 119.049 36.5819C119.101 36.5637 119.146 36.5306 119.178 36.4866C119.213 36.4541 119.221 36.4277 119.343 36.3057C119.412 36.2304 119.404 36.1674 119.261 36.1023C118.11 35.7241 115.304 34.9819 113.905 34.6891C113.855 34.6707 113.801 34.6668 113.749 34.678C113.697 34.6892 113.649 34.7148 113.61 34.7521C113.468 34.866 113.434 34.8762 113.35 34.9555C113.267 35.0348 113.263 35.0897 113.407 35.1588C114.536 35.6163 114.723 37.178 114.891 37.849C115.048 38.4326 116.073 42.776 116.146 43.2539C116.214 43.6448 116.201 44.0457 116.107 44.4313C115.878 45.4236 115.497 46.6294 115.377 46.9548C115.121 47.6766 114.875 48.067 114.145 48.1097C114.092 48.1046 114.038 48.1133 113.989 48.135C113.94 48.1568 113.897 48.1908 113.865 48.2338C113.736 48.3631 113.615 48.4988 113.501 48.6405C113.405 48.7381 113.423 48.795 113.582 48.8316C114.56 49.0573 117.216 49.9256 118.259 50.3038C118.309 50.3247 118.365 50.3304 118.419 50.3203C118.473 50.3102 118.522 50.2847 118.562 50.2469C118.688 50.1574 118.926 49.9724 119.046 49.8768C119.111 49.828 119.137 49.7385 118.993 49.6735C117.651 49.1407 117.86 48.2379 118.033 47.5282C118.098 47.2781 118.655 45.5659 118.739 45.2629C118.903 44.7139 119.068 44.5634 119.414 44.2361L119.42 44.2381ZM138.016 45.1043C137.713 45.0637 137.558 44.9783 137.168 44.6854C136.696 44.3418 136.066 43.4389 134.754 42.6276C132.708 41.3404 129.996 41.1635 128.56 43.0668C128.109 43.6809 127.869 44.4244 127.875 45.1863C127.881 45.9482 128.134 46.6877 128.595 47.2943C129.17 48.0325 130.718 49.706 131.004 50.0456C131.572 50.7308 131.791 51.2982 131.73 51.8187C131.702 52.1405 131.585 52.4481 131.393 52.7073C130.783 53.5207 129.229 53.7993 127.785 52.809C126.531 51.955 125.632 50.4035 126.362 48.431C126.427 48.2521 126.362 48.185 126.189 48.2175C126.103 48.2355 126.016 48.2484 125.929 48.2562C125.787 48.2846 125.726 48.3151 125.604 48.5551C125.439 48.8865 124.072 51.5463 123.896 51.9163C123.818 52.1014 123.883 52.1543 124.03 52.1563C124.347 52.1416 124.661 52.2201 124.935 52.382C125.839 52.8029 126.112 53.4333 127.279 54.2121C129.49 55.6741 132.363 55.603 133.815 53.9721C134.785 52.868 135.323 51.0501 134.221 49.5454C133.542 48.6161 131.972 46.9283 131.47 46.2919C131.063 45.7733 130.714 45.0372 131.114 44.3072C131.572 43.4654 132.875 43.1766 134.134 43.9453C135.484 44.7871 136.635 46.422 135.925 47.9552C135.799 48.2257 135.791 48.307 135.986 48.2989C136.182 48.2907 136.082 48.2989 136.202 48.2989C136.322 48.2989 136.383 48.3314 136.491 48.1545C136.741 47.7478 138.014 45.816 138.209 45.511C138.378 45.2467 138.323 45.1531 138.012 45.1043H138.016ZM48.5446 44.4618C48.0545 43.5488 46.989 43.4125 45.9418 43.9209C45.5684 44.113 45.2059 44.3254 44.8559 44.5573L46.4257 47.4346C46.4835 47.5387 46.5783 47.6173 46.6912 47.655C46.8041 47.6926 46.9271 47.6865 47.0358 47.638C47.2682 47.5527 47.4899 47.4408 47.6966 47.3045C48.9025 46.544 48.9838 45.2934 48.5364 44.4618H48.5446Z" fill="#CF5323"/>
<path style="mix-blend-mode:multiply" d="M52.6643 49.2729C53.3374 50.7207 52.9653 52.3922 51.4259 53.234C50.2893 53.8542 49.8663 53.6793 49.5247 53.11C49.3681 52.8192 48.3839 51.0338 47.3631 49.1692C47.91 48.7993 48.4768 48.4599 49.0611 48.1525C50.3279 47.5607 51.8733 47.5404 52.6643 49.2729ZM61.6745 43.5935C62.4431 43.319 63.7221 42.8757 64.566 42.5951L61.8188 38.9552C61.8188 38.9552 61.7375 41.2916 61.6765 43.5915L61.6745 43.5935ZM146.656 45.3504C142.434 51.33 138.232 57.3205 134.048 63.3219C125.396 56.7457 109.379 49.7975 90.0022 49.7975C70.6256 49.7975 54.6205 56.7518 45.9641 63.3259C41.7766 57.3287 37.5708 51.3382 33.3467 45.3544C38.0236 41.8691 59.029 27.7124 90.0165 28.0438C120.945 27.7205 141.887 41.7959 146.658 45.3483L146.656 45.3504ZM55.2834 47.8922C54.5656 46.0783 52.6236 45.2162 50.4031 46.1454C50.832 45.7163 51.1171 45.1647 51.2191 44.5666C51.3211 43.9685 51.2349 43.3536 50.9725 42.8065C50.2466 41.3831 48.5324 40.8728 46.7287 41.7898C45.2748 42.532 41.5862 44.722 40.7158 45.326C40.6203 45.389 40.6081 45.3849 40.5735 45.5497C40.5633 45.5842 40.5511 45.6798 40.5349 45.7876C40.5186 45.8953 40.5206 45.9706 40.665 45.8953C41.9339 45.204 42.5276 46.7717 42.8103 47.2598C43.0421 47.6441 47.174 54.5801 47.3774 54.9502C47.6295 55.3955 47.6682 56.2699 47.174 56.7946C47.048 56.9227 47.0846 56.9227 47.0805 57.0772C47.0805 57.1829 47.0642 57.0772 47.0805 57.2134C47.0968 57.3497 47.1476 57.3842 47.2838 57.3009C48.3636 56.5749 50.9013 55.1719 51.9811 54.6005C56.0215 52.441 55.9341 49.5027 55.2834 47.8922ZM72.4374 46.8104C71.4207 46.906 71.3373 46.544 70.5972 45.7245C70.3328 45.4175 62.8152 36.0474 62.5732 35.7729C62.4329 35.6082 62.3597 35.5594 62.0811 35.6468C61.8026 35.7343 61.1559 35.9315 60.8265 36.0677C60.6557 36.1369 60.611 36.2203 60.6089 36.4622C60.6089 36.8364 60.2124 46.4078 60.064 48.5307C59.9948 49.4905 59.8871 50.2103 59.2364 50.7939C59.1881 50.8229 59.1482 50.8641 59.1208 50.9134C59.0933 50.9626 59.0792 51.0181 59.0798 51.0745C59.0493 51.2311 59.0676 51.1375 59.0412 51.288C59.031 51.3917 59.0717 51.4364 59.1754 51.3876C59.9887 51.0074 62.4065 50.1411 63.0653 49.9378C63.1711 49.9012 63.1853 49.8646 63.226 49.7345C63.2565 49.6369 63.226 49.7345 63.2951 49.5311C63.3236 49.4233 63.2727 49.3888 63.1609 49.4172C61.8107 49.7324 61.6155 48.7462 61.6196 47.6543C61.6196 47.0971 61.6196 45.9319 61.6501 44.9966C62.6444 44.659 64.2529 44.1039 65.42 43.7277C66.2131 44.7851 66.9065 45.7469 67.0244 45.9075C67.3579 46.3407 67.6609 46.9243 67.608 47.3614C67.5755 47.7295 67.0956 48.0243 66.8516 48.1748C66.7194 48.246 66.7438 48.3517 66.697 48.5571C66.6625 48.7055 66.697 48.5713 66.6767 48.671C66.6564 48.7706 66.7214 48.7828 66.8272 48.7462C67.8439 48.4453 70.6541 47.6949 72.2626 47.3716C72.4232 47.3391 72.4395 47.3289 72.4659 47.2415C72.5432 47.0605 72.531 47.0869 72.5757 46.971C72.6062 46.8775 72.6062 46.788 72.4354 46.8104H72.4374ZM80.4715 45.4561C79.0644 45.513 79.1213 44.5309 79.0481 43.8538C78.9932 43.4267 77.7996 34.8843 77.7528 34.4776C77.6756 33.8086 77.702 33.2352 78.3344 32.9525C78.493 32.8854 78.6292 32.8854 78.6882 32.7492C78.7233 32.659 78.7525 32.5666 78.7756 32.4726C78.8183 32.3445 78.7756 32.31 78.6353 32.3262C77.5495 32.4218 74.9223 32.7919 73.6168 33.044C73.5651 33.048 73.5154 33.0663 73.4734 33.0968C73.4314 33.1273 73.3987 33.1689 73.3789 33.2169C73.2935 33.3633 73.3403 33.3145 73.2711 33.4487C73.2325 33.528 73.2406 33.6215 73.3952 33.6114C74.7291 33.5219 74.7515 34.5284 74.843 35.1751C74.9121 35.594 76.2989 44.1771 76.3437 44.5777C76.4514 45.4215 76.2644 45.814 75.5303 46.176C75.3859 46.2512 75.3676 46.2736 75.3269 46.3996C75.3086 46.4505 75.2863 46.5094 75.2659 46.5765C75.2456 46.6436 75.2659 46.725 75.4205 46.6924C76.305 46.4891 79.2352 46.0661 80.2377 45.9807C80.3414 45.9807 80.4024 45.9482 80.4837 45.8099C80.5276 45.7503 80.5664 45.687 80.5996 45.6208C80.6342 45.5395 80.622 45.45 80.4715 45.4561ZM94.8276 41.7553C94.7634 41.7697 94.7021 41.7952 94.6466 41.8305C94.5246 41.9361 94.441 42.0791 94.4087 42.2372C94.2237 42.9306 93.392 43.8639 92.3488 44.0856C91.6696 44.2098 90.9766 44.2413 90.289 44.1791C88.8961 44.0815 88.8167 43.5101 88.7984 42.8289C88.7883 42.408 88.7151 34.3353 88.6988 33.9408C88.6724 33.1843 88.9225 32.5072 89.6505 32.2917C89.8213 32.2429 89.9595 32.249 90.0266 32.1249C90.0645 32.0569 90.0939 31.9845 90.1141 31.9094C90.1832 31.7935 90.1425 31.7589 89.99 31.7589C88.8493 31.7914 86.0919 31.7589 84.7946 31.8829C84.7427 31.8852 84.6922 31.9008 84.6481 31.9282C84.6039 31.9557 84.5675 31.994 84.5425 32.0395C84.4469 32.1737 84.4774 32.129 84.3981 32.2429C84.3534 32.3201 84.3554 32.4096 84.4977 32.4116C85.8134 32.4442 85.7808 33.4751 85.8154 34.1136C85.8378 34.5345 86.1204 43.1929 86.1346 43.5874C86.157 44.2869 85.9415 44.8074 85.181 45.0494C85.0163 45.1064 85.0203 45.1267 84.9451 45.2528C84.8699 45.3788 84.9166 45.328 84.8597 45.4459C84.8027 45.5639 84.8434 45.6188 84.9898 45.6066C87.7309 45.387 91.4033 45.4256 94.3436 45.5598C94.6385 45.5781 94.7361 45.4175 94.7625 45.084C94.7849 44.8115 94.9659 42.2738 95.0045 41.8508C95.0167 41.7105 95.0004 41.7024 94.8276 41.7553V41.7553ZM109.523 33.9509C109.524 33.8529 109.49 33.7577 109.426 33.683C109.363 33.6082 109.275 33.559 109.178 33.5443C107.002 33.0542 102.339 32.4177 100.084 32.251C100.033 32.243 99.9798 32.2494 99.9317 32.2695C99.8836 32.2896 99.842 32.3226 99.8115 32.3649C99.6997 32.4787 99.7587 32.3893 99.655 32.497C99.6041 32.5621 99.5899 32.6556 99.7363 32.6739C100.834 32.8529 100.523 33.8696 100.476 34.5671C100.446 34.99 99.5065 43.6037 99.4597 44.053C99.3682 44.7525 99.0409 45.2365 98.258 45.3971C98.2035 45.3994 98.1506 45.4163 98.1048 45.446C98.059 45.4757 98.022 45.5171 97.9977 45.5659C97.9326 45.6473 98.0099 45.5659 97.9509 45.6839C97.892 45.8018 97.9123 45.8506 98.0587 45.8567C101.186 46.0499 104.997 46.7067 107.852 47.2801C108.132 47.3391 108.281 47.213 108.362 46.8856C108.419 46.6233 109.045 43.6748 109.094 43.4593C109.143 43.2437 109.094 43.2417 108.942 43.2966C108.885 43.319 108.781 43.3454 108.677 43.3881C108.574 43.4308 108.535 43.5183 108.452 43.6992C108.149 44.3987 107.551 45.3605 106.392 45.4337C105.66 45.4866 104.059 45.2162 103.598 45.1084C102.235 44.7891 102.244 44.2727 102.296 43.5915C102.309 43.3678 102.481 41.4909 102.703 39.4554C103.313 39.5287 104.246 39.6222 104.637 39.6852C106.06 39.9191 106.713 39.734 106.731 41.3811C106.731 41.5275 106.778 41.5438 106.888 41.4848C106.966 41.4453 107.041 41.4012 107.114 41.3526C107.225 41.2774 107.236 41.2184 107.252 41.0558C107.295 40.7711 107.541 38.9268 107.616 38.3981C107.646 38.1724 107.524 38.1662 107.356 38.2659C106.845 38.5668 106.719 38.6949 105.253 38.5038C104.643 38.4286 103.476 38.2842 102.852 38.1785C103.085 36.1267 103.297 34.2316 103.327 34.014C104.037 34.1197 104.985 34.2173 106.148 34.4207C107.225 34.624 108.838 34.6687 109.102 36.0596C109.129 36.206 109.194 36.1898 109.249 36.143C109.304 36.0962 109.417 36.0494 109.474 35.9925C109.531 35.9356 109.525 35.9579 109.521 35.779C109.517 35.6001 109.523 34.3658 109.523 33.9509ZM119.42 44.2381C120.935 42.8411 123.818 40.1163 124.127 39.8154C124.857 39.1057 125.26 38.9837 126.112 39.0447C126.285 39.0549 126.285 39.0671 126.401 38.9776C126.517 38.8881 126.482 38.9024 126.586 38.8149C126.689 38.7275 126.673 38.6827 126.525 38.6116C125.465 38.1419 123.475 37.4566 122.2 37.0133C122.157 36.9864 122.106 36.9748 122.056 36.9803C122.006 36.9859 121.959 37.0082 121.923 37.0438C121.846 37.089 121.778 37.1467 121.72 37.2146C121.655 37.2797 121.586 37.3508 121.732 37.4179C123.113 37.9853 122.45 39.2053 121.732 39.9414C121.091 40.5962 118.627 43.0099 118.627 43.0099C118.627 43.0099 117.675 38.8169 117.515 37.9426C117.399 37.3224 117.537 36.389 118.889 36.5883C118.942 36.6022 118.998 36.6 119.049 36.5819C119.101 36.5637 119.146 36.5306 119.178 36.4866C119.213 36.4541 119.221 36.4277 119.343 36.3057C119.412 36.2304 119.404 36.1674 119.261 36.1023C118.11 35.7241 115.304 34.9819 113.905 34.6891C113.855 34.6707 113.801 34.6668 113.749 34.678C113.697 34.6892 113.649 34.7148 113.61 34.7521C113.468 34.866 113.434 34.8762 113.35 34.9555C113.267 35.0348 113.263 35.0897 113.407 35.1588C114.536 35.6163 114.723 37.178 114.891 37.849C115.048 38.4326 116.073 42.776 116.146 43.2539C116.214 43.6448 116.201 44.0457 116.107 44.4313C115.878 45.4236 115.497 46.6294 115.377 46.9548C115.121 47.6766 114.875 48.067 114.145 48.1097C114.092 48.1046 114.038 48.1133 113.989 48.135C113.94 48.1568 113.897 48.1908 113.865 48.2338C113.736 48.3631 113.615 48.4988 113.501 48.6405C113.405 48.7381 113.423 48.795 113.582 48.8316C114.56 49.0573 117.216 49.9256 118.259 50.3038C118.309 50.3247 118.365 50.3304 118.419 50.3203C118.473 50.3102 118.522 50.2847 118.562 50.2469C118.688 50.1574 118.926 49.9724 119.046 49.8768C119.111 49.828 119.137 49.7385 118.993 49.6735C117.651 49.1407 117.86 48.2379 118.033 47.5282C118.098 47.2781 118.655 45.5659 118.739 45.2629C118.903 44.7139 119.068 44.5634 119.414 44.2361L119.42 44.2381ZM138.016 45.1043C137.713 45.0637 137.558 44.9783 137.168 44.6854C136.696 44.3418 136.066 43.4389 134.754 42.6276C132.708 41.3404 129.996 41.1635 128.56 43.0668C128.109 43.6809 127.869 44.4244 127.875 45.1863C127.881 45.9482 128.134 46.6877 128.595 47.2943C129.17 48.0325 130.718 49.706 131.004 50.0456C131.572 50.7308 131.791 51.2982 131.73 51.8187C131.702 52.1405 131.585 52.4481 131.393 52.7073C130.783 53.5207 129.229 53.7993 127.785 52.809C126.531 51.955 125.632 50.4035 126.362 48.431C126.427 48.2521 126.362 48.185 126.189 48.2175C126.103 48.2355 126.016 48.2484 125.929 48.2562C125.787 48.2846 125.726 48.3151 125.604 48.5551C125.439 48.8865 124.072 51.5463 123.896 51.9163C123.818 52.1014 123.883 52.1543 124.03 52.1563C124.347 52.1416 124.661 52.2201 124.935 52.382C125.839 52.8029 126.112 53.4333 127.279 54.2121C129.49 55.6741 132.363 55.603 133.815 53.9721C134.785 52.868 135.323 51.0501 134.221 49.5454C133.542 48.6161 131.972 46.9283 131.47 46.2919C131.063 45.7733 130.714 45.0372 131.114 44.3072C131.572 43.4654 132.875 43.1766 134.134 43.9453C135.484 44.7871 136.635 46.422 135.925 47.9552C135.799 48.2257 135.791 48.307 135.986 48.2989C136.182 48.2907 136.082 48.2989 136.202 48.2989C136.322 48.2989 136.383 48.3314 136.491 48.1545C136.741 47.7478 138.014 45.816 138.209 45.511C138.378 45.2467 138.323 45.1531 138.012 45.1043H138.016ZM48.5446 44.4618C48.0545 43.5488 46.989 43.4125 45.9418 43.9209C45.5684 44.113 45.2059 44.3254 44.8559 44.5573L46.4257 47.4346C46.4835 47.5387 46.5783 47.6173 46.6912 47.655C46.8041 47.6926 46.9271 47.6865 47.0358 47.638C47.2682 47.5527 47.4899 47.4408 47.6966 47.3045C48.9025 46.544 48.9838 45.2934 48.5364 44.4618H48.5446Z" fill="url(#paint0_linear_1666_122942)"/>
<path d="M139.808 46.0216L139.513 45.8528L139.656 45.6047L140.538 46.1172L140.396 46.3612L140.101 46.1924L139.621 47.0322L139.326 46.8614L139.808 46.0216ZM141.591 47.1745L140.912 47.7846L140.638 47.6219L140.819 46.7333H140.807L140.377 47.4796L140.101 47.3189L140.727 46.231L141.168 46.4893L141.012 47.2722L141.61 46.7435L142.055 46.9997L141.427 48.0855L141.15 47.9249L141.591 47.1745Z" fill="#FBF1D0"/>
<path d="M82.3611 69.2937C82.3908 68.1937 82.8439 67.1477 83.6259 66.3737C84.2546 66.8446 84.9494 67.2201 85.6878 67.488C86.4463 67.7799 87.2378 67.9773 88.0446 68.0756C88.0446 68.0756 88.0446 68.7711 88.0019 69.7512C87.9612 70.53 87.7172 71.7053 87.095 72.354C86.6618 72.8115 86.0925 73.0454 85.2547 73.0637H85.2303C84.8724 73.0637 82.1802 72.9152 82.3611 69.2957V69.2937ZM94.576 73.0637C93.7382 73.0454 93.1709 72.8115 92.7337 72.354C92.1237 71.7033 91.8695 70.5239 91.8308 69.7512C91.78 68.7711 91.7902 68.0756 91.7902 68.0756C92.6324 67.9594 93.4586 67.7473 94.2527 67.4432C94.9485 67.1802 95.6037 66.8201 96.1987 66.3737C96.9827 67.1487 97.4385 68.1957 97.4716 69.2977C97.6546 72.9172 94.9583 73.0657 94.6024 73.0657H94.58L94.576 73.0637ZM86.365 66.3798C85.7626 66.1902 85.1928 65.9097 84.6752 65.5481C85.1966 65.2346 85.7536 64.9848 86.3345 64.8038C86.8671 64.6386 87.4107 64.5109 87.9612 64.4216C87.9612 64.4216 87.9958 65.9893 88.0161 66.762C87.4568 66.6803 86.9052 66.5524 86.367 66.3798H86.365ZM91.8756 64.4216C92.426 64.5113 92.9695 64.6391 93.5023 64.8038C94.0843 64.9852 94.6426 65.235 95.1657 65.5481C94.6469 65.9091 94.0765 66.1895 93.4739 66.3798C92.9345 66.5523 92.3814 66.6788 91.8207 66.758C91.843 65.9853 91.8796 64.4236 91.8796 64.4236L91.8756 64.4216ZM89.1792 66.8637C89.1792 66.8637 89.1792 65.9141 89.167 65.6436C89.1548 65.3732 89.1792 64.2813 89.1792 64.2813C89.1792 64.2813 89.5595 64.2487 89.9174 64.2487C90.3546 64.2487 90.6657 64.2813 90.6657 64.2813C90.6657 64.2813 90.6819 65.4037 90.6758 65.6436C90.6697 65.8836 90.6636 66.8637 90.6636 66.8637C90.6636 66.8637 90.1675 66.8881 89.9194 66.8881C89.6713 66.8881 89.1813 66.8637 89.1813 66.8637H89.1792ZM82.5787 60.5214C82.6805 59.9857 82.9537 59.4976 83.3572 59.1308C83.7607 58.764 84.2725 58.5384 84.8155 58.488C85.82 58.4128 87.8656 59.1204 87.886 63.2178C87.1994 63.3268 86.5203 63.4782 85.8525 63.6712C85.0857 63.8883 84.3441 64.1862 83.6402 64.5598C83.4063 64.2975 82.1558 62.3739 82.5767 60.5174L82.5787 60.5214ZM93.9903 63.6712C93.3226 63.4781 92.6435 63.3267 91.9569 63.2178C91.9833 59.1224 94.0229 58.4148 95.0294 58.488C95.5722 58.5391 96.0837 58.7649 96.487 59.1316C96.8904 59.4983 97.1638 59.986 97.2662 60.5214C97.6851 62.378 96.4386 64.3016 96.2007 64.5639C95.4976 64.1898 94.7567 63.8919 93.9903 63.6753V63.6712ZM95.4585 57.4265C95.1037 57.4333 94.751 57.481 94.4072 57.5689C93.9293 57.695 92.6056 58.0691 91.3814 57.8576C90.4562 57.699 90.257 58.2969 90.3078 58.6385C90.5014 60.1088 90.6148 61.5887 90.6474 63.0714C90.4034 63.0592 90.0963 63.047 89.9174 63.047C89.7384 63.047 89.4314 63.047 89.1955 63.0714C89.2254 61.5887 89.3374 60.1088 89.531 58.6385C89.5839 58.2969 89.3867 57.699 88.4574 57.8576C87.2373 58.061 85.9095 57.695 85.4357 57.5689C85.0912 57.4811 84.7378 57.4333 84.3824 57.4265H84.2156C83.5698 57.4243 82.9343 57.5884 82.3702 57.9028C81.8061 58.2173 81.3324 58.6716 80.9947 59.2221C80.6625 59.7866 80.487 60.4296 80.4863 61.0847C80.527 62.7582 81.5844 64.1572 82.3164 64.9482C82.353 64.9889 82.5197 65.1414 82.595 65.2207C82.1498 65.5578 81.7446 65.9446 81.3871 66.3737C81.1268 66.697 79.4045 68.6938 80.4517 71.3495C81.4684 73.9075 84.3376 74.2959 85.8098 74.1841C87.2332 74.0763 87.5871 73.8526 88.86 73.7774C88.988 73.7749 89.1129 73.7369 89.2206 73.6676C89.3283 73.5983 89.4147 73.5004 89.47 73.3849C89.5554 73.0901 89.47 72.8603 89.4049 72.4719C89.3574 72.1417 89.3282 71.809 89.3175 71.4755C89.2768 70.6622 89.2036 68.1692 89.2036 68.1671C89.2707 68.1671 89.6815 68.1814 89.9214 68.1773L90.6494 68.1671C90.6494 68.1671 90.5742 70.654 90.5335 71.4755C90.5212 71.8089 90.492 72.1415 90.4461 72.4719C90.3891 72.8603 90.2936 73.082 90.383 73.3849C90.4382 73.5006 90.5245 73.5986 90.6322 73.6679C90.74 73.7372 90.8649 73.7751 90.9931 73.7774C92.266 73.8547 92.6198 74.0783 94.0432 74.1841C95.5134 74.2959 98.3866 73.9075 99.3972 71.3495C100.449 68.6938 98.7201 66.697 98.4639 66.3737C98.1075 65.9437 97.7021 65.5567 97.256 65.2207C97.3374 65.1414 97.5001 64.9889 97.5367 64.9482C98.2687 64.1633 99.3261 62.7643 99.3667 61.0847C99.3658 60.4297 99.1903 59.7868 98.8584 59.2221C98.5211 58.6716 98.0478 58.2173 97.484 57.9028C96.9203 57.5883 96.285 57.4243 95.6395 57.4265H95.4585Z" fill="#C1A877"/>
<path d="M100.228 57.7276H99.8555V57.4226H100.982V57.7276H100.6V58.7911H100.232L100.228 57.7276ZM102.564 57.8496L102.243 58.7972H101.909L101.592 57.8598V58.8074H101.23V57.4287H101.795L102.064 58.2604H102.078L102.346 57.4287H102.92V58.8074H102.568L102.564 57.8496Z" fill="#C1A877"/>
</g>
<defs>
<linearGradient id="paint0_linear_1666_122942" x1="33.3446" y1="45.6757" x2="146.658" y2="45.6757" gradientUnits="userSpaceOnUse">
<stop stop-color="#231F21"/>
<stop offset="0.1" stop-color="#231F21" stop-opacity="0.88"/>
<stop offset="0.14" stop-color="#231F21" stop-opacity="0.75"/>
<stop offset="0.16" stop-color="#4E4B4D" stop-opacity="0.79"/>
<stop offset="0.18" stop-color="#848182" stop-opacity="0.84"/>
<stop offset="0.2" stop-color="#B0AEAF" stop-opacity="0.88"/>
<stop offset="0.22" stop-color="#D2D2D2" stop-opacity="0.91"/>
<stop offset="0.24" stop-color="#EBEBEB" stop-opacity="0.93"/>
<stop offset="0.26" stop-color="#FAFAFA" stop-opacity="0.95"/>
<stop offset="0.27" stop-color="white" stop-opacity="0.95"/>
<stop offset="0.34" stop-color="white"/>
<stop offset="0.48" stop-color="#231F21" stop-opacity="0.65"/>
<stop offset="0.51" stop-color="#231F21" stop-opacity="0.65"/>
<stop offset="0.69" stop-color="white"/>
<stop offset="0.72" stop-color="white" stop-opacity="0.98"/>
<stop offset="0.75" stop-color="white" stop-opacity="0.94"/>
<stop offset="0.86" stop-color="#231F21" stop-opacity="0.75"/>
<stop offset="1" stop-color="#231F21"/>
</linearGradient>
</defs>
</svg>
