<svg width="180" height="100" viewBox="0 0 180 100" fill="none" xmlns="http://www.w3.org/2000/svg">
<mask id="mask0_1630_119361" style="mask-type:alpha" maskUnits="userSpaceOnUse" x="0" y="0" width="180" height="100">
<path d="M180 0H0V100H180V0Z" fill="white"/>
</mask>
<g mask="url(#mask0_1630_119361)">
<path d="M108.19 32.985H107.614C107.54 32.985 107.528 32.985 107.528 33.0707V34.1361C107.528 34.1973 107.528 34.2218 107.442 34.2218H106.583C106.51 34.2218 106.497 34.2218 106.497 34.1361V33.0707C106.497 33.0584 106.497 33.0462 106.497 33.0339C106.497 33.0217 106.485 33.0095 106.473 32.9972C106.461 32.985 106.448 32.985 106.448 32.9727C106.436 32.9727 106.424 32.9727 106.412 32.9727H104.301C104.228 32.9727 104.216 32.9727 104.216 32.887V32.1277L106.547 28.5887H106.62H107.442C107.454 28.5887 107.467 28.5887 107.479 28.5887C107.491 28.5887 107.503 28.6009 107.503 28.6131C107.516 28.6254 107.516 28.6376 107.528 28.6499C107.528 28.6621 107.528 28.6744 107.528 28.6866V31.993C107.528 32.0543 107.528 32.0788 107.614 32.0788H108.19C108.203 32.0788 108.215 32.0788 108.227 32.0788C108.24 32.0788 108.252 32.091 108.252 32.1033C108.264 32.1155 108.264 32.1277 108.276 32.14C108.276 32.1522 108.276 32.1645 108.276 32.1767V32.936C108.276 32.9972 108.276 33.0217 108.19 33.0217V32.985ZM106.497 30.597C106.497 30.5358 106.497 30.4868 106.412 30.4868C106.399 30.4868 106.375 30.499 106.363 30.499C106.35 30.499 106.338 30.5235 106.326 30.5358L105.406 31.8583C105.393 31.8828 105.393 31.9073 105.406 31.9318C105.406 31.9808 105.406 32.0053 105.504 32.0053H106.424C106.436 32.0053 106.448 32.0053 106.461 32.0053C106.473 32.0053 106.485 31.993 106.497 31.9808C106.51 31.9685 106.51 31.9563 106.522 31.9441C106.522 31.9318 106.522 31.9196 106.522 31.9073L106.497 30.597ZM113.122 30.0949C113.122 31.0256 112.595 31.442 111.687 32.0175C111.11 32.3849 110.742 32.6298 110.742 33.1442V33.2299C110.742 33.2911 110.742 33.3156 110.84 33.3156H112.963C112.975 33.3156 112.987 33.3156 113 33.3156C113.012 33.3156 113.024 33.3278 113.024 33.3401C113.036 33.3523 113.036 33.3646 113.049 33.3768C113.049 33.3891 113.049 33.4013 113.049 33.4136V34.1728C113.049 34.234 113.049 34.2585 112.963 34.2585H109.81C109.749 34.2585 109.724 34.2585 109.724 34.1728V33.0952C109.724 32.1522 110.264 31.5767 111.282 30.9766C111.81 30.6705 112.104 30.45 112.104 30.0459C112.104 29.8745 112.03 29.7153 111.908 29.5928C111.785 29.4704 111.626 29.4091 111.454 29.4091H111.123C111.024 29.4091 110.926 29.4336 110.828 29.4826C110.742 29.5316 110.669 29.6051 110.607 29.6908C110.497 29.8622 110.46 29.9969 110.399 29.9969H110.35L109.601 29.6051C109.601 29.6051 109.552 29.5561 109.552 29.5438C109.626 29.2989 109.773 29.0785 109.957 28.9193C110.117 28.7723 110.301 28.6499 110.497 28.5764C110.693 28.5029 110.914 28.4662 111.135 28.4784H111.454C111.675 28.454 111.895 28.4784 112.104 28.5519C112.313 28.6254 112.497 28.7356 112.656 28.8948C112.816 29.0418 112.938 29.2254 113.024 29.4336C113.11 29.6418 113.135 29.8622 113.122 30.0827" fill="#FFA102"/>
<path d="M72.5025 34.2219H69.6196C69.5582 34.2219 69.5337 34.2219 69.5337 34.1361V33.3891C69.5337 33.3279 69.5337 33.3034 69.6196 33.3034H70.4538C70.5151 33.3034 70.5396 33.3034 70.5396 33.2177V30.5726C70.5396 30.5481 70.5397 30.5358 70.5274 30.5113C70.5151 30.4991 70.5028 30.4868 70.4905 30.4746C70.4782 30.4624 70.4538 30.4624 70.4293 30.4746C70.417 30.4746 70.3924 30.4868 70.3801 30.5113L70.1103 30.793C70.1103 30.793 70.0612 30.793 70.049 30.793C70.0244 30.8052 70.0121 30.8052 69.9875 30.793L69.4355 30.2419C69.4355 30.2419 69.4355 30.1929 69.4355 30.1807C69.4355 30.1685 69.4355 30.1807 69.4355 30.1195L70.9445 28.601H71.0181H71.4966C71.5089 28.601 71.521 28.601 71.5333 28.601C71.5456 28.601 71.5578 28.6132 71.5578 28.6255C71.5701 28.6377 71.5702 28.65 71.5825 28.6622C71.5825 28.6744 71.5825 28.6867 71.5825 28.6989V33.2544C71.5825 33.3157 71.5825 33.3402 71.6683 33.3402H72.4902C72.5025 33.3402 72.5147 33.3402 72.527 33.3402C72.5393 33.3402 72.5516 33.3524 72.5516 33.3647C72.5639 33.3769 72.5639 33.3891 72.5639 33.4014C72.5639 33.4136 72.5639 33.4259 72.5639 33.4381V34.1974C72.5639 34.2586 72.5639 34.2831 72.478 34.2831V34.2219H72.5025ZM75.7658 34.3566H75.4959C75.2873 34.3688 75.0665 34.3443 74.8702 34.2709C74.6739 34.1974 74.49 34.0872 74.3305 33.928C74.1342 33.7565 73.987 33.5238 73.9257 33.2789C73.9257 33.2789 73.9256 33.2299 73.9746 33.2177L74.7231 32.8258H74.7721C74.8334 32.8258 74.8579 32.9238 74.9561 33.1197C75.0052 33.2177 75.0788 33.2912 75.1769 33.3402C75.2628 33.3891 75.3733 33.4259 75.4837 33.4136H75.7535C75.9253 33.4136 76.0849 33.3402 76.2075 33.2299C76.3302 33.1075 76.3915 32.9483 76.3915 32.7768V32.2625C76.3915 32.2013 76.3915 32.1645 76.3301 32.1645C76.1216 32.2503 75.9007 32.3115 75.6676 32.3482H75.3978C75.1893 32.3605 74.9806 32.3237 74.7843 32.2503C74.5881 32.1768 74.4163 32.0543 74.2691 31.9074C74.1219 31.7604 73.9993 31.5767 73.9257 31.3808C73.8521 31.1849 73.8152 30.9767 73.8274 30.7685V30.1195C73.8152 29.899 73.8521 29.6786 73.9257 29.4827C74.0116 29.2745 74.1341 29.0908 74.2813 28.9439C74.4408 28.7969 74.625 28.6744 74.8335 28.601C75.0421 28.5275 75.2629 28.503 75.4715 28.5275H75.7413C75.9498 28.503 76.1585 28.5275 76.367 28.601C76.5633 28.6744 76.7472 28.7724 76.9067 28.9194C77.0662 29.0663 77.1889 29.2378 77.2748 29.4337C77.3606 29.6296 77.3975 29.8378 77.3975 30.0582V32.7279C77.4098 32.9483 77.3729 33.1687 77.287 33.3769C77.2012 33.5851 77.0786 33.7688 76.9191 33.9157C76.7596 34.0627 76.5756 34.1851 76.367 34.2586C76.1585 34.3321 75.9376 34.3566 75.7168 34.3321L75.7658 34.3566ZM76.367 30.0582C76.367 29.9725 76.3547 29.8868 76.3179 29.8133C76.281 29.7398 76.2443 29.6664 76.183 29.6051C76.1217 29.5439 76.048 29.4949 75.9743 29.4704C75.9007 29.4337 75.8149 29.4214 75.729 29.4214H75.4592C75.3733 29.4214 75.2874 29.4337 75.2138 29.4704C75.1402 29.5072 75.0665 29.5562 75.0052 29.6051C74.9438 29.6664 74.8948 29.7398 74.8702 29.8133C74.8334 29.8868 74.8212 29.9725 74.8212 30.0582V30.7073C74.8212 30.793 74.8334 30.8787 74.8579 30.9522C74.8825 31.0257 74.9317 31.0991 74.993 31.1604C75.0543 31.2216 75.1279 31.2706 75.2016 31.2951C75.2752 31.3318 75.3609 31.3441 75.4468 31.3318H75.7168C75.8027 31.3318 75.8886 31.3196 75.9622 31.2828C76.0358 31.2461 76.1093 31.2094 76.1706 31.1481C76.232 31.0869 76.281 31.0134 76.3056 30.94C76.3424 30.8665 76.3548 30.7808 76.3548 30.695V30.0582H76.367Z" fill="#FFA102"/>
<path d="M66.9707 36.6098C66.9707 36.6098 69.6329 36.8425 73.4237 36.8425C77.2146 36.8425 79.8767 36.6098 79.8767 36.6098C79.8767 36.6098 77.2023 36.3772 73.4237 36.3772C69.6452 36.3772 66.9707 36.6098 66.9707 36.6098Z" fill="#FFA102"/>
<path d="M102.217 36.6098C102.217 36.6098 104.879 36.8425 108.67 36.8425C112.448 36.8425 115.123 36.6098 115.123 36.6098C115.123 36.6098 112.448 36.3772 108.67 36.3772C104.891 36.3772 102.217 36.6098 102.217 36.6098Z" fill="#FFA102"/>
<path d="M53.9908 41.9734C44.1518 41.9734 42.9618 50.4721 47.6482 51.8437C45.2928 49.7619 46.6913 45.1329 52.9235 45.1329C53.3406 45.1329 53.77 45.1696 54.1871 45.2431C53.8436 45.4758 52.3592 46.5412 52.0279 46.7616C51.6844 47.0555 51.4023 47.4106 51.206 47.827C51.0097 48.2434 50.9238 48.6842 50.9238 49.1373V55.6889C50.9606 56.1665 50.8625 56.6441 50.6294 57.0605C47.6114 56.5829 45.9062 58.1626 45.6117 60.6608C46.9612 58.8116 47.8813 58.5545 51.255 60.3546C56.837 63.3304 64.3451 61.7874 64.3451 51.8192C64.3328 46.7493 59.9041 41.9734 53.9908 41.9734ZM54.4079 58.5055C53.5369 58.0156 52.6291 57.6238 51.6722 57.3421C52.4205 56.9135 53.0585 56.3135 53.5001 55.5664C53.954 54.8317 54.1994 53.9867 54.2362 53.1173V45.2676C57.4995 45.8186 61.4744 48.4148 61.4744 54.746C61.4744 56.9135 60.8855 62.0446 54.4079 58.5055ZM77.018 54.7092C77.0058 55.444 76.8586 56.1665 76.5764 56.8523C76.282 57.5258 75.8648 58.1381 75.3373 58.6524C74.8098 59.1668 74.1964 59.5586 73.5094 59.828C72.8346 60.0975 72.0985 60.2199 71.3747 60.2077C67.866 60.2077 65.6946 57.832 65.6946 54.6847C65.6333 53.901 65.7437 53.1172 66.0013 52.3702C66.2589 51.6355 66.6638 50.9497 67.1913 50.3742C67.7188 49.7986 68.369 49.3455 69.0806 49.0271C69.7921 48.7087 70.565 48.5495 71.3502 48.5495C72.1353 48.5495 72.896 48.7087 73.6198 49.0271C74.3313 49.3455 74.9815 49.7986 75.5091 50.3742C76.0366 50.9497 76.4414 51.6232 76.6991 52.3702C76.9567 53.105 77.0671 53.901 77.0058 54.6847L77.018 54.7092ZM70.7736 49.8598C69.2033 50.068 68.5531 52.2478 68.8598 54.8684C69.1665 57.4891 70.2583 59.4239 71.8777 59.2647C73.5953 59.0566 74.0737 56.9013 73.767 54.2806C73.4603 51.66 72.393 49.6394 70.7736 49.8598ZM135.856 54.6725C135.856 55.4195 135.708 56.142 135.414 56.8278C135.12 57.5136 134.702 58.1259 134.175 58.6402C133.647 59.1545 133.022 59.5586 132.335 59.828C131.648 60.0975 130.912 60.2199 130.176 60.1954C126.667 60.1954 124.495 57.8197 124.495 54.6725C124.434 53.8887 124.544 53.105 124.802 52.358C125.06 51.6232 125.465 50.9375 125.992 50.3619C126.52 49.7863 127.17 49.3332 127.881 49.0148C128.593 48.6965 129.366 48.5373 130.151 48.5373C130.924 48.5373 131.697 48.6965 132.421 49.0148C133.132 49.3332 133.782 49.7863 134.31 50.3619C134.837 50.9375 135.242 51.611 135.512 52.358C135.77 53.0928 135.88 53.8887 135.819 54.6725H135.856ZM129.599 49.8598C128.041 50.068 127.378 52.2478 127.685 54.8684C127.992 57.4891 129.084 59.4239 130.703 59.2647C132.421 59.0566 132.899 56.9013 132.592 54.2806C132.298 51.66 131.218 49.6394 129.599 49.8598ZM112.178 59.9505V59.4239C113.503 59.2402 113.528 58.0401 113.528 57.2197V46.382C113.528 44.9492 112.019 45.1574 112.019 45.1574V44.6063C113.503 44.4593 114.975 44.1654 116.398 43.7123L116.668 44.1654C116.668 44.1654 116.595 45.439 116.595 45.9289V57.2197C116.595 58.3953 116.595 59.1055 117.76 59.4239V59.9505H112.178ZM90.3657 59.4117V59.9383H84.7101V59.4117C85.9983 59.081 85.8756 58.383 85.8756 57.2074V51.9049C85.8756 49.8598 83.3852 50.1905 82.0357 51.2681V57.2197C82.0357 58.3953 82.0357 59.1055 83.2012 59.4239V59.9505H77.6315V59.4239C78.9564 59.2402 78.9809 58.0401 78.9809 57.2197V51.9539C78.9809 51.7579 78.9441 51.562 78.8705 51.3906C78.7969 51.2069 78.6865 51.0477 78.5393 50.913C78.3921 50.7783 78.2326 50.6803 78.0486 50.6068C77.8645 50.5456 77.6683 50.5089 77.4842 50.5211V49.97C78.9564 49.7741 80.4163 49.4557 81.8394 49.0026L82.1093 49.4557C82.0602 49.6884 82.0234 49.9333 82.0112 50.166C85.2867 48.1086 88.9672 48.476 88.9672 51.2926V57.2074C89.0162 58.0401 89.0408 59.2402 90.3657 59.4117ZM111.602 59.9505C110.129 59.9505 108.657 60.1342 107.222 60.5016V59.2525C104.143 61.2731 100.254 61.0894 100.254 57.538V51.8192C100.254 50.3864 98.7448 50.5946 98.7448 50.5946V50.0802C100.229 50.0313 101.701 49.7741 103.124 49.321L103.394 49.7741C103.394 49.7741 103.272 51.0477 103.272 51.5253V57.5503C103.272 58.9953 105.026 59.5586 107.001 58.481V51.7335C107.026 51.562 107.013 51.3906 106.952 51.2191C106.903 51.0599 106.805 50.913 106.682 50.7905C106.559 50.6681 106.412 50.5823 106.24 50.5333C106.081 50.4844 105.897 50.4721 105.737 50.5089V49.9455C107.161 49.9333 108.571 49.6761 109.909 49.1863L110.179 49.6394C110.179 49.6394 110.056 50.913 110.056 51.3906V57.5748C110.056 58.7871 110.51 59.4607 111.565 59.4607L111.602 59.9505ZM118.484 59.9505V59.3994C119.809 59.2158 119.833 58.0034 119.833 57.1829V51.6967C119.833 50.2639 118.325 50.4721 118.325 50.4721V49.921C119.821 49.7986 121.281 49.4924 122.704 49.0148L122.974 49.4679C122.974 49.4679 122.851 50.7293 122.851 51.2191V57.2197C122.851 58.3953 122.851 59.1055 124.017 59.4239V59.9628H118.484V59.9505ZM121.122 45.0227C120.803 45.0227 120.496 45.1206 120.238 45.2921C119.981 45.4635 119.772 45.7207 119.662 46.0146C119.551 46.3085 119.515 46.6269 119.576 46.9453C119.637 47.2514 119.784 47.5453 120.018 47.7658C120.238 47.9862 120.521 48.1454 120.827 48.2066C121.134 48.2678 121.453 48.2311 121.747 48.1086C122.042 47.9862 122.287 47.778 122.459 47.5208C122.631 47.2637 122.729 46.9453 122.729 46.6269C122.729 46.1983 122.557 45.7942 122.263 45.488C121.944 45.1941 121.539 45.0227 121.122 45.0227ZM100.119 43.7368C98.34 44.2634 96.2544 45.2553 92.3654 43.7368C85.9002 41.1529 81.9744 43.4797 82.097 45.9534C83.2748 44.9002 84.4034 43.8715 88.0348 45.7207C91.9729 47.729 94.5369 46.9085 96.5857 45.7819C96.5857 45.7819 96.6347 45.9166 96.1195 46.2473C95.3589 46.6881 94.7332 47.3249 94.3038 48.0842C93.8744 48.8434 93.6413 49.7129 93.6413 50.5946V65.0938C93.6413 67.1389 93.1138 67.9471 92.1323 67.9471C89.3107 67.9471 88.4028 61.8119 83.3361 61.8119C79.8642 61.8119 75.9385 63.4039 73.6075 64.3346C72.0372 63.6488 70.3565 63.3059 68.6512 63.3182C67.179 63.2814 65.7191 63.5631 64.3574 64.1509C63.0815 63.8202 57.7326 62.2283 55.6716 66.2817C52.5309 66.8817 51.7703 68.8533 51.7703 69.98C51.7703 73.8987 56.2359 74.5355 60.3948 73.4333C61.1799 74.2048 62.1737 74.7314 63.2532 74.9518C62.8116 76.7153 63.928 80.1931 69.4854 80.1931C76.9444 80.1931 78.3062 74.5967 78.3307 74.5355C83.4588 75.5274 86.0474 73.1394 86.0474 71.1923C86.0474 69.2452 84.612 68.5962 83.4956 68.3023C83.5324 68.0084 83.5079 67.7022 83.4343 67.4083C83.3484 67.1144 83.2134 66.845 83.0171 66.6123C82.6614 66.2205 82.2197 65.9143 81.7167 65.7184C81.226 65.5224 80.6862 65.449 80.1587 65.5102C78.8705 65.5469 77.5946 65.8041 76.3924 66.2694C75.6686 65.5469 74.8343 64.9469 73.9142 64.506C76.1715 63.5998 78.2939 62.7059 80.6494 62.7059C85.618 62.7059 85.3849 69.6126 90.8074 69.6126C94.8068 69.6126 97.1745 65.9265 97.1745 62.6079V50.3742C97.1745 47.1902 97.7511 46.1126 98.7694 45.1696C99.2478 44.7165 99.7876 44.3246 100.376 44.0062C100.548 43.9328 100.695 43.8593 100.683 43.7613C100.646 43.5409 100.119 43.7368 100.119 43.7368ZM72.6138 64.8244L69.6572 66.2449C69.007 65.951 66.6392 64.8611 65.2284 64.3958C67.6575 63.6121 70.2951 63.7713 72.6138 64.8244ZM68.7494 69.8698C68.1605 69.5881 66.8969 69.037 65.4738 68.4737L68.7003 66.9552L71.8654 68.4002L68.7494 69.8698ZM72.1599 68.5472C72.1599 68.5472 75.141 69.8208 75.8894 70.0902C74.8957 70.5555 73.8283 71.0943 72.761 71.6087C71.0312 70.9352 69.7431 70.2984 69.0806 69.98L72.1599 68.5472ZM68.3936 66.8327C67.2036 67.3961 66.0013 67.9594 65.1425 68.3512C63.7685 67.8002 62.2718 67.2491 61.1063 66.8817C61.8669 66.0245 62.8239 65.351 63.8789 64.9101C66.2344 65.7551 67.9397 66.6246 68.3936 66.8327ZM63.6826 68.9758C62.3699 69.5269 60.9836 69.8942 59.5605 70.0657C59.671 69.2575 59.9531 68.4737 60.3948 67.7879C61.413 68.1063 62.4681 68.4982 63.6826 68.9758ZM63.2655 64.7019C62.3209 65.253 61.4621 65.951 60.7383 66.7838C59.1802 66.3552 57.5731 66.1837 55.9537 66.2694C57.8062 63.0977 62.2841 64.3468 63.2655 64.7019ZM55.7329 66.9797C57.2296 67.0409 58.714 67.2981 60.1494 67.7389C59.7078 68.4492 59.4133 69.2452 59.3152 70.0902C57.8062 70.3229 55.4262 69.5146 55.7329 67.0042V66.9797ZM51.9666 70.0167C51.9666 67.69 54.6533 67.0899 55.4507 67.0287C55.1931 69.6126 57.4014 70.5433 59.2538 70.3596C59.1802 71.4005 59.4992 72.4292 60.1617 73.2496C54.9723 74.4865 51.9911 73.0047 51.9911 69.9922L51.9666 70.0167ZM59.4992 70.3351C61.045 70.1514 62.554 69.7473 63.9893 69.1227C64.3696 69.2819 66.5779 70.2126 67.3263 70.531C65.1057 71.5964 62.8116 72.4781 60.4439 73.1517C60.1126 72.7598 59.855 72.3067 59.6955 71.8169C59.536 71.327 59.4869 70.8127 59.5483 70.2984L59.4992 70.3351ZM60.6156 73.3721C63.0202 72.6863 65.3756 71.7801 67.6207 70.6657L71.4238 72.3067C71.4238 72.3067 69.5958 73.2374 68.8966 73.568C68.5163 73.1149 68.0133 72.772 67.4612 72.5761C66.8969 72.3802 66.2957 72.3434 65.7191 72.4659C65.1425 72.5884 64.6027 72.87 64.1734 73.2619C63.744 73.666 63.4127 74.1803 63.2532 74.7437C62.2718 74.5355 61.3762 74.0456 60.6647 73.3476L60.6156 73.3721ZM68.3936 73.8007C67.9151 74.0211 65.7805 75.2457 63.5109 74.8049C63.9157 73.2374 66.6515 72.0618 68.4304 73.7885L68.3936 73.8007ZM69.5836 79.9849C64.2592 79.9849 63.0202 76.9479 63.4373 75.0376C65.6946 75.4907 67.9642 74.2783 68.5531 73.9844C69.191 74.7926 68.9702 75.8458 68.32 75.8948C68.0378 75.8948 67.9887 75.7723 67.9642 75.6499C67.9642 75.6499 67.8906 75.2702 67.5716 75.4662C67.2526 75.6499 67.5716 76.1152 68.1605 76.1152C69.2891 76.1152 69.5958 74.5967 69.0438 73.764L71.7428 72.4169C73.6321 73.2496 75.5827 73.9232 77.5824 74.4253C77.0303 76.0907 75.963 77.5357 74.5276 78.5277C73.0923 79.5318 71.3747 80.0339 69.6327 79.9604L69.5836 79.9849ZM77.7909 73.2619C76.1715 72.87 74.5644 72.3802 73.0064 71.7801C74.086 71.2291 75.1656 70.6902 76.1593 70.2616C76.6377 70.4331 77.1285 70.5923 77.6069 70.7147C77.8277 71.5352 77.9014 72.3924 77.8277 73.2374L77.7909 73.2619ZM78.2694 69.3187C79.8152 68.6819 81.4836 68.4125 83.1521 68.5104C82.9926 69.0003 82.4774 70.6412 78.4289 69.833C78.4166 69.6493 78.3675 69.4656 78.3062 69.3064L78.2694 69.3187ZM85.7161 70.8372C85.7161 72.5394 84.1458 74.4008 78.5638 73.4456C78.7233 72.6129 78.7478 71.7556 78.6374 70.9229C82.2811 71.4985 83.3729 69.2452 83.4465 68.5717C84.4034 68.6941 85.7529 69.5514 85.7529 70.8127L85.7161 70.8372ZM83.1889 68.2655C81.4959 68.1186 79.7906 68.4002 78.2203 69.0493C77.8523 68.0818 77.3002 67.2124 76.6009 66.4654C82.2075 64.4938 83.5079 67.0164 83.238 68.2533L83.1889 68.2655ZM77.1653 69.5024C75.8771 69.0615 74.6258 68.5594 73.399 67.9839L75.4355 67.0164C76.147 67.7512 76.7482 68.5717 77.2143 69.4779L77.1653 69.5024ZM75.3128 66.7838L73.7057 67.543L73.1536 67.8002L69.9516 66.3674L72.8837 64.9714C73.7793 65.4367 74.6012 66.049 75.3128 66.7838Z" fill="#FFA102"/>
<path d="M88.8438 32.2869C88.8928 32.2869 88.8438 32.3604 88.8438 32.3726C88.8438 32.3849 88.8438 32.3114 88.8438 32.2869ZM89.0033 32.2869C88.991 32.2746 88.9665 32.2746 88.9542 32.2746C88.9419 32.2746 88.9174 32.2746 88.9051 32.2869C88.9051 32.3849 89.0401 32.3604 89.0033 32.2869ZM89.2486 32.6298C89.31 32.6298 89.2977 32.544 89.2486 32.5685C89.1996 32.593 89.2486 32.6053 89.2486 32.6298ZM89.494 32.6298H89.5308C89.5308 32.5808 89.4572 32.5808 89.4694 32.6298H89.494ZM89.3713 32.6665V32.6298H89.3345C89.3345 32.6298 89.3345 32.6298 89.3345 32.6665H89.3713ZM89.9724 32.6665H89.9356C89.9356 32.6665 89.9356 32.6665 89.9356 32.7032H89.9724V32.6665ZM90.0706 32.6665C90.0706 32.6788 90.0706 32.691 90.0706 32.7032H90.1074C90.1074 32.7155 90.1074 32.6665 90.0706 32.6665ZM90.1442 32.7522C90.1442 32.7522 90.1442 32.7522 90.1442 32.789H90.2178C90.2178 32.789 90.2178 32.789 90.2178 32.7522H90.1442ZM90.046 32.8502V32.9237H90.1074C90.1074 32.8747 90.1074 32.8502 90.046 32.8502ZM90.181 32.8502C90.181 32.8502 90.181 32.8502 90.181 32.9114H90.2178C90.2178 32.9114 90.2178 32.8624 90.2178 32.8502H90.181ZM93.8246 33.0951C93.8737 33.0951 93.9105 32.9849 93.8246 32.9604C93.751 32.9359 93.7878 33.0216 93.8246 33.0951ZM90.8925 33.2053C90.8925 33.2053 90.8925 33.2053 90.8925 33.2421V33.2053ZM91.3097 33.3768C91.4078 33.3768 91.4201 33.3278 91.4937 33.3278C91.4323 33.2788 91.4078 33.2176 91.3219 33.1931C91.2483 33.1686 91.371 33.2421 91.371 33.3033C91.371 33.3645 91.371 33.2543 91.2851 33.3033C91.1992 33.3523 91.3219 33.34 91.2851 33.4013L91.3097 33.3768ZM91.1379 33.3768H91.1747C91.1747 33.3645 91.1747 33.3523 91.1747 33.3278H91.1379C91.1379 33.3278 91.1379 33.3278 91.1379 33.3768ZM90.7576 33.5727H90.8067V33.536H90.7576V33.5727ZM91.0643 33.5727H91.1011C91.1011 33.5727 91.1011 33.5727 91.1011 33.5237H91.0643V33.5727ZM91.2851 33.5727C91.2729 33.6094 91.2729 33.6339 91.2851 33.6707C91.3465 33.6707 91.3587 33.5482 91.2851 33.5727ZM86.9299 33.7809C86.8931 33.8911 87.0526 33.9646 87.1385 34.0136C87.1753 33.8911 86.979 33.8666 86.9299 33.7809ZM91.4569 33.6584C91.4569 33.6584 91.4569 33.6584 91.4569 33.6217H91.4201V33.6584H91.4569ZM91.9108 33.6584C91.8495 33.6584 91.7881 33.6584 91.7758 33.7197C91.7636 33.7809 91.9231 33.7197 91.9108 33.6584ZM91.6164 33.6584C91.5673 33.6584 91.506 33.6584 91.4814 33.6584C91.4569 33.6584 91.6409 33.6584 91.6164 33.6584ZM91.9353 33.6584V33.7319C91.9353 33.7319 91.9844 33.6339 91.9353 33.6584ZM92.3156 33.7442C92.3156 33.7442 92.3156 33.7442 92.2788 33.7931C92.242 33.8421 92.3279 33.7931 92.3279 33.8666C92.3279 33.9401 92.1562 33.9034 92.1807 34.0136C92.3034 33.9523 92.4751 33.8789 92.3156 33.7442ZM87.1753 34.0136C87.1753 34.0993 87.2244 34.1605 87.298 34.1728C87.298 34.136 87.2857 34.0993 87.2612 34.0748C87.2367 34.0381 87.2121 34.0136 87.1753 34.0136ZM87.482 34.0136C87.482 34.0993 87.5311 34.1605 87.6047 34.1728C87.6047 34.136 87.5924 34.0993 87.5802 34.0748C87.5556 34.0381 87.5188 34.0136 87.482 34.0136ZM97.8854 33.6584C97.8854 33.6584 97.8854 33.6584 97.8854 33.7197C97.8854 33.7809 97.9344 33.7197 97.9222 33.6339C97.9099 33.5482 97.8608 33.6339 97.8608 33.6339L97.8854 33.6584ZM91.9108 33.8666V33.9401C91.9108 33.9401 91.9599 33.8421 91.9108 33.8666ZM92.058 33.9401C92.0089 33.9401 91.9967 33.9401 92.0089 34.0258C92.0089 34.1115 92.0703 34.0258 92.058 33.9401ZM94.4258 34.0013C94.4748 34.0013 94.5362 34.0013 94.5607 33.9278C94.5852 33.8666 94.389 33.8911 94.4258 34.0013ZM97.9467 33.9156C97.9467 33.9768 97.9467 34.0258 98.0326 34.0136C98.1062 34.0013 98.0326 33.9034 97.9467 33.9156ZM92.1439 34.2217C92.193 34.2217 92.193 34.1728 92.2052 34.136H92.1439C92.1439 34.1728 92.1439 34.1973 92.1439 34.2217ZM92.4751 34.2217C92.4751 34.2217 92.4751 34.185 92.4751 34.136C92.4629 34.136 92.4629 34.136 92.4506 34.136C92.4383 34.136 92.4383 34.136 92.4261 34.1483C92.4138 34.1483 92.4138 34.1605 92.4138 34.1605C92.4138 34.1728 92.4138 34.1728 92.4138 34.185C92.4138 34.1973 92.4138 34.1973 92.4138 34.2095C92.4138 34.2217 92.4261 34.2217 92.4261 34.2217C92.4383 34.2217 92.4383 34.234 92.4506 34.234C92.4629 34.234 92.4751 34.234 92.4751 34.2217ZM92.9168 34.2217C92.9168 34.185 92.9168 34.1728 92.9781 34.136C93.0395 34.1115 92.8432 34.2095 92.9168 34.2217ZM92.7082 34.1728C92.6714 34.1728 92.6592 34.1728 92.6224 34.1728C92.6101 34.1973 92.6101 34.2217 92.6224 34.2462C92.6837 34.2462 92.6837 34.1973 92.6714 34.1483L92.7082 34.1728ZM92.7941 34.2707C92.7941 34.2707 92.7941 34.2217 92.7941 34.185C92.7941 34.1605 92.7082 34.283 92.7941 34.2707ZM98.1675 34.185C98.1675 34.1483 98.1675 34.0748 98.0939 34.0503C98.0203 34.0258 98.0448 34.0503 98.0326 34.087C98.0203 34.1238 98.1185 34.2095 98.1675 34.185ZM93.2971 34.332C93.2971 34.332 93.2971 34.332 93.2971 34.3687C93.2971 34.4054 93.3462 34.2952 93.2971 34.3075C93.248 34.3197 93.2971 34.3075 93.2971 34.3075V34.332ZM98.0571 34.3075C98.0571 34.3075 98.0571 34.3932 98.143 34.3932C98.2166 34.3932 98.1062 34.234 98.0571 34.3075ZM93.4075 34.5891H93.4811C93.4811 34.5646 93.4688 34.5524 93.4566 34.5279C93.4443 34.5157 93.432 34.4912 93.4075 34.4912C93.4075 34.5157 93.4075 34.5524 93.4075 34.5891ZM98.2411 34.3687H98.1798C98.1798 34.4177 98.1798 34.4789 98.2289 34.4789C98.2779 34.4789 98.2289 34.3932 98.2289 34.3565L98.2411 34.3687ZM93.6161 34.6381C93.6161 34.6381 93.6897 34.7116 93.7142 34.6381C93.7387 34.5646 93.6406 34.5646 93.6161 34.6381ZM98.3638 34.6381C98.4006 34.5891 98.3638 34.4912 98.3025 34.5034C98.2411 34.5034 98.3025 34.6259 98.3638 34.6381ZM99.8605 34.4667C99.8605 34.5401 99.7747 34.4667 99.7624 34.5279C99.7501 34.5891 99.7624 34.5279 99.7624 34.5646C99.7624 34.6014 99.836 34.5279 99.8973 34.5646C99.9709 34.6014 99.8973 34.4789 99.836 34.4912L99.8605 34.4667ZM99.8483 34.6626C99.8483 34.7483 99.9341 34.7851 99.8973 34.8585C99.9219 34.8708 99.9464 34.8708 99.9709 34.8585C99.9709 34.7851 99.9709 34.7973 99.9709 34.7238C99.9709 34.6504 99.9096 34.6259 99.8483 34.7238V34.6626ZM98.2779 34.8096C98.2779 34.8096 98.2043 34.9198 98.2779 34.9075C98.3393 34.8953 98.3147 34.8218 98.2779 34.8096ZM98.5969 34.8096C98.5969 34.9198 98.5478 34.8096 98.4988 34.8585C98.4497 34.9075 98.6092 34.9075 98.6583 34.8585C98.7073 34.8096 98.6583 34.7851 98.5846 34.7973L98.5969 34.8096ZM98.3516 34.834C98.3147 34.883 98.3516 34.9443 98.4252 34.932C98.4865 34.932 98.3761 34.8708 98.3516 34.834ZM99.7501 34.7851C99.7501 34.834 99.7501 34.8708 99.8115 34.8585C99.8605 34.8463 99.8115 34.7728 99.7501 34.7851ZM98.7932 35.03V35.1035H98.8545C98.8545 35.0545 98.8545 35.0422 98.7932 35.03ZM98.4742 35.03C98.4742 35.0422 98.4742 35.0545 98.4865 35.0667C98.4865 35.079 98.4988 35.0912 98.4988 35.0912C98.511 35.1035 98.511 35.1035 98.5233 35.1035C98.5356 35.1035 98.5478 35.1035 98.5601 35.1035C98.5601 35.0912 98.5601 35.079 98.5478 35.0667C98.5478 35.0545 98.5356 35.0422 98.5356 35.0422C98.5356 35.0422 98.5233 35.03 98.511 35.03C98.4865 35.03 98.4865 35.0177 98.4742 35.03ZM99.7256 34.981C99.7256 35.03 99.7256 35.079 99.7747 35.079C99.8237 35.079 99.7624 34.9688 99.7256 34.981ZM98.965 35.0422C98.965 35.1157 98.965 35.1647 99.0263 35.1769C99.0876 35.2014 99.0263 35.0422 98.965 35.0422ZM93.8001 36.1321C93.8001 36.1321 93.8001 36.0831 93.8001 36.0709C93.8001 36.0586 93.8001 36.1199 93.8001 36.1321ZM100.057 33.7442C99.9832 33.8299 99.9587 33.9768 99.8851 34.0748C99.8115 34.1605 99.9955 34.1483 99.9709 34.2707C99.9219 34.2707 99.9219 34.2095 99.8851 34.1973C99.8605 34.2217 99.836 34.2585 99.8237 34.2952C99.8115 34.332 99.8115 34.3687 99.836 34.4054C99.6642 34.4054 99.7256 34.6014 99.7256 34.7116C99.7133 34.7116 99.7133 34.7116 99.701 34.6993L99.6888 34.6871C99.6888 34.6871 99.6765 34.6748 99.6765 34.6626C99.6765 34.6504 99.6765 34.6504 99.6765 34.6381C99.6642 34.6381 99.6397 34.6504 99.6397 34.6504C99.6274 34.6626 99.6274 34.6748 99.6274 34.6993C99.6274 34.7238 99.6397 34.7361 99.6397 34.7483C99.652 34.7606 99.6642 34.7606 99.6765 34.7606C99.4925 34.9688 99.517 35.3729 99.2471 35.4831C99.2471 35.4341 99.2471 35.4219 99.2471 35.3851C99.2349 35.3484 99.2471 35.3116 99.2594 35.2749C99.1367 35.2749 99.1367 35.1157 99.1122 34.9932C99.0263 35.079 98.9404 34.9932 98.8545 34.9198C98.7687 34.8463 98.7809 34.7728 98.7441 34.6871C98.7441 34.7483 98.8055 34.7973 98.7441 34.8708C98.6828 34.9443 98.6705 34.7238 98.6215 34.6014C98.5724 34.4789 98.5356 34.5524 98.5478 34.4667C98.5601 34.3809 98.6214 34.4667 98.646 34.5034C98.6705 34.5401 98.5969 34.4667 98.5969 34.4054C98.6092 34.3442 98.5356 34.4422 98.4742 34.4054C98.4129 34.3687 98.5233 34.5891 98.4742 34.6259C98.4006 34.5646 98.3393 34.4789 98.327 34.3932H98.4129C98.4006 34.3565 98.4006 34.332 98.4129 34.2952C98.3516 34.185 98.327 34.0503 98.3393 33.9156C98.2657 33.9891 98.3393 34.087 98.2902 34.1973C98.2166 34.1605 98.143 34.0626 98.2166 33.9768C98.2902 33.8911 98.1307 33.9768 98.1185 33.9768C98.1062 33.9768 98.0571 33.8911 98.0326 33.8789C98.0939 33.8666 98.1553 33.8421 98.1921 33.7931C98.1921 33.7442 98.143 33.6584 98.1921 33.6707C98.2411 33.6829 98.143 33.6707 98.143 33.5972C98.1553 33.5237 98.0203 33.5972 98.0203 33.4747C98.0571 33.4625 98.0817 33.4625 98.1185 33.4747C98.1185 33.4258 98.0939 33.389 98.0694 33.3523C98.0449 33.3155 98.008 33.2911 97.9712 33.2666C98.0571 33.4135 97.9712 33.4747 97.9712 33.6462C97.7504 33.6462 97.9222 33.4013 97.8608 33.4258C97.8608 33.2788 97.9467 33.1808 97.8608 33.0461C97.8118 33.0461 97.8608 33.1319 97.8608 33.1686C97.7259 33.1686 97.8118 32.9971 97.6891 32.9604C97.6891 32.9237 97.7627 32.9604 97.7872 32.9604C97.8118 32.9604 97.7013 32.8992 97.6645 32.8624C97.6155 32.9237 97.5787 32.9971 97.5541 33.0706C97.5541 33.1196 97.6645 33.0706 97.64 33.1686C97.6155 33.2666 97.7136 33.1686 97.7627 33.1686C97.7872 33.2053 97.7995 33.2421 97.8118 33.2911C97.7627 33.2911 97.7136 33.3645 97.6523 33.2911C97.6523 33.389 97.6523 33.438 97.7259 33.487C97.6891 33.5605 97.6768 33.6462 97.7013 33.7319C97.7259 33.8176 97.7749 33.8789 97.8486 33.9278C97.8363 33.9523 97.8363 33.9768 97.8486 34.0013C97.7749 34.0013 97.8486 33.9278 97.7627 34.0013C97.8976 34.0013 97.7627 34.2095 97.8854 34.234C98.008 34.2585 97.8363 34.234 97.8486 34.234C97.8363 34.4054 97.8731 34.5769 97.959 34.7238C97.9467 34.8585 97.9467 35.0055 97.959 35.1402C97.959 35.1892 98.0448 35.1892 98.0448 35.2504C98.0448 35.3239 98.0448 35.3361 97.9835 35.3484C97.8118 35.2382 97.7259 35.03 97.5541 34.9198C97.5541 34.8708 97.5051 34.8585 97.5541 34.8585C97.5051 34.8218 97.4682 34.7973 97.4069 34.7851L97.456 34.7361C97.456 34.6871 97.4069 34.7361 97.3824 34.7361C97.2106 34.3809 96.953 34.087 96.634 33.8666C96.634 33.8176 96.6708 33.8176 96.6708 33.7809H96.5972C96.5604 33.5482 96.3764 33.487 96.2537 33.3278C96.2414 33.34 96.2292 33.3645 96.2169 33.389C96.1065 33.3033 96.0697 33.1196 95.947 33.0339C95.9102 33.1074 96.0451 33.1563 96.0206 33.2788C95.8857 33.2788 95.947 33.0339 95.7507 33.0706C95.8121 33.2543 95.8979 33.4258 96.0083 33.585C96.0083 33.585 95.9715 33.585 95.9715 33.6339C96.082 33.7686 96.1678 33.9278 96.2046 34.0993C96.3641 34.1605 96.3887 34.5401 96.5481 34.6626C96.4255 34.6626 96.4377 34.4789 96.3028 34.5524C96.3028 34.5034 96.3028 34.5034 96.2537 34.4544C96.082 34.4544 96.082 34.3197 95.9715 34.283C95.8611 34.2462 95.9715 34.332 95.9102 34.332C95.8489 34.283 95.7752 34.234 95.7016 34.1973C95.7016 34.1115 95.7507 34.1973 95.7998 34.1973C95.8489 34.1973 95.7384 34.1238 95.6894 34.0993C95.6894 34.185 95.579 34.0993 95.4931 34.0993C95.4931 33.9891 95.3213 33.9523 95.2109 33.9278C95.0882 33.9034 95.0392 33.8299 94.9656 33.7809C94.8797 33.7319 94.9656 33.7809 94.9656 33.7442C94.9656 33.7074 94.7938 33.6707 94.7447 33.6339C94.6834 33.585 94.7447 33.6339 94.7447 33.5972C94.7447 33.5605 94.5362 33.5482 94.4748 33.4503C94.4258 33.34 94.4748 33.4503 94.5116 33.4503C94.4503 33.3155 94.389 33.4503 94.3153 33.4503C94.2417 33.4503 94.2417 33.34 94.2049 33.2788C94.1804 33.2053 94.1559 33.3278 94.2049 33.389C94.254 33.438 94.1559 33.389 94.1313 33.438C94.1068 33.487 94.0823 33.3523 94.1313 33.3155C94.1804 33.2911 94.1313 33.389 94.0332 33.3645C93.935 33.34 94.0332 33.4135 94.0332 33.438C94.0332 33.4625 94.0332 33.2543 93.9228 33.2421C93.8124 33.2298 93.9228 33.3278 93.9228 33.389C93.9228 33.438 93.886 33.389 93.8614 33.389C93.8369 33.389 93.8614 33.4992 93.8001 33.4747C93.8737 33.4747 93.886 33.4747 93.8737 33.585C93.8737 33.536 94.0209 33.5115 93.9718 33.4747C93.9228 33.438 94.0454 33.4747 94.07 33.4747C94.0945 33.4747 93.9964 33.4747 93.9718 33.4747C93.9473 33.4747 94.0455 33.6829 94.1559 33.6829C94.1068 33.8299 94.2663 33.9278 94.3031 34.0503C94.3031 34.0503 94.3031 34.0503 94.2417 34.0503C94.2908 34.1605 94.4258 34.185 94.4503 34.3197C94.6834 34.3932 94.7447 34.6381 94.9288 34.7728C94.9288 34.8463 94.9288 34.8585 94.9288 34.9075C94.9778 34.9565 95.0269 34.9932 95.1005 35.0177C94.9778 35.0912 95.2109 35.2137 95.3213 35.2137C95.3213 35.3851 95.4685 35.3484 95.5299 35.4219C95.579 35.4953 95.5299 35.5321 95.5299 35.5443C95.6035 35.5443 95.7998 35.7035 95.7753 35.8382C95.4563 35.6178 95.125 35.4219 94.7938 35.2137C94.7938 35.1524 94.7938 35.0545 94.757 35.0545C94.7202 35.0545 94.8061 35.1647 94.757 35.1892C94.7079 35.2137 94.7079 35.1157 94.6711 35.0912C94.4626 35.0912 94.4871 34.883 94.2663 34.9075C94.2663 34.8218 94.2663 34.8585 94.1804 34.9075V34.8463C94.1436 34.8463 94.0823 34.8463 94.0577 34.7483C94.0332 34.6504 93.8124 34.6993 93.8369 34.6381C93.8492 34.5769 93.751 34.7238 93.6529 34.7238C93.567 34.7238 93.6529 34.6136 93.6529 34.5646C93.6529 34.5156 93.6038 34.6259 93.6038 34.6748C93.5915 34.6748 93.5793 34.6748 93.567 34.6626C93.5547 34.6504 93.5425 34.6504 93.5302 34.6381C93.5179 34.6259 93.5179 34.6136 93.5057 34.6014C93.5057 34.5891 93.4934 34.5769 93.5057 34.5524C93.4443 34.5524 93.4566 34.6136 93.4566 34.6748C93.4566 34.7361 93.4075 34.3687 93.248 34.3809C93.3584 34.2952 93.0149 34.185 92.9045 34.2095C92.9904 34.1605 92.8554 34.2095 92.8309 34.1115C92.8186 34.0136 92.8309 34.2217 92.8309 34.234C92.8309 34.2462 92.8309 34.0258 92.7205 34.0625C92.6101 34.087 92.7205 34.1728 92.7205 34.2217C92.7205 34.2707 92.6101 34.1728 92.5978 34.1238C92.5855 34.0748 92.5119 34.1605 92.4629 34.1728C92.4138 34.185 92.4261 34.0993 92.3156 34.0993C92.2052 34.087 92.3156 34.0136 92.2666 34.0013C92.2175 33.9891 92.3279 33.9156 92.377 33.8911C92.4261 33.8789 92.3279 33.8176 92.2911 33.7931C92.2666 33.7686 92.3402 33.9034 92.2911 33.9401C92.242 33.9034 92.2175 33.8544 92.2052 33.8054C92.0948 33.8054 91.9353 33.9523 91.8249 33.8544C91.8249 33.8054 91.8985 33.8054 91.9231 33.7686C91.9476 33.7442 91.8617 33.7197 91.874 33.6584C91.739 33.6584 91.6286 33.5972 91.6041 33.4625C91.5182 33.536 91.4323 33.5972 91.3465 33.6584C91.3465 33.5237 91.2361 33.6584 91.1747 33.6584C91.1134 33.6584 91.2851 33.5237 91.3342 33.585C91.3833 33.6462 91.3833 33.487 91.3833 33.4625C91.3955 33.438 91.3833 33.5115 91.4323 33.536C91.4814 33.5605 91.4814 33.4992 91.506 33.4747C91.5305 33.4503 91.3465 33.4747 91.3219 33.3645C91.3097 33.3768 91.2851 33.4013 91.2851 33.4258C91.2361 33.4258 91.2361 33.3523 91.2851 33.3278C91.3342 33.3033 91.1011 33.389 91.0398 33.3278C90.9907 33.2666 91.0398 33.4013 91.0398 33.438H90.9539C90.9539 33.3523 90.9539 33.2911 91.052 33.2911C91.0275 33.2543 90.9907 33.2176 90.9416 33.1931C90.868 33.1931 90.9416 33.2543 90.868 33.2421C90.7944 33.2298 90.7576 33.1808 90.7576 33.0829C90.7576 33.0829 90.6104 33.0829 90.5858 33.1319C90.4632 33.0461 90.3282 32.9604 90.181 32.8869C90.181 32.8869 90.181 32.8869 90.181 32.9482C90.1074 32.9114 90.046 32.8624 89.9724 32.8135C89.8988 32.9237 89.8252 32.7032 89.6903 32.8135C89.7025 32.8012 89.7025 32.7767 89.7025 32.7645C89.7025 32.7522 89.7025 32.7277 89.6903 32.7155C89.6167 32.7155 89.6044 32.7155 89.5553 32.7155C89.5063 32.7155 89.4817 32.6665 89.494 32.593C89.3468 32.642 89.2854 32.5073 89.2118 32.544C88.9051 32.3848 88.5861 32.2746 88.2426 32.2134C88.2304 32.1889 88.2058 32.1644 88.1813 32.1522C88.1568 32.1399 88.1322 32.1277 88.0954 32.1154C88.0709 32.1154 88.0341 32.1154 88.0095 32.1154C87.985 32.1277 87.9605 32.1399 87.9359 32.1522C87.9359 32.1522 87.9359 32.1522 87.9973 32.1522C88.0586 32.1522 87.9973 32.1522 87.9114 32.1522C87.985 32.2501 88.1568 32.2501 88.2181 32.3604C88.2794 32.4706 88.2181 32.2746 88.2672 32.2991C88.3162 32.3236 88.3653 32.3726 88.3899 32.4338V32.3971C88.3899 32.3481 88.4512 32.4338 88.4512 32.4706C88.5739 32.4706 88.6966 32.5318 88.7211 32.6665C88.9174 32.6665 88.9419 32.8012 89.0769 32.8135C89.0769 32.8135 89.0769 32.8135 89.0155 32.8135C88.9542 32.8135 89.0891 32.8747 89.1627 32.8624C89.2364 32.8502 89.2486 32.9114 89.31 32.9359C89.359 32.9604 89.3713 33.0094 89.4204 33.0339C89.4694 33.0584 89.4204 32.9849 89.4817 32.9849C89.5431 32.9971 89.5921 33.0951 89.6657 33.1196C89.7516 33.1441 89.6657 33.1931 89.7393 33.2543C89.9847 33.2053 89.9724 33.4503 90.1442 33.487C90.1442 33.4992 90.1319 33.5115 90.1197 33.5237C90.1074 33.536 90.0951 33.536 90.0829 33.536C90.0829 33.536 90.2055 33.536 90.2423 33.536C90.2791 33.536 90.365 33.7197 90.4632 33.6707C90.4632 33.7442 90.4632 33.7564 90.5245 33.7319V33.8299C90.6104 33.8299 90.6595 33.8299 90.6717 33.9034C90.684 33.9768 90.5981 33.9034 90.6104 33.9891C90.6226 34.0748 90.684 33.8911 90.6963 33.9401C90.8312 34.0258 90.9784 34.0993 91.1256 34.1728C91.1379 34.1973 91.1379 34.2217 91.1256 34.2462C91.2238 34.2707 91.3097 34.3075 91.3833 34.3687C91.4569 34.4299 91.5305 34.5034 91.5673 34.5891H91.69C91.7759 34.6504 91.7636 34.8096 91.9108 34.7973C91.9108 34.7973 91.9108 34.7973 91.9108 34.8585C92.0335 34.8585 92.0212 34.9443 92.0948 35.0177C92.1684 35.0912 92.242 35.0912 92.3034 35.1279C92.3525 35.1769 92.3034 35.1769 92.3034 35.2137C92.3034 35.2382 92.377 35.2137 92.377 35.2137C92.3893 35.2137 92.377 35.2994 92.4874 35.2871C92.5978 35.2749 92.5978 35.3974 92.6346 35.4953C92.88 35.728 93.1499 35.9362 93.432 36.1199C93.432 36.2913 93.5915 36.2423 93.6038 36.377C93.6161 36.4015 93.6283 36.4138 93.6406 36.426C93.6529 36.4383 93.6774 36.4383 93.7019 36.4383C93.6529 36.6464 93.8982 36.5485 93.9105 36.6954C93.7633 36.6954 93.7019 36.6097 93.6038 36.5607C93.6774 36.5117 93.5302 36.4015 93.4198 36.426C93.4688 36.2913 93.3584 36.2791 93.3339 36.1933C93.3094 36.1076 93.3339 36.2791 93.3339 36.2913C93.2235 36.3403 93.2235 36.1199 93.064 36.1566C93.064 36.0954 93.064 36.0954 93.064 36.0586C93.0149 36.0709 92.9536 36.0709 92.9045 36.0586C92.8677 35.9852 92.7818 35.9729 92.6837 35.9484C92.5855 35.9239 92.5119 35.8015 92.4261 35.7402C92.3402 35.679 92.5365 35.7402 92.5487 35.6913C92.561 35.6423 92.377 35.6913 92.3279 35.6178C92.3156 35.6423 92.3034 35.6668 92.2788 35.679C92.2543 35.6913 92.2298 35.7035 92.193 35.6913C92.193 35.6913 92.193 35.6913 92.193 35.6545C92.193 35.6178 92.193 35.5688 92.2543 35.5688C92.3156 35.5688 92.2543 35.5688 92.2052 35.5076C92.1316 35.5933 92.058 35.4341 91.9721 35.5076C91.8863 35.5811 91.9721 35.4219 91.8617 35.4341C91.7513 35.4463 91.9108 35.4341 91.9599 35.4341C91.8985 35.2382 91.555 35.4831 91.5918 35.1892C91.5182 35.1892 91.5918 35.2994 91.4937 35.2749C91.3955 35.2504 91.4937 35.2382 91.4937 35.2014C91.3833 35.3116 91.3342 35.1157 91.2115 35.2014C91.2115 35.1402 91.1502 35.1647 91.1624 35.1035C90.868 35.1035 90.7944 34.8096 90.4877 34.7851C90.4877 34.7483 90.4264 34.7851 90.4509 34.6871H90.3282C90.3282 34.5524 90.1319 34.6871 90.1442 34.5157C89.997 34.6381 89.8988 34.3687 89.7025 34.4054C89.7025 34.3197 89.5921 34.332 89.5799 34.2585C89.4326 34.3075 89.3836 34.1728 89.1995 34.1728V34.087C88.991 34.087 88.9787 33.9646 88.7947 33.9768C88.7947 34.1238 88.9665 34.1483 89.0401 34.2462C89.0401 34.3197 89.0646 34.3932 89.1137 34.4544C89.1505 34.5157 89.2118 34.5646 89.2732 34.6014C89.2732 34.6748 89.2732 34.6871 89.2732 34.7483C89.2732 34.8096 89.4204 34.8463 89.3958 34.981C89.3836 35.1157 89.4449 34.981 89.3958 34.9443C89.4817 35.0422 89.5553 35.1524 89.6044 35.2749C89.4694 35.2014 89.3836 35.0912 89.1873 35.0912C89.1873 35.0912 89.1873 35.0912 89.1873 35.03C89.1873 34.9688 89.1259 35.03 89.1014 35.03C89.0401 34.9075 88.8315 34.9443 88.7824 34.8218C88.7824 34.8218 88.7334 34.8218 88.6966 34.8218C88.6598 34.8218 88.488 34.7483 88.488 34.6136C88.488 34.6136 88.488 34.6626 88.4267 34.6626C88.3653 34.6626 88.3776 34.6136 88.3653 34.5891C88.3162 34.6748 88.2426 34.4912 88.12 34.5891C88.1322 34.5524 88.1322 34.5279 88.12 34.4912C88.12 34.4912 88.0832 34.4912 88.0463 34.4912C87.9973 34.3565 87.801 34.3809 87.7642 34.2462C87.6047 34.2462 87.617 34.1973 87.482 34.2462C87.482 34.1973 87.3103 34.0993 87.4084 34.0503C87.298 33.9768 87.1876 33.9278 87.0649 33.9034C87.0649 33.9034 87.0649 33.9523 87.0649 33.9891C86.8809 33.9891 86.9545 33.7564 86.7582 33.7197V33.6829H86.7091C86.4024 33.6094 86.108 33.5237 85.8013 33.4747C85.0652 33.0829 84.2187 32.9482 83.409 33.0829C83.1514 33.0829 82.906 33.0951 82.6607 33.1319C82.2067 33.2053 81.7651 33.3768 81.3848 33.6217C81.4461 33.4992 81.4952 33.3645 81.4952 33.2298C81.4584 32.9237 81.6792 32.7032 81.7405 32.4216C81.7405 32.3971 81.7405 32.3726 81.7405 32.3481H81.8019C81.8019 32.2624 81.851 32.2746 81.8878 32.2501L81.9982 32.1154C82.0472 31.9807 82.1945 31.9073 82.2803 31.8093C82.3049 31.8215 82.3294 31.8338 82.3539 31.8338C82.3785 31.8338 82.403 31.8215 82.4276 31.8093C82.4276 31.7481 82.3908 31.8093 82.3539 31.8093C82.3171 31.8093 82.4766 31.7481 82.5257 31.6378C82.6975 31.6378 82.8447 31.5031 83.0164 31.5154C83.1882 31.5276 83.3231 31.4052 83.4703 31.4052C83.4826 31.4052 83.4949 31.3929 83.4949 31.3807C83.4949 31.3684 83.5072 31.3562 83.5072 31.3439H83.5808C83.5808 31.2827 83.6544 31.2705 83.6912 31.2337C83.728 31.197 83.7402 31.3072 83.8139 31.295C83.8875 31.2827 83.7157 31.295 83.6912 31.295C83.6666 31.295 83.6912 31.3929 83.593 31.4052C83.6421 31.4786 83.7034 31.5399 83.777 31.5766C83.777 31.5154 83.728 31.5154 83.728 31.4664C83.7648 31.4542 83.7893 31.4542 83.8261 31.4664C83.8261 31.4052 83.7525 31.4174 83.8261 31.3684C83.9488 31.3684 84.0592 31.3684 84.1819 31.3684C84.1819 31.295 84.0715 31.3684 84.096 31.2582C84.1206 31.148 83.9611 31.2582 83.9365 31.2582C83.912 31.2582 83.9365 31.3684 83.8384 31.3439C83.8384 31.3439 83.8875 31.2827 83.8384 31.2215C84.0592 31.1113 84.096 31.3929 84.2555 31.3439C84.2555 31.2705 84.1451 31.3439 84.1696 31.2337C84.1942 31.246 84.2064 31.246 84.231 31.2337C84.1819 31.1725 84.1819 31.1725 84.231 31.2337C84.28 31.295 84.1819 31.2337 84.231 31.148C84.28 31.0623 84.1942 31.148 84.1574 31.148L84.2187 31.0868C84.1696 31.0868 84.1451 31.0011 84.0715 30.9888C84.2187 30.9888 84.3659 31.1603 84.5499 31.197C84.5499 31.1235 84.4027 31.197 84.4273 31.0868C84.4886 31.0868 84.6235 31.0868 84.5622 31.0378C84.6604 31.0378 84.8076 31.099 84.918 31.0378C84.918 30.9888 84.8076 31.0378 84.8076 30.9398C84.8444 30.9521 84.8689 30.9521 84.9057 30.9398C84.9057 30.8908 84.7708 30.8174 84.7094 30.8663C84.6604 30.7929 84.8689 30.7806 84.8812 30.7561C84.8566 30.7561 84.8444 30.7561 84.8198 30.7561C84.8198 30.7561 84.8689 30.7561 84.8934 30.7561C84.918 30.7561 84.8198 30.6949 84.8076 30.6459C84.7953 30.5969 84.8934 30.6459 84.9425 30.6459C84.9916 30.6459 84.9425 30.6459 84.9425 30.7072C84.9425 30.7684 84.9425 30.7072 85.0407 30.7072C85.1388 30.7072 84.9916 30.7072 85.0407 30.6214C85.0897 30.5357 85.1633 30.6214 85.1879 30.6704C85.2124 30.7194 86.5496 30.2663 86.7459 30.2173C86.8809 30.1928 87.0036 30.1316 87.114 30.0459C87.2857 29.6295 87.5556 29.2744 87.9114 29.005L87.8378 28.4539L87.7519 28.0253C87.7519 28.0253 87.3471 27.9763 87.2489 27.7559C87.163 27.5232 86.8809 26.7027 86.8809 26.7027C86.4024 25.5883 86.7337 25.3802 86.7337 25.3802C86.0957 24.9883 85.3842 24.7189 84.6481 24.5842C83.9488 24.4495 83.3231 24.0943 82.8447 23.5555C82.6975 23.3106 83.0287 23.1269 83.3477 23.1146C83.6666 23.1024 84.4763 22.9432 84.9916 22.882C85.5069 22.8207 86.5619 22.5758 86.8809 22.5023C87.1998 22.4289 87.2612 22.0125 87.2612 22.0125C87.5311 21.0818 87.8991 20.1879 88.3776 19.3429C88.4635 19.2327 88.5861 19.1469 88.7211 19.0857C88.856 19.0245 88.991 19 89.1382 19C89.2732 19.049 90.0829 19.3306 90.3528 19.3919C90.7576 19.3796 91.1624 19.3184 91.5428 19.1959C91.7881 19.2204 92.0089 19.3184 92.2175 19.4531C92.6469 19.6245 93.0272 19.8817 93.3584 20.2123C93.7142 20.7144 93.9596 21.29 94.1068 21.89C94.1927 22.3309 94.254 22.784 94.2908 23.2371C94.2908 23.2861 94.3031 23.3351 94.3276 23.3841C94.3522 23.4208 94.389 23.4575 94.438 23.482C96.2537 23.8984 98.4497 23.9841 98.4497 24.6944C98.4497 26.0904 94.6834 26.1639 94.1559 26.2129C94.0086 26.3843 93.8369 28.6376 93.4075 28.956C93.7387 29.2131 93.9718 29.5805 94.0945 29.9846C99.3207 31.2337 99.4434 31.846 100.425 34.0625C100.363 33.9523 100.192 34.0136 100.081 33.9156L100.057 33.7442ZM93.9718 33.1074C93.886 33.0461 93.7265 33.0094 93.7633 32.8747C93.6897 32.8747 93.6529 32.8012 93.6161 32.74C93.5915 32.6788 93.5302 32.74 93.5057 32.74C93.5915 32.74 93.5915 32.8257 93.6529 32.8502C93.7142 32.8747 93.6529 32.9359 93.6529 32.9727C93.6529 33.0094 93.5915 32.9727 93.5915 32.9727C93.5915 32.9727 93.5915 32.8992 93.5915 32.8502C93.5915 32.8012 93.5179 32.8502 93.4688 32.8502C93.4198 32.8502 93.5425 32.9237 93.4688 32.9727C93.3952 33.0216 93.2235 32.9727 93.1867 32.838C93.1499 32.7032 93.3094 32.838 93.4075 32.838C93.4934 32.838 93.3339 32.7645 93.3216 32.7032C93.1376 32.789 93.0517 32.4951 92.88 32.5563C92.9904 32.6665 93.1008 32.7767 93.1867 32.9114C93.4443 33.0094 93.5057 33.3155 93.7387 33.438C93.7387 33.34 93.8124 33.438 93.8246 33.389C93.8369 33.34 93.7755 33.34 93.751 33.2911C93.7387 33.2421 93.8614 33.2543 93.9105 33.2176C93.9596 33.1931 93.9105 33.1563 93.9473 33.1196L93.9718 33.1074ZM97.8854 34.0503C97.8854 34.0503 97.9344 34.185 97.9467 34.1238C97.9712 34.0748 97.9467 34.0381 97.8854 34.0503ZM98.1185 34.3075C98.1185 34.3075 98.1675 34.3932 98.1798 34.3075C98.1921 34.2217 98.1307 34.2217 98.1185 34.3075Z" fill="#FFA102"/>
<path d="M66.565 38.6916H66.1602V38.3242H67.3747V38.6916H66.9699V40.7612H66.5527V38.6916H66.565Z" fill="#FFA102"/>
<path d="M69.0684 40.7736V38.3489H70.1725V38.704H69.4732V39.3285H70.013V39.6959H69.4732V40.4062H70.2216V40.7736H69.0684Z" fill="#FFA102"/>
<path d="M73.3986 40.9694C73.3127 40.9694 73.2268 40.9572 73.1532 40.9204C73.0796 40.8837 73.0183 40.8225 72.9692 40.749C72.8588 40.798 72.7484 40.8347 72.6257 40.8225C72.5398 40.8347 72.4539 40.8225 72.3803 40.7857C72.3067 40.7612 72.2331 40.7122 72.1718 40.651C72.1104 40.5898 72.0613 40.5163 72.0368 40.4428C72.0123 40.3694 72 40.2836 72 40.1979V38.9366C72 38.7651 72.0613 38.6059 72.184 38.4835C72.3067 38.361 72.4662 38.2998 72.6257 38.2998C72.7974 38.2998 72.9569 38.361 73.0673 38.4835C73.19 38.6059 73.2514 38.7651 73.2514 38.9366V40.2102C73.2514 40.3204 73.2268 40.4306 73.1777 40.5163C73.2268 40.5653 73.3004 40.602 73.374 40.602V40.9694H73.3986ZM72.6379 39.9163C72.7116 39.953 72.7729 40.002 72.822 40.0632V38.9366C72.822 38.7529 72.7729 38.6672 72.6011 38.6672C72.4294 38.6672 72.3803 38.7529 72.3803 38.9366V40.2102C72.3803 40.3939 72.4294 40.4796 72.6011 40.4796C72.6502 40.4918 72.6993 40.4918 72.7484 40.4796C72.7238 40.4306 72.687 40.3816 72.6379 40.3449V39.9163Z" fill="#FFA102"/>
<path d="M75.1406 38.3364H75.5577V40.2101C75.5577 40.3815 75.6314 40.4795 75.7786 40.4795C75.9258 40.4795 75.9994 40.3938 75.9994 40.2101V38.3364H76.4165V40.1489C76.4165 40.3203 76.3552 40.4795 76.2325 40.602C76.1098 40.7244 75.9503 40.7856 75.7908 40.7856C75.6191 40.7856 75.4596 40.7244 75.3492 40.602C75.2265 40.4795 75.1652 40.3203 75.1652 40.1489V38.3364H75.1406Z" fill="#FFA102"/>
<path d="M78.2939 40.7736V38.3489H78.711V40.7736H78.2939Z" fill="#FFA102"/>
<path d="M80.5879 40.7736V38.3489H81.005V40.4184H81.6552V40.7858H80.5879V40.7736Z" fill="#FFA102"/>
<path d="M83.605 40.7736H83.2002L83.6419 38.3489H84.1816L84.6233 40.7736H84.1816L84.108 40.2347H83.6541L83.605 40.7736ZM83.74 39.8674H84.0712L83.8995 38.8264L83.74 39.8674Z" fill="#FFA102"/>
<path d="M88.8927 40.7736H88.4756V38.3489H89.0522C89.5184 38.3489 89.7515 38.5448 89.7515 39.0591C89.7515 39.451 89.6043 39.6102 89.457 39.6714L89.8128 40.7736H89.3957L89.1013 39.7694H88.8927V40.7736ZM88.8927 39.4387H89.0399C89.2608 39.4387 89.3466 39.353 89.3466 39.0714C89.3466 38.7775 89.2608 38.704 89.0399 38.704H88.8927V39.4387Z" fill="#FFA102"/>
<path d="M91.5928 40.7736V38.3489H92.6969V38.704H91.9976V39.3285H92.5374V39.6959H91.9976V40.4062H92.746V40.7736H91.5928Z" fill="#FFA102"/>
<path d="M95.2724 38.9366C95.2724 38.7284 95.1497 38.6671 95.0516 38.6671C94.9657 38.6671 94.843 38.7529 94.843 38.8998C94.843 39.3162 95.6895 39.5121 95.6895 40.1734C95.6895 40.2591 95.6772 40.3448 95.6527 40.4306C95.6159 40.5163 95.5668 40.5775 95.5055 40.6387C95.4441 40.7 95.3705 40.749 95.2847 40.7734C95.1988 40.7979 95.1129 40.8102 95.027 40.7979C94.9412 40.7979 94.8553 40.7734 94.7817 40.7367C94.7081 40.7 94.6345 40.651 94.5731 40.5898C94.5118 40.5285 94.475 40.4551 94.4382 40.3693C94.4136 40.2836 94.4014 40.1979 94.4014 40.1122L94.7939 40.0509C94.7939 40.2959 94.9044 40.4183 95.0393 40.4183C95.0761 40.4183 95.1006 40.4183 95.1252 40.4061C95.1497 40.3938 95.1865 40.3816 95.2111 40.3571C95.2356 40.3326 95.2479 40.3081 95.2601 40.2836C95.2724 40.2591 95.2724 40.2224 95.2724 40.1979C95.2724 39.7203 94.4259 39.5856 94.4259 38.8876C94.4136 38.8018 94.4259 38.7161 94.4627 38.6426C94.4872 38.5692 94.5363 38.4957 94.5977 38.4345C94.659 38.3732 94.7326 38.3365 94.8185 38.312C94.9044 38.2875 94.978 38.2753 95.0638 38.2875C95.1374 38.2875 95.2111 38.2998 95.2847 38.3365C95.3583 38.361 95.4196 38.41 95.4687 38.4712C95.5178 38.5202 95.5668 38.5937 95.5914 38.6671C95.6159 38.7406 95.6282 38.8141 95.6282 38.8876L95.2724 38.9366Z" fill="#FFA102"/>
<path d="M97.457 40.7736V38.3489H98.5611V38.704H97.8741V39.3285H98.4139V39.6959H97.8741V40.4062H98.6225V40.7736H97.457Z" fill="#FFA102"/>
<path d="M100.769 40.7736H100.352V38.3489H100.929C101.395 38.3489 101.628 38.5448 101.628 39.0591C101.628 39.451 101.481 39.6102 101.334 39.6714L101.69 40.7736H101.272L100.978 39.7694H100.769V40.7736ZM100.769 39.451H100.917C101.138 39.451 101.223 39.3653 101.223 39.0836C101.223 38.7897 101.138 38.7162 100.917 38.7162H100.769V39.451Z" fill="#FFA102"/>
<path d="M104.338 38.3364H104.743L104.24 40.7612H103.823L103.32 38.3364H103.725L104.032 40.0264L104.338 38.3364Z" fill="#FFA102"/>
<path d="M106.67 40.7736H106.265L106.707 38.3489H107.222L107.664 40.7736H107.259L107.186 40.2347H106.732L106.67 40.7736ZM106.805 39.8796H107.136L106.965 38.8387L106.805 39.8796Z" fill="#FFA102"/>
<path d="M111.553 38.3364H112.166C112.595 38.3364 112.816 38.5691 112.816 39.0957V40.0631C112.816 40.5652 112.595 40.8224 112.166 40.8224H111.553V38.3364ZM111.957 40.4305H112.068C112.289 40.4305 112.362 40.3448 112.362 40.0876V39.0222C112.362 38.7651 112.289 38.6793 112.068 38.6793H111.921L111.957 40.4305Z" fill="#FFA102"/>
<path d="M114.669 40.7736V38.3489H115.773V38.704H115.086V39.3285H115.626V39.6959H115.086V40.4062H115.834V40.7736H114.669Z" fill="#FFA102"/>
</g>
</svg>
