<svg width="180" height="100" viewBox="0 0 180 100" fill="none" xmlns="http://www.w3.org/2000/svg">
<mask id="mask0_1630_119330" style="mask-type:alpha" maskUnits="userSpaceOnUse" x="0" y="0" width="180" height="100">
<path d="M180 0H0V100H180V0Z" fill="white"/>
</mask>
<g mask="url(#mask0_1630_119330)">
<path d="M124.17 51.3011C122.826 52.9764 120.552 55.9434 118.793 55.9333C116.712 55.9333 120.815 51.1699 123.007 48.425C123.725 47.5167 124.776 46.4066 125.685 46.4571C126.928 46.4571 125.776 49.2929 124.17 51.3011ZM138.863 49.1213C137.004 51.4929 132.587 55.8626 131.324 55.8525C130.688 55.8525 130.576 54.8434 131.516 53.7333C133.537 51.281 137.58 46.3663 137.58 46.3663H134.598C134.598 46.3663 131.961 49.5754 130.637 51.1699C128.778 53.5415 126.201 55.903 124.574 55.903C123.897 55.903 123.957 55.1158 125.008 53.7736C126.959 51.3011 128.939 48.7984 130.89 46.3461H128.05L125.352 49.969C126.453 48.2433 127.05 46.0837 125.645 46.0837C123.624 46.0837 120.4 47.8598 118.692 49.9993C116.035 53.3296 116.843 56.2461 118.692 56.2461C120.713 56.2461 122.532 53.6122 124.402 51.2002C122.836 53.3195 122.502 56.1856 124.402 56.1856C126.019 56.1856 128.283 54.3791 130.041 51.947C128.939 53.9654 129.293 56.125 130.96 56.1452C132.628 56.1654 135.69 52.9259 137.681 50.5039C136.549 51.9672 135.427 53.4204 134.285 54.8736C132.193 57.5883 129.819 60.6966 128.293 62.2507C128.353 62.2507 128.414 62.3617 128.475 62.4021C129.616 61.7865 134.447 61.2718 137.681 58.9507C140.914 56.6296 142.733 53.0672 141.268 50.9479C142.208 53.2993 140.025 56.5287 138.317 58.0122C136.447 59.5744 134.224 60.6585 131.84 61.1709C132.253 60.7404 132.644 60.289 133.012 59.8186C136.579 55.3379 143.683 46.336 143.683 46.336H140.914L138.863 49.1213Z" fill="#040404"/>
<path d="M117.692 49.404C119.713 49.404 121.219 46.104 119.359 46.1141C117.934 46.1141 114.822 49.2425 110.436 54.7224C110.739 54.2783 111.012 53.8343 111.315 53.3902C113.124 51.059 114.923 48.7076 116.722 46.326H114.024C113.488 47.0425 113.013 47.7489 112.417 48.4654C112.42 48.442 112.42 48.4183 112.417 48.3948C112.417 48.3948 106.141 55.8829 102.756 55.893C102.281 55.893 102.018 55.7114 102.008 55.2471C102.008 54.1169 103.372 52.4921 104.666 50.8067C105.393 49.8884 106.111 48.97 106.828 48.0416C108.486 45.9223 109.345 46.0838 109.345 46.8508C109.345 47.6177 108.112 49.4242 106.687 50.6756C105.611 51.5518 104.421 52.2783 103.15 52.8352C103.15 52.8352 109.941 50.4535 109.931 47.1636C109.931 46.5076 109.527 46.0232 108.647 46.0232C107.263 46.0232 104.09 47.87 102.311 49.8682C102.175 50.0099 102.05 50.1617 101.937 50.3223C101.854 50.4223 101.777 50.5268 101.705 50.6352C98.8455 54.1673 96.4707 55.8829 95.3288 55.8829C94.5709 55.8829 95.0661 54.7224 96.117 53.36C98.027 50.9278 101.614 46.2957 101.614 46.2957H98.7647C98.7647 46.2957 97.2488 48.3141 96.4808 49.3233C92.9742 53.6728 90.4175 55.8627 89.3362 55.8526C88.4469 55.8526 88.8714 54.7627 89.9426 53.4306L95.5309 46.2856H92.6609C92.6609 46.2856 90.1851 49.404 88.9724 50.948C87.1939 53.259 86.9614 56.2866 89.0432 56.2866C90.2861 56.2866 91.8222 55.3581 94.6113 51.8563C93.2572 53.9453 93.3885 56.2866 95.2075 56.2866C96.4202 56.2866 98.0674 55.6407 101.452 51.1499C99.9976 53.6425 100.614 56.1958 102.604 56.1958C106.252 56.1958 110.992 50.3627 112.184 48.8187L106.828 55.9334H109.648C110.739 54.3086 116.237 48.1122 117.601 47.4865C117.116 47.8398 116.59 49.404 117.692 49.404Z" fill="#040404"/>
<path d="M76.29 55.8222C75.8352 55.8222 75.5018 55.247 76.7144 53.7029C78.1191 51.9066 79.5541 50.1203 80.9587 48.3341C81.6762 47.4157 82.5958 46.4368 83.5053 46.4368C85.2839 46.4368 83.9298 49.0708 82.2523 51.1699C80.5747 53.269 77.6947 55.8424 76.29 55.8222ZM81.9693 58.6681C80.5504 59.9216 78.8475 60.8117 77.0075 61.2617C77.5292 60.9271 77.9848 60.4995 78.3515 60.0002C81.8783 55.4589 85.4254 50.9176 88.9118 46.3662H86.0014L83.5761 49.7167C84.5866 48.0212 85.2637 46.1038 83.475 46.1038C81.4539 46.1038 77.9877 47.8497 76.29 49.979C73.6221 53.3295 74.2689 56.236 76.1283 56.236C77.826 56.236 80.1705 53.9653 82.0704 51.7047C77.3612 57.7598 74.6024 61.302 73.5615 62.402C74.4104 62.0993 75.5826 61.9984 76.5932 61.7663C80.7768 60.7571 83.667 58.3451 88.7198 51.3717C86.6945 54.0021 84.4351 56.4442 81.9693 58.6681Z" fill="#040404"/>
<path d="M50.6423 55.8828C49.5206 55.8828 50.3088 54.2782 51.5215 52.5929C52.5927 51.1195 53.8761 49.5654 54.8866 48.3241C55.6344 47.4158 56.645 46.4268 57.4838 46.4268C58.7874 46.4268 57.7162 49.0204 56.0286 51.1195C54.3409 53.2186 52.1784 55.8828 50.6423 55.8828ZM69.479 55.8828C69.196 55.8828 68.9535 55.7819 68.9535 55.4186C68.9535 54.3186 74.1073 50.7158 74.077 47.6984C74.077 46.8708 73.7132 45.9929 72.6521 45.9929C70.8534 45.9929 66.2553 51.3213 63.9311 54.0663C64.7799 52.9461 65.6288 51.8461 66.4575 50.736C68.9838 47.4663 69.9641 46.3158 69.9641 46.3158H67.1952L64.0726 50.3525C60.5558 54.581 57.9183 55.8122 56.7157 55.8122C55.978 55.8122 55.8972 54.8938 57.0593 53.37C58.8884 50.9277 60.6266 48.7176 62.4658 46.3057H59.616C58.9288 47.2543 58.3427 48.0011 57.6758 48.9498C58.4741 47.4764 58.7874 46.0433 57.2614 46.0534C55.3212 46.0534 52.047 47.7186 50.3695 49.8378C47.7117 53.1984 48.6212 56.1654 50.4806 56.1654C52.34 56.1654 53.9367 53.9452 55.6344 51.7553C54.1489 53.8746 54.3207 56.2158 56.3317 56.2158C57.3423 56.2158 59.6665 55.8525 63.0822 51.6846L59.8687 55.8727H62.5466C63.6077 54.4296 70.7523 46.3764 72.5107 46.3562C72.6162 46.3534 72.7186 46.392 72.796 46.4636C72.8735 46.5353 72.9197 46.6344 72.925 46.7397C72.925 47.9103 67.6802 51.4525 67.6903 54.2076C67.6903 55.1562 68.0743 56.2259 69.1758 56.2259C71.9852 56.2259 75.0876 51.8057 75.8455 50.5039C75.2088 51.5131 71.7022 55.8525 69.479 55.8626" fill="#040404"/>
<path d="M40.1428 57.8911C39.6348 57.8833 39.1272 57.9238 38.627 58.0122C40.627 57.6585 42.4045 56.5259 43.5686 54.8636C45.9535 51.5535 48.6213 48.2534 50.9658 44.9332C52.4917 42.8039 54.2703 41.2397 55.6346 41.0075C60.9096 41.0075 65.0933 39.6451 65.4167 38.4543H65.1439C65.1439 38.4543 64.9417 39.2112 62.4457 39.2314C58.0498 39.2314 53.8762 37.98 49.1872 38.0002C44.4983 38.0204 38.6876 41.0277 38.6876 45.5287C38.6876 46.1846 39.0009 46.1947 39.112 46.1947H39.8801C39.8801 46.1947 39.3546 46.0333 39.3546 44.6608C39.4922 43.3646 40.0991 42.1633 41.0611 41.2825C42.0232 40.4017 43.2742 39.902 44.5791 39.8773C48.6213 39.8773 51.1578 40.9571 55.0383 41.0378C52.1684 41.2497 48.3889 43.6112 46.0747 46.8406C46.0747 46.8406 39.2333 55.9232 38.5865 56.9324C38.1522 57.5759 37.6164 58.1451 37 58.6177C39.6678 57.6792 41.5778 58.6177 42.7904 58.6177C43.0167 58.6405 43.2449 58.6052 43.4536 58.5151C43.6623 58.4251 43.8445 58.2832 43.9829 58.103C43.1846 58.426 41.8809 57.9214 40.1428 57.9315" fill="#040404"/>
<path d="M142.138 60.0306C141.958 60.0306 141.786 59.9593 141.659 59.8325C141.532 59.7057 141.46 59.5337 141.46 59.3544C141.46 59.1751 141.532 59.0031 141.659 58.8763C141.786 58.7495 141.958 58.6783 142.138 58.6783C142.317 58.6783 142.489 58.7495 142.616 58.8763C142.743 59.0031 142.815 59.1751 142.815 59.3544C142.815 59.5337 142.743 59.7057 142.616 59.8325C142.489 59.9593 142.317 60.0306 142.138 60.0306ZM142.138 58.5168C142.026 58.5141 141.915 58.5338 141.812 58.5748C141.708 58.6158 141.614 58.6772 141.535 58.7554C141.456 58.8336 141.393 58.927 141.351 59.0299C141.308 59.1328 141.287 59.2432 141.289 59.3544C141.289 59.5792 141.378 59.7949 141.537 59.9538C141.697 60.1128 141.912 60.2021 142.138 60.2021C142.363 60.2021 142.579 60.1128 142.738 59.9538C142.897 59.7949 142.986 59.5792 142.986 59.3544C142.988 59.2432 142.967 59.1328 142.924 59.0299C142.882 58.927 142.82 58.8336 142.74 58.7554C142.661 58.6772 142.567 58.6158 142.463 58.5748C142.36 58.5338 142.249 58.5141 142.138 58.5168Z" fill="#040404"/>
<path d="M142.078 59.3139H141.896V59.0717H142.068C142.179 59.0717 142.26 59.0716 142.26 59.1927C142.26 59.3138 142.2 59.3139 142.038 59.3139H142.078ZM142.2 59.435C142.233 59.4337 142.265 59.4258 142.295 59.4119C142.326 59.398 142.353 59.3784 142.375 59.354C142.398 59.3296 142.415 59.301 142.427 59.2699C142.438 59.2388 142.443 59.2057 142.442 59.1726C142.442 59.0111 142.331 58.9304 142.139 58.9304H141.714V59.8184H141.896V59.4551C142.008 59.4551 142.068 59.4551 142.159 59.6772C142.191 59.7199 142.214 59.7677 142.23 59.8184H142.452L142.361 59.6469C142.26 59.4854 142.24 59.4652 142.159 59.435" fill="#040404"/>
</g>
</svg>
